#N canvas 441 182 279 436 10;
#X declare -stdpath iemlib -lib iemlib1;
#X declare -path ../domoTools/gammabs;
#X declare -path ../domoTools/domonet;
#X declare -path ../domoTools/notebank;
#X declare -path ../domoTools/effects;
#X declare -path ../domoTools/rhythmic;
#X declare -path ../domoTools/song;
#X declare -stdpath motex -path motex -lib motex -path ggee -lib ggee
;
#X obj 24 37 fraise_interface;
#X obj 25 84 r CLOCK;
#X obj 25 127 unpack f f;
#X floatatom 25 149 5 0 0 0 - - -;
#X floatatom 82 149 5 0 0 0 - - -;
#X obj 25 174 bng 50 50 50 0 empty empty empty 17 7 0 10 -262144 -1
-1;
#X obj 102 181 r /BPM;
#X floatatom 102 203 5 0 0 0 - - -;
#X obj 25 105 route list;
#X obj 117 85 r TEMPOLED;
#X obj 25 230 GAMMEKBV /GAMME;
#X obj 25 294 GAMMEKBV /CHORD;
#N canvas 676 143 718 455 notebanks 1;
#X obj 18 9 notebank 1 44 CollectionBulle;
#X obj 18 29 notebank 2 4 CollectionChantsCollectifs;
#X obj 274 181 s NOTEBANK-LOADTABLES;
#X obj 301 159 s NOTEBANK-DATASDIR;
#X obj 274 115 r DATASDIR;
#X obj 274 136 t b a;
#X obj 328 50 accorder;
#X obj 328 71 dac~;
#X obj 340 406 s PLAYER1;
#X text 268 424 play PLAYER_VOICENB BANK_NB NOTE_NB [KEY];
#X floatatom 340 231 5 0 0 0 - - -;
#X msg 340 385 play \$1 \$2 \$3 0;
#X obj 119 304 clone noteplayer 10 PLAYER1;
#X obj 340 252 t b f, f 10;
#X obj 340 273 i;
#X obj 340 294 + 1;
#X obj 340 315 mod 10;
#X obj 340 336 pack f 1 f;
#X msg 340 357 \$1 \$2 \$3;
#X msg 429 285 1;
#X msg 429 305 3;
#X obj 18 48 notebank 3 28 CollectionFouet;
#X floatatom 453 367 5 0 0 0 - - -;
#X msg 453 387 transpose \$1;
#X obj 119 326 *~ 0.4;
#X obj 19 66 notebank 4 14 CollectionElectro;
#X obj 19 105 notebank 6 12 CollectionOpera;
#X obj 19 124 notebank 7 14 CollectionOrchestrale;
#X obj 19 143 notebank 8 11 CollectionPercu;
#X obj 20 162 notebank 9 10 CollectionPizziBasse;
#X obj 20 181 notebank 10 16 CollectionPizziViolon;
#X obj 21 201 notebank 11 15 CollectionSword;
#X obj 21 220 notebank 12 11 CollectionTom;
#X obj 19 85 notebank 5 20 CollectionFlute;
#X obj 21 239 notebank 13 41 CollectionChant;
#X obj 61 431 throw~ master;
#X floatatom 464 277 5 0 0 0 - - -;
#X obj 468 202 + 1;
#X obj 459 105 metro 200;
#X obj 462 63 tgl 15 0 empty empty empty 17 7 0 10 -262144 -1 -1 0
1;
#X obj 164 405 throw~ reverb;
#X obj 164 380 *~ 0.8;
#X obj 468 181 random 16;
#X obj 558 325 getnbnotes;
#X floatatom 558 346 5 0 0 0 - - -;
#X connect 4 0 5 0;
#X connect 5 0 2 0;
#X connect 5 1 3 0;
#X connect 6 0 7 0;
#X connect 6 0 7 1;
#X connect 10 0 13 0;
#X connect 11 0 8 0;
#X connect 12 0 24 0;
#X connect 13 0 14 0;
#X connect 13 1 17 2;
#X connect 14 0 15 0;
#X connect 15 0 16 0;
#X connect 16 0 14 1;
#X connect 16 0 17 0;
#X connect 17 0 18 0;
#X connect 18 0 11 0;
#X connect 19 0 17 1;
#X connect 20 0 17 1;
#X connect 22 0 23 0;
#X connect 23 0 8 0;
#X connect 24 0 41 0;
#X connect 24 0 35 0;
#X connect 36 0 17 1;
#X connect 36 0 43 0;
#X connect 37 0 10 0;
#X connect 38 0 42 0;
#X connect 39 0 38 0;
#X connect 41 0 40 0;
#X connect 42 0 37 0;
#X connect 43 0 42 1;
#X connect 43 0 44 0;
#X restore 26 371 pd notebanks;
#N canvas 14 392 625 384 General 0;
#X obj 26 94 getenv HOME;
#X obj 245 117 bng 15 250 50 0 empty empty empty 17 7 0 10 -262144
-1 -1;
#X symbolatom 26 115 10 0 0 0 - - -;
#X obj 245 179 s DATASDIR;
#X obj 245 96 loadbang;
#N canvas 184 519 566 300 MASTER 0;
#X obj 176 156 limiter~;
#X obj 136 157 z~ 64;
#X obj 134 19 catch~ master;
#X obj 136 178 *~;
#X obj 130 219 dac~;
#X obj 228 21 catch~ reverb;
#X obj 227 43 rev3~ 100 92 2000 20;
#X obj 263 89 r POTVOL;
#X obj 263 110 pow 2;
#X msg 263 131 \$1 20;
#X obj 263 152 line~;
#X obj 135 121 *~;
#X obj 334 90 hsl 128 15 0 1 0 0 empty empty empty -2 -8 0 10 -262144
-1 -1 7900 1;
#X obj 379 36 loadbang;
#X msg 379 57 0.5;
#X connect 0 0 3 1;
#X connect 1 0 3 0;
#X connect 2 0 11 0;
#X connect 3 0 4 0;
#X connect 3 0 4 1;
#X connect 5 0 6 0;
#X connect 6 0 11 0;
#X connect 7 0 8 0;
#X connect 8 0 9 0;
#X connect 9 0 10 0;
#X connect 10 0 11 1;
#X connect 11 0 0 0;
#X connect 11 0 1 0;
#X connect 12 0 8 0;
#X connect 13 0 14 0;
#X connect 14 0 12 0;
#X restore 26 185 pd MASTER;
#X obj 411 49 loadbang;
#X msg 411 70 \; pd dsp 1;
#X obj 480 179 s /GAMME;
#X msg 480 159 2741;
#X obj 417 179 s /CHORD;
#X msg 417 161 145;
#X obj 426 108 loadbang;
#X msg 386 127 1;
#X obj 27 217 bng 15 250 50 0 empty empty empty 17 7 0 10 -258113 -1
-1;
#X msg 134 573 symbol test1;
#X obj 85 248 s /UNLOCKSNAP;
#X obj 85 229 tgl 15 0 empty empty empty 17 7 0 10 -262144 -1 -1 0
1;
#X msg 216 573 symbol test2;
#X obj 134 594 s /SONG;
#X obj 27 271 songMaster SONGS SETTINGS;
#X obj 27 247 5clicks;
#X msg 26 135 symbol \$1/Datas/Domozic/Baguettes;
#N canvas 1 81 450 300 declares 0;
#X obj 28 57 declare -stdpath iemlib -lib iemlib1;
#X obj 29 80 declare -path ../domoTools/gammabs;
#X obj 29 98 declare -path ../domoTools/domonet;
#X obj 29 116 declare -path ../domoTools/notebank;
#X obj 29 134 declare -path ../domoTools/effects;
#X obj 29 153 declare -path ../domoTools/rhythmic;
#X obj 29 171 declare -path ../domoTools/song;
#X obj 27 28 declare -stdpath motex -path motex -lib motex -path ggee
-lib ggee;
#X restore 27 9 pd declares;
#X obj 245 135 getdir;
#X msg 245 157 symbol \$1/WAVS;
#X obj 27 31 domonet Baguettes;
#X connect 0 0 2 0;
#X connect 1 0 24 0;
#X connect 2 0 22 0;
#X connect 4 0 1 0;
#X connect 6 0 7 0;
#X connect 9 0 8 0;
#X connect 11 0 10 0;
#X connect 12 0 11 0;
#X connect 12 0 9 0;
#X connect 13 0 10 0;
#X connect 13 0 8 0;
#X connect 14 0 21 0;
#X connect 15 0 19 0;
#X connect 17 0 16 0;
#X connect 18 0 19 0;
#X connect 21 0 20 0;
#X connect 22 0 3 0;
#X connect 24 0 25 0;
#X connect 25 0 3 0;
#X restore 24 58 pd General;
#X obj 117 108 tgl 15 0 empty empty empty 17 7 0 10 -262144 -1 -1 1
1;
#X obj 117 129 s LEDROUGE;
#N canvas 66 195 762 409 Orchestre 1;
#X obj 68 88 *~ 0.4;
#X obj 69 194 throw~ master;
#X obj 90 158 throw~ reverb;
#X obj 90 133 *~ 0.8;
#X obj 68 66 clone noteplayer 10 ORCHPLAYER;
#X text 265 373 play PLAYER_VOICENB BANK_NB NOTE_NB [KEY];
#X floatatom 337 180 5 0 0 0 - - -;
#X msg 337 334 play \$1 \$2 \$3 0;
#X obj 337 201 t b f, f 10;
#X obj 337 222 i;
#X obj 337 243 + 1;
#X obj 337 264 mod 10;
#X obj 337 285 pack f 1 f;
#X msg 337 306 \$1 \$2 \$3;
#X msg 426 234 1;
#X msg 426 254 3;
#X floatatom 450 316 5 0 0 0 - - -;
#X msg 450 336 transpose \$1;
#X floatatom 461 226 5 0 0 0 - - -;
#X obj 337 157 + 1;
#X obj 337 136 random 16;
#X obj 555 274 getnbnotes;
#X floatatom 555 295 5 0 0 0 - - -;
#X obj 337 355 s ORCHPLAYER;
#X obj 347 27 r PEDALES;
#X obj 347 48 route 0;
#X obj 347 73 tgl 15 0 empty empty empty 17 7 0 10 -262144 -1 -1 0
1;
#X obj 347 93 s ORCHESTRE_ON;
#X obj 649 32 r ORCHESTRE_ON;
#X obj 496 31 r POTSELECT;
#X obj 496 52 songParam SONGS orchSelect;
#X obj 496 73 s ORCHSELECT;
#X obj 624 104 r ORCHESTRE_ON;
#X obj 495 104 r POTFX;
#X obj 495 125 songParam SONGS orchFx;
#X obj 495 146 s ORCHFX;
#X connect 0 0 3 0;
#X connect 0 0 1 0;
#X connect 3 0 2 0;
#X connect 4 0 0 0;
#X connect 6 0 8 0;
#X connect 7 0 23 0;
#X connect 8 0 9 0;
#X connect 8 1 12 2;
#X connect 9 0 10 0;
#X connect 10 0 11 0;
#X connect 11 0 9 1;
#X connect 11 0 12 0;
#X connect 12 0 13 0;
#X connect 13 0 7 0;
#X connect 14 0 12 1;
#X connect 15 0 12 1;
#X connect 16 0 17 0;
#X connect 17 0 23 0;
#X connect 18 0 12 1;
#X connect 18 0 21 0;
#X connect 19 0 6 0;
#X connect 20 0 19 0;
#X connect 21 0 20 1;
#X connect 21 0 22 0;
#X connect 24 0 25 0;
#X connect 25 0 26 0;
#X connect 26 0 27 0;
#X connect 28 0 30 1;
#X connect 29 0 30 0;
#X connect 30 0 31 0;
#X connect 32 0 34 1;
#X connect 33 0 34 0;
#X connect 34 0 35 0;
#X restore 160 374 pd Orchestre;
#X connect 1 0 8 0;
#X connect 2 0 3 0;
#X connect 2 1 4 0;
#X connect 3 0 5 0;
#X connect 6 0 7 0;
#X connect 8 0 2 0;
#X connect 9 0 14 0;
#X connect 14 0 15 0;
