#N canvas 411 194 227 424 10;
#X declare -stdpath iemlib -lib iemlib1;
#X declare -path ../domoTools/gammabs;
#X declare -path ../domoTools/domonet;
#X declare -path ../domoTools/notebank;
#X declare -path ../domoTools/effects;
#X declare -path ../domoTools/rhythmic;
#X declare -path ../domoTools/song;
#X declare -stdpath motex -path motex -lib motex -path ggee -lib ggee
;
#X obj 24 37 fraise_interface;
#X obj 25 84 r CLOCK;
#X obj 25 127 unpack f f;
#X floatatom 25 149 5 0 0 0 - - -;
#X floatatom 82 149 5 0 0 0 - - -;
#X obj 25 174 bng 50 50 50 0 empty empty empty 17 7 0 10 -262144 -1
-1;
#X obj 102 181 r /BPM;
#X floatatom 102 203 5 0 0 0 - - -;
#X obj 25 105 route list;
#X obj 117 85 r TEMPOLED;
#X obj 25 230 GAMMEKBV /GAMME;
#X obj 25 294 GAMMEKBV /CHORD;
#N canvas 665 139 551 455 notebanks 0;
#X obj 63 52 notebank 1 44 CollectionBulle;
#X obj 63 72 notebank 2 4 CollectionChantsCollectifs;
#X obj 227 191 s NOTEBANK-LOADTABLES;
#X obj 254 169 s NOTEBANK-DATASDIR;
#X obj 227 125 r DATASDIR;
#X obj 227 146 t b a;
#X obj 143 199 accorder;
#X obj 143 220 dac~;
#X obj 108 361 dac~;
#X obj 340 406 s PLAYER1;
#X text 268 424 play PLAYER_VOICENB BANK_NB NOTE_NB [KEY];
#X floatatom 340 231 5 0 0 0 - - -;
#X msg 340 385 play \$1 \$2 \$3 0;
#X obj 119 304 clone noteplayer 10 PLAYER1;
#X obj 340 252 t b f, f 10;
#X obj 340 273 i;
#X obj 340 294 + 1;
#X obj 340 315 mod 10;
#X obj 340 336 pack f 1 f;
#X msg 340 357 \$1 \$2 \$3;
#X msg 429 285 1;
#X msg 429 305 3;
#X obj 62 91 notebank 3 28 CollectionFouet;
#X floatatom 453 367 5 0 0 0 - - -;
#X msg 453 387 transpose \$1;
#X obj 119 326 *~ 0.4;
#X connect 4 0 5 0;
#X connect 5 0 2 0;
#X connect 5 1 3 0;
#X connect 6 0 7 0;
#X connect 6 0 7 1;
#X connect 11 0 14 0;
#X connect 12 0 9 0;
#X connect 13 0 25 0;
#X connect 14 0 15 0;
#X connect 14 1 18 2;
#X connect 15 0 16 0;
#X connect 16 0 17 0;
#X connect 17 0 15 1;
#X connect 17 0 18 0;
#X connect 18 0 19 0;
#X connect 19 0 12 0;
#X connect 20 0 18 1;
#X connect 21 0 18 1;
#X connect 23 0 24 0;
#X connect 24 0 9 0;
#X connect 25 0 8 0;
#X connect 25 0 8 1;
#X restore 26 371 pd notebanks;
#N canvas 1 81 625 384 General 0;
#X obj 26 94 getenv HOME;
#X obj 245 117 bng 15 250 50 0 empty empty empty 17 7 0 10 -262144
-1 -1;
#X symbolatom 26 115 10 0 0 0 - - -;
#X obj 245 179 s DATASDIR;
#X obj 245 96 loadbang;
#N canvas 101 451 450 300 MASTER 0;
#X obj 176 156 limiter~;
#X obj 136 157 z~ 64;
#X obj 134 19 catch~ master;
#X obj 136 178 *~;
#X obj 130 219 dac~;
#X obj 228 21 catch~ reverb;
#X obj 227 43 rev3~ 100 92 2000 20;
#X obj 135 121 *~ 0.2;
#X connect 0 0 3 1;
#X connect 1 0 3 0;
#X connect 2 0 7 0;
#X connect 3 0 4 0;
#X connect 3 0 4 1;
#X connect 5 0 6 0;
#X connect 6 0 7 0;
#X connect 7 0 0 0;
#X connect 7 0 1 0;
#X restore 26 185 pd MASTER;
#X obj 411 49 loadbang;
#X msg 411 70 \; pd dsp 1;
#X obj 480 179 s /GAMME;
#X msg 480 159 2741;
#X obj 417 179 s /CHORD;
#X msg 417 161 145;
#X obj 426 108 loadbang;
#X msg 386 127 1;
#X obj 27 217 bng 15 250 50 0 empty empty empty 17 7 0 10 -258113 -1
-1;
#X msg 134 573 symbol test1;
#X obj 85 248 s /UNLOCKSNAP;
#X obj 85 229 tgl 15 0 empty empty empty 17 7 0 10 -262144 -1 -1 0
1;
#X msg 216 573 symbol test2;
#X obj 134 594 s /SONG;
#X obj 27 271 songMaster SONGS SETTINGS;
#X obj 27 247 5clicks;
#X msg 26 135 symbol \$1/Datas/Domozic/Baguettes;
#N canvas 1 81 450 300 declares 0;
#X obj 28 57 declare -stdpath iemlib -lib iemlib1;
#X obj 29 80 declare -path ../domoTools/gammabs;
#X obj 29 98 declare -path ../domoTools/domonet;
#X obj 29 116 declare -path ../domoTools/notebank;
#X obj 29 134 declare -path ../domoTools/effects;
#X obj 29 153 declare -path ../domoTools/rhythmic;
#X obj 29 171 declare -path ../domoTools/song;
#X obj 27 28 declare -stdpath motex -path motex -lib motex -path ggee
-lib ggee;
#X restore 27 9 pd declares;
#X obj 245 135 getdir;
#X msg 245 157 symbol \$1/WAVS;
#X obj 27 31 domonet Baguettes;
#X connect 0 0 2 0;
#X connect 1 0 24 0;
#X connect 2 0 22 0;
#X connect 4 0 1 0;
#X connect 6 0 7 0;
#X connect 9 0 8 0;
#X connect 11 0 10 0;
#X connect 12 0 11 0;
#X connect 12 0 9 0;
#X connect 13 0 10 0;
#X connect 13 0 8 0;
#X connect 14 0 21 0;
#X connect 15 0 19 0;
#X connect 17 0 16 0;
#X connect 18 0 19 0;
#X connect 21 0 20 0;
#X connect 22 0 3 0;
#X connect 24 0 25 0;
#X connect 25 0 3 0;
#X restore 24 58 pd General;
#X obj 117 108 tgl 15 0 empty empty empty 17 7 0 10 -262144 -1 -1 0
1;
#X connect 1 0 8 0;
#X connect 2 0 3 0;
#X connect 2 1 4 0;
#X connect 3 0 5 0;
#X connect 6 0 7 0;
#X connect 8 0 2 0;
#X connect 9 0 14 0;
