#N canvas 190 329 1020 536 10;
#N canvas 628 359 654 388 guts 0;
#X obj 266 183 unpack f f f;
#X obj 203 9 inlet trig;
#X obj 203 30 t b b;
#X obj 203 79 i;
#X obj 203 100 + 1;
#X obj 203 121 moses 1000;
#X msg 260 142 stop;
#X msg 261 58 0, f 2;
#X obj 41 295 tabwrite \$0-x;
#X obj 128 295 tabwrite \$0-y;
#X obj 216 295 tabwrite \$0-z;
#X obj 266 162 r \$1;
#X msg 411 155 0;
#X msg 362 159 1;
#X msg 411 183 vis \$1;
#X obj 411 204 s \$0-canvas;
#X obj 362 197 == 0;
#X obj 362 218 change;
#X obj 362 248 tgl 50 0 empty empty empty 17 7 0 10 -262144 -1 -1 0
1;
#X obj 203 169 t f b;
#X obj 251 228 f;
#X obj 285 229 f;
#X obj 320 230 f;
#X obj 251 251 / \$2;
#X obj 285 252 / \$2;
#X obj 320 253 / \$2;
#X obj 203 58 metro 2;
#X connect 0 0 20 1;
#X connect 0 1 21 1;
#X connect 0 2 22 1;
#X connect 1 0 2 0;
#X connect 2 0 26 0;
#X connect 2 1 7 0;
#X connect 3 0 4 0;
#X connect 4 0 5 0;
#X connect 5 0 3 1;
#X connect 5 0 19 0;
#X connect 5 1 6 0;
#X connect 6 0 13 0;
#X connect 6 0 26 0;
#X connect 7 0 3 1;
#X connect 7 0 12 0;
#X connect 11 0 0 0;
#X connect 12 0 14 0;
#X connect 12 0 16 0;
#X connect 13 0 14 0;
#X connect 13 0 16 0;
#X connect 14 0 15 0;
#X connect 16 0 17 0;
#X connect 17 0 18 0;
#X connect 19 0 8 1;
#X connect 19 0 10 1;
#X connect 19 0 9 1;
#X connect 19 1 20 0;
#X connect 19 1 22 0;
#X connect 19 1 21 0;
#X connect 20 0 23 0;
#X connect 21 0 24 0;
#X connect 22 0 25 0;
#X connect 23 0 8 0;
#X connect 24 0 9 0;
#X connect 25 0 10 0;
#X connect 26 0 3 0;
#X restore 11 28 pd guts;
#N canvas 0 50 450 250 (subpatch) 0;
#X array \$0-x 1000 float 2;
#X coords 0 1 1000 -1 1000 140 1 0 0;
#X restore 9 68 graph;
#N canvas 0 50 450 250 (subpatch) 0;
#X array \$0-y 1000 float 2;
#X coords 0 1 1000 -1 1000 140 1 0 0;
#X restore 9 224 graph;
#N canvas 0 50 450 250 (subpatch) 0;
#X array \$0-z 1000 float 2;
#X coords 0 1 1000 -1 1000 140 1 0 0;
#X restore 9 383 graph;
#X obj 11 8 inlet trig;
#X obj 144 12 namecanvas \$0-canvas;
#X connect 4 0 0 0;
