#N canvas 507 157 790 556 10;
#X declare -lib zexy -path zexy;
#X obj 46 102 * 256;
#X obj 25 124 +;
#X obj 114 102 * 256;
#X obj 96 124 +;
#X obj 185 102 * 256;
#X obj 167 124 +;
#X obj 25 154 + 32768;
#X obj 25 176 mod 65536;
#X obj 25 198 - 32768;
#X obj 96 145 + 32768;
#X obj 96 167 mod 65536;
#X obj 96 189 - 32768;
#X obj 167 145 + 32768;
#X obj 167 167 mod 65536;
#X obj 167 189 - 32768;
#X obj 25 77 unpack f f f f f f;
#X obj 25 264 pack f f f;
#X obj 25 311 unpack f f f;
#X obj 25 332 t f f;
#X obj 57 401 -;
#X obj 25 377 t f f;
#X obj 57 423 * -1;
#X obj 86 333 t f f;
#X obj 118 402 -;
#X obj 86 378 t f f;
#X obj 118 424 * -1;
#X obj 151 335 t f f;
#X obj 183 404 -;
#X obj 151 380 t f f;
#X obj 183 426 * -1;
#X obj 25 470 pack f f f;
#X obj 108 470 pack f f f;
#X obj 25 286 t a a;
#X obj 25 32 inlet;
#X obj 25 493 s AXLSLOW\$1;
#X obj 108 493 s AXLFAST\$1;
#X obj 280 321 s AXLRAW\$1;
#X obj 305 177 r AXL_SEPARATION;
#X obj 25 355 mavg 20;
#X obj 86 356 mavg 20;
#X obj 151 358 mavg 20;
#X obj 553 42 unpack f f f;
#X obj 553 93 atan2;
#X obj 706 94 atan2;
#X obj 553 206 s ASSIETTE\$1;
#X obj 553 115 / 6.28318;
#X obj 706 116 / 6.28318;
#X obj 629 94 atan2;
#X obj 629 116 / 6.28318;
#X obj 553 64 t f f;
#X obj 553 137 fmod 1;
#X obj 629 138 fmod 1;
#X obj 706 138 fmod 1;
#X obj 553 182 pack f f f;
#X obj 553 20 r AXLRAW\$1;
#X obj 25 220 / 256;
#X obj 96 211 / 256;
#X obj 167 211 / 216;
#X obj 276 51 declare -lib zexy -path zexy;
#X obj 511 298 unpack f f f;
#X obj 545 319 t f f;
#X obj 545 340 *, f 5;
#X obj 584 319 t f f;
#X obj 584 340 *, f 5;
#X obj 545 361 +, f 7;
#X obj 545 382 sqrt;
#X obj 511 410 atan2, f 6;
#X obj 388 322 unpack f f f;
#X obj 422 343 t f f;
#X obj 422 364 *, f 5;
#X obj 461 343 t f f;
#X obj 461 364 *, f 5;
#X obj 422 385 +, f 7;
#X obj 422 406 sqrt;
#X obj 388 434 atan2, f 6;
#X msg 388 298 \$3 \$1 \$2;
#X obj 511 431 clip -0.7 0.7;
#X obj 388 455 clip -0.7 0.7;
#X obj 511 455 / 0.7;
#X obj 388 478 / -0.7;
#X obj 388 271 t a a;
#X obj 388 499 pack f f, f 21;
#X obj 388 250 r AXLSLOW\$1;
#X obj 388 519 s AXLATTITUDE\$1;
#X connect 0 0 1 1;
#X connect 1 0 6 0;
#X connect 2 0 3 1;
#X connect 3 0 9 0;
#X connect 4 0 5 1;
#X connect 5 0 12 0;
#X connect 6 0 7 0;
#X connect 7 0 8 0;
#X connect 8 0 55 0;
#X connect 9 0 10 0;
#X connect 10 0 11 0;
#X connect 11 0 56 0;
#X connect 12 0 13 0;
#X connect 13 0 14 0;
#X connect 14 0 57 0;
#X connect 15 0 1 0;
#X connect 15 1 0 0;
#X connect 15 2 3 0;
#X connect 15 3 2 0;
#X connect 15 4 5 0;
#X connect 15 5 4 0;
#X connect 16 0 32 0;
#X connect 17 0 18 0;
#X connect 17 1 22 0;
#X connect 17 2 26 0;
#X connect 18 0 38 0;
#X connect 18 1 19 1;
#X connect 19 0 21 0;
#X connect 20 0 30 0;
#X connect 20 1 19 0;
#X connect 21 0 31 0;
#X connect 22 0 39 0;
#X connect 22 1 23 1;
#X connect 23 0 25 0;
#X connect 24 0 30 1;
#X connect 24 1 23 0;
#X connect 25 0 31 1;
#X connect 26 0 40 0;
#X connect 26 1 27 1;
#X connect 27 0 29 0;
#X connect 28 0 30 2;
#X connect 28 1 27 0;
#X connect 29 0 31 2;
#X connect 30 0 34 0;
#X connect 31 0 35 0;
#X connect 32 0 17 0;
#X connect 32 1 36 0;
#X connect 33 0 15 0;
#X connect 37 0 38 1;
#X connect 37 0 39 1;
#X connect 37 0 40 1;
#X connect 38 0 20 0;
#X connect 39 0 24 0;
#X connect 40 0 28 0;
#X connect 41 0 49 0;
#X connect 41 1 43 0;
#X connect 41 1 47 1;
#X connect 41 2 42 1;
#X connect 41 2 43 1;
#X connect 42 0 45 0;
#X connect 43 0 46 0;
#X connect 45 0 50 0;
#X connect 46 0 52 0;
#X connect 47 0 48 0;
#X connect 48 0 51 0;
#X connect 49 0 42 0;
#X connect 49 1 47 0;
#X connect 50 0 53 0;
#X connect 51 0 53 1;
#X connect 52 0 53 2;
#X connect 53 0 44 0;
#X connect 55 0 16 0;
#X connect 56 0 16 1;
#X connect 57 0 16 2;
#X connect 59 0 66 0;
#X connect 59 1 60 0;
#X connect 59 2 62 0;
#X connect 60 0 61 0;
#X connect 60 1 61 1;
#X connect 61 0 64 0;
#X connect 62 0 63 0;
#X connect 62 1 63 1;
#X connect 63 0 64 1;
#X connect 64 0 65 0;
#X connect 65 0 66 1;
#X connect 66 0 76 0;
#X connect 67 0 74 0;
#X connect 67 1 68 0;
#X connect 67 2 70 0;
#X connect 68 0 69 0;
#X connect 68 1 69 1;
#X connect 69 0 72 0;
#X connect 70 0 71 0;
#X connect 70 1 71 1;
#X connect 71 0 72 1;
#X connect 72 0 73 0;
#X connect 73 0 74 1;
#X connect 74 0 77 0;
#X connect 75 0 67 0;
#X connect 76 0 78 0;
#X connect 77 0 79 0;
#X connect 78 0 81 1;
#X connect 79 0 81 0;
#X connect 80 0 75 0;
#X connect 80 1 59 0;
#X connect 81 0 83 0;
#X connect 82 0 80 0;
