#N canvas 379 164 269 370 10;
#X floatatom 83 261 5 0 0 0 - - -;
#X msg 64 282 transpose \$1;
#X obj 64 68 / 0.7;
#X obj 64 89 t f f;
#X obj 64 110 abs;
#X obj 64 152 max 0;
#X obj 64 217 *;
#X obj 105 133 * 2;
#X obj 105 154 - 1;
#X obj 105 113 > 0;
#X obj 64 239 * 24;
#X obj 64 194 pow 2;
#X obj 64 46 inlet;
#X obj 64 309 outlet;
#X obj 64 131 - 0.05;
#X obj 64 173 / 0.95;
#X connect 0 0 1 0;
#X connect 1 0 13 0;
#X connect 2 0 3 0;
#X connect 3 0 4 0;
#X connect 3 1 9 0;
#X connect 4 0 14 0;
#X connect 5 0 15 0;
#X connect 6 0 10 0;
#X connect 7 0 8 0;
#X connect 8 0 6 1;
#X connect 9 0 7 0;
#X connect 10 0 1 0;
#X connect 11 0 6 0;
#X connect 12 0 2 0;
#X connect 14 0 5 0;
#X connect 15 0 11 0;
