#N canvas 775 216 269 370 10;
#X obj 38 226 pow 2;
#X obj 38 91 r \$1-BCX;
#X obj 38 247 s \$2_FXSND;
#X obj 38 137 abs;
#X obj 38 113 t f f, f 13;
#X obj 113 135 > 0;
#X obj 113 156 change;
#X obj 113 177 s \$2_FXSIDE;
#X obj 38 200 max 0;
#X obj 38 158 * 1.2;
#X obj 38 179 - 0.2;
#X connect 0 0 2 0;
#X connect 1 0 4 0;
#X connect 3 0 9 0;
#X connect 4 0 3 0;
#X connect 4 1 5 0;
#X connect 5 0 6 0;
#X connect 6 0 7 0;
#X connect 8 0 0 0;
#X connect 9 0 10 0;
#X connect 10 0 8 0;
