#N canvas 727 89 636 510 10;
#X declare -path Fraise -stdpath Fraise;
#X obj 21 16 declare -path Fraise -stdpath Fraise;
#X obj 21 38 pied/pied 0 41424;
#N canvas 200 231 686 589 AXL 1;
#X floatatom 48 206 5 0 0 0 - - -;
#X floatatom 101 206 5 0 0 0 - - -;
#X floatatom 145 206 0 0 0 0 - - -;
#X obj 25 143 r AXLSLOW1;
#X obj 25 111 axlprocess 1;
#X obj 230 143 s AX-x;
#X obj 345 142 s AX-y;
#X obj 469 138 s AX-z;
#X text 344 160 0=haut 1=bas;
#X text 205 160 0=droite 1=gauche;
#X text 450 154 0=verso 1=recto;
#X obj 232 36 r AXLSLOW1;
#X obj 232 58 unpack f f f;
#X obj 232 94 + 1;
#X obj 232 114 / 2;
#X obj 347 96 + 1;
#X obj 347 116 / 2;
#X obj 468 88 + 1;
#X obj 469 111 / 2;
#X obj 25 72 route 1 2;
#X obj 50 93 axlprocess 2;
#X obj 28 256 r AXLSLOW2;
#X msg 272 406 R;
#X text 302 404 reset i2c/axl;
#X obj 25 49 fruit/receive AXL;
#X obj 192 425 fruit/send AXL;
#X obj 153 136 print;
#X obj 25 225 s FER1;
#X obj 48 176 unpack f f f;
#X obj 28 277 unpack f f f;
#X obj 28 298 * -1;
#X obj 28 319 pack f f f;
#X obj 28 344 s FER2;
#X obj 250 232 s AXL_SEPARATION;
#X obj 250 189 loadbang;
#X msg 250 210 5;
#X obj 261 264 r FER1;
#X obj 261 285 unpack f;
#X obj 261 306 change;
#X obj 124 356 bng 15 250 50 0 empty empty empty 17 7 0 10 -262144
-1 -1;
#X obj 108 370 r FER1;
#X obj 108 391 unpack f;
#X obj 108 412 change;
#X obj 184 264 loadbang;
#X obj 239 266 bng 15 250 50 0 empty empty empty 17 7 0 10 -262144
-1 -1;
#X obj 184 288 metro 2000;
#X obj 184 309 t b b;
#X obj 211 358 spigot;
#X msg 184 328 1;
#X msg 261 327 0;
#X obj 211 384 bng 15 250 50 0 empty empty empty 17 7 0 10 -262144
-1 -1;
#X obj 434 347 f;
#X obj 434 368 change;
#X floatatom 434 389 7 0 0 0 - - -;
#X obj 434 326 min;
#X obj 419 230 r AXLRAW2;
#X floatatom 419 272 5 0 0 0 - - -;
#X obj 419 251 unpack f f f;
#X floatatom 499 276 5 0 0 0 - - -;
#X obj 524 354 f;
#X obj 524 375 change;
#X floatatom 524 396 5 0 0 0 - - -;
#X obj 524 333 max;
#X msg 470 308 1e+06;
#X msg 560 315 -1e+06;
#X obj 502 436 moses -12;
#X obj 571 435 moses 12;
#X obj 511 467 bng 15 250 50 0 empty empty empty 17 7 0 10 -262144
-1 -1;
#X obj 599 468 bng 15 250 50 0 empty empty empty 17 7 0 10 -262144
-1 -1;
#X connect 3 0 27 0;
#X connect 11 0 12 0;
#X connect 12 0 13 0;
#X connect 12 1 15 0;
#X connect 12 2 17 0;
#X connect 13 0 14 0;
#X connect 14 0 5 0;
#X connect 15 0 16 0;
#X connect 16 0 6 0;
#X connect 17 0 18 0;
#X connect 18 0 7 0;
#X connect 19 0 4 0;
#X connect 19 1 20 0;
#X connect 21 0 29 0;
#X connect 21 0 28 0;
#X connect 22 0 25 1;
#X connect 24 0 19 0;
#X connect 28 0 0 0;
#X connect 28 1 1 0;
#X connect 28 2 2 0;
#X connect 29 0 30 0;
#X connect 29 1 31 2;
#X connect 29 2 31 1;
#X connect 30 0 31 0;
#X connect 31 0 32 0;
#X connect 34 0 35 0;
#X connect 35 0 33 0;
#X connect 36 0 37 0;
#X connect 37 0 38 0;
#X connect 38 0 49 0;
#X connect 40 0 41 0;
#X connect 41 0 42 0;
#X connect 43 0 45 0;
#X connect 44 0 45 0;
#X connect 45 0 46 0;
#X connect 46 0 48 0;
#X connect 46 1 47 0;
#X connect 47 0 50 0;
#X connect 48 0 47 1;
#X connect 49 0 47 1;
#X connect 51 0 52 0;
#X connect 51 0 54 1;
#X connect 52 0 53 0;
#X connect 54 0 51 0;
#X connect 55 0 57 0;
#X connect 57 0 56 0;
#X connect 57 2 54 0;
#X connect 57 2 58 0;
#X connect 57 2 62 0;
#X connect 57 2 65 0;
#X connect 59 0 60 0;
#X connect 59 0 62 1;
#X connect 60 0 61 0;
#X connect 62 0 59 0;
#X connect 63 0 51 0;
#X connect 63 0 64 0;
#X connect 64 0 59 0;
#X connect 65 0 67 0;
#X connect 65 1 66 0;
#X connect 66 1 68 0;
#X restore 23 188 pd AXL;
#X obj 23 134 fruit/fruit 1 AXL 10 fwAxl;
#X text 193 144 Pedales: MB1 MBEN MBPWM MBCS;
#X text 193 175 BoutonRouge: K11 / LED:K12(LED sur Vdd);
#X text 194 131 AXL: K5:SCK K7:SDA (I2C 1);
#X text 193 159 Pots: K1 K2 K3;
#X obj 23 249 fruit/receive AXL;
#X obj 23 270 route s;
#X obj 62 290 analog/parse;
#X obj 360 323 fruit/send2 AXL;
#X msg 447 302 S\$1;
#X obj 447 278 r LEDROUGE;
#X obj 23 403 route 0;
#X obj 23 449 s BOUTONROUGE;
#X obj 62 426 s PEDALES;
#X msg 469 323 R;
#X text 495 324 reset I2C;
#X obj 62 311 route 0 1 2;
#X obj 62 372 s POTSELECT;
#X obj 83 352 s POTFX;
#X obj 104 332 s POTVOL;
#X obj 172 309 route 0 1 2;
#X obj 172 288 spigot;
#X floatatom 172 344 5 0 0 0 - - -;
#X floatatom 210 343 5 0 0 0 - - -;
#X floatatom 248 343 5 0 0 0 - - -;
#X obj 205 266 tgl 15 0 empty empty empty 17 7 0 10 -262144 -1 -1 0
1;
#X connect 8 0 9 0;
#X connect 9 0 14 0;
#X connect 9 1 10 0;
#X connect 10 0 19 0;
#X connect 10 0 24 0;
#X connect 12 0 11 1;
#X connect 13 0 12 0;
#X connect 14 0 15 0;
#X connect 14 1 16 0;
#X connect 17 0 11 1;
#X connect 19 0 20 0;
#X connect 19 1 21 0;
#X connect 19 2 22 0;
#X connect 23 0 25 0;
#X connect 23 1 26 0;
#X connect 23 2 27 0;
#X connect 24 0 23 0;
#X connect 28 0 24 1;
