#N canvas 334 97 636 510 10;
#X declare -path Fraise -stdpath Fraise;
#X obj 21 16 declare -path Fraise -stdpath Fraise;
#X obj 21 38 pied/pied 0 41424;
#N canvas 323 96 424 367 AXL 0;
#X obj 22 82 axlprocess 1;
#X obj 47 64 axlprocess 2;
#X msg 226 97 R;
#X text 256 95 reset i2c/axl;
#X obj 22 20 fruit/receive AXL;
#X obj 146 116 fruit/send AXL;
#X obj 140 65 s AXL_SEPARATION;
#X obj 140 22 loadbang;
#X msg 140 43 5;
#X obj 206 141 key;
#X obj 206 162 sel 32;
#X obj 206 183 spigot;
#X obj 259 156 tgl 15 0 empty empty empty 17 7 0 10 -262144 -1 -1 0
1;
#X obj 118 188 bng 15 250 50 0 empty empty empty 17 7 0 10 -262144
-1 -1;
#X obj 118 213 axlgraph AXLSLOW2 16;
#X obj 259 213 axlgraph AXLRAW2 16;
#X obj 23 127 r AXLRAW2;
#N canvas 472 92 495 705 attacks 0;
#X obj 20 13 inlet;
#X obj 20 57 unpack f f f;
#X obj 20 34 t a a, f 26;
#X obj 20 78 abs;
#X obj 54 78 abs;
#X obj 89 79 abs;
#X obj 20 119 moses 0, f 14;
#X obj 101 158 t b f, f 6;
#X obj 101 179 list, f 13;
#X obj 101 200 t b l, f 8;
#X obj 128 272 list, f 8;
#X obj 101 242 t b b;
#X obj 185 328 unpack f f f;
#X obj 185 349 abs;
#X obj 219 349 abs;
#X obj 254 349 abs;
#X obj 185 370 max;
#X obj 219 369 max;
#X msg 218 215 3;
#X obj 303 348 unpack f f f;
#X obj 303 369 abs;
#X obj 337 369 abs;
#X obj 372 369 abs;
#X obj 288 432 sel;
#X obj 322 431 sel;
#X obj 357 433 sel;
#X msg 288 453 0;
#X msg 322 452 1;
#X msg 357 454 2;
#X obj 185 391 t b f;
#X obj 128 293 t a a a, f 19;
#X obj 128 542 list split;
#X obj 185 494 f;
#X obj 185 515 t f f, f 10;
#X obj 156 566 list split 1;
#X obj 156 611 pack f f, f 15;
#X msg 156 632 \$2 \$1;
#X obj 156 654 outlet;
#X obj 156 587 / 16;
#X obj 101 221 del 30;
#X connect 0 0 2 0;
#X connect 1 0 3 0;
#X connect 1 1 4 0;
#X connect 1 2 5 0;
#X connect 2 0 1 0;
#X connect 2 1 8 1;
#X connect 3 0 6 0;
#X connect 4 0 6 0;
#X connect 5 0 6 0;
#X connect 6 1 7 0;
#X connect 7 0 8 0;
#X connect 7 1 6 1;
#X connect 8 0 9 0;
#X connect 9 0 39 0;
#X connect 9 1 10 1;
#X connect 10 0 30 0;
#X connect 11 0 18 0;
#X connect 11 1 10 0;
#X connect 12 0 13 0;
#X connect 12 1 14 0;
#X connect 12 2 15 0;
#X connect 13 0 16 0;
#X connect 14 0 17 0;
#X connect 15 0 17 1;
#X connect 16 0 29 0;
#X connect 17 0 16 1;
#X connect 18 0 6 1;
#X connect 19 0 20 0;
#X connect 19 1 21 0;
#X connect 19 2 22 0;
#X connect 20 0 23 1;
#X connect 21 0 24 1;
#X connect 22 0 25 1;
#X connect 23 0 26 0;
#X connect 24 0 27 0;
#X connect 25 0 28 0;
#X connect 26 0 32 1;
#X connect 27 0 32 1;
#X connect 28 0 32 1;
#X connect 29 0 32 0;
#X connect 29 1 23 0;
#X connect 29 1 25 0;
#X connect 29 1 24 0;
#X connect 30 0 31 0;
#X connect 30 1 12 0;
#X connect 30 2 19 0;
#X connect 31 1 34 0;
#X connect 32 0 33 0;
#X connect 33 0 31 1;
#X connect 33 1 35 1;
#X connect 34 0 38 0;
#X connect 35 0 36 0;
#X connect 36 0 37 0;
#X connect 38 0 35 0;
#X connect 39 0 11 0;
#X restore 23 148 pd attacks;
#X obj 269 245 axlgraph AXLFAST2 16;
#X obj 23 169 s BAGUETTE_ATTACK;
#X obj 31 324 s BAGUETTE_CONTROL;
#X obj 106 133 print;
#X obj 293 49 metro 1000;
#X obj 307 21 tgl 15 0 empty empty empty 17 7 0 10 -262144 -1 -1 0
1;
#X obj 22 43 route 2 1;
#X obj 31 298 r AXLATTITUDE1;
#X connect 2 0 5 1;
#X connect 4 0 24 0;
#X connect 7 0 8 0;
#X connect 8 0 6 0;
#X connect 9 0 10 0;
#X connect 10 0 11 0;
#X connect 11 0 18 0;
#X connect 11 0 14 0;
#X connect 11 0 15 0;
#X connect 12 0 11 1;
#X connect 13 0 18 0;
#X connect 13 0 14 0;
#X connect 13 0 15 0;
#X connect 16 0 17 0;
#X connect 17 0 19 0;
#X connect 22 0 2 0;
#X connect 23 0 22 0;
#X connect 24 0 0 0;
#X connect 24 1 1 0;
#X connect 25 0 20 0;
#X restore 23 188 pd AXL;
#X obj 23 134 fruit/fruit 1 AXL 10 fwAxl;
#X text 193 144 Pedales: MB1 MBEN MBPWM MBCS;
#X text 193 175 BoutonRouge: K11 / LED:K12(LED sur Vdd);
#X text 194 131 AXL: K5:SCK K7:SDA (I2C 1);
#X text 193 159 Pots: K1 K2 K3;
#X obj 23 228 fruit/receive AXL;
#X obj 23 249 route s;
#X obj 62 269 analog/parse;
#X obj 360 323 fruit/send2 AXL;
#X obj 447 278 r LEDROUGE;
#X obj 23 443 route 0;
#X obj 23 489 s BOUTONROUGE;
#X obj 62 466 s PEDALES;
#X msg 469 323 R;
#X text 495 324 reset I2C;
#X obj 62 351 route 0 1 2;
#X obj 62 412 s POTSELECT;
#X obj 83 392 s POTFX;
#X obj 104 372 s POTVOL;
#X obj 172 309 route 0 1 2;
#X obj 172 288 spigot;
#X floatatom 172 344 5 0 0 0 - - -;
#X floatatom 210 343 5 0 0 0 - - -;
#X floatatom 248 343 5 0 0 0 - - -;
#X obj 205 266 tgl 15 0 empty empty empty 17 7 0 10 -262144 -1 -1 0
1;
#X floatatom 157 402 5 0 0 0 - - -;
#X obj 119 310 / 16384;
#X obj 62 289 unpack f f;
#X obj 62 332 pack f f, f 10;
#X obj 143 473 print;
#X obj 470 362 tgl 15 0 empty empty empty 17 7 0 10 -262144 -1 -1 0
1;
#X msg 447 302 S\$1 \, L\$1;
#X connect 8 0 9 0;
#X connect 9 0 13 0;
#X connect 9 1 10 0;
#X connect 10 0 23 0;
#X connect 10 0 30 0;
#X connect 12 0 34 0;
#X connect 13 0 14 0;
#X connect 13 1 15 0;
#X connect 16 0 11 1;
#X connect 18 0 19 0;
#X connect 18 1 20 0;
#X connect 18 2 21 0;
#X connect 22 0 24 0;
#X connect 22 1 25 0;
#X connect 22 2 26 0;
#X connect 23 0 22 0;
#X connect 27 0 23 1;
#X connect 29 0 31 1;
#X connect 30 0 31 0;
#X connect 30 1 29 0;
#X connect 31 0 18 0;
#X connect 34 0 11 1;
