#N canvas 81 147 780 724 10;
#X obj 27 206 *~ 0.4;
#X obj 27 271 throw~ master;
#X text 197 590 play PLAYER_VOICENB BANK_NB NOTE_NB [KEY];
#X msg 269 551 play \$1 \$2 \$3 0;
#X obj 269 418 t b f, f 10;
#X obj 269 439 i;
#X obj 269 460 + 1;
#X obj 269 502 pack f 1 f;
#X msg 269 523 \$1 \$2 \$3;
#X obj 269 374 + 1;
#X obj 269 353 random 16;
#X obj 320 329 getnbnotes;
#X obj 347 27 r PEDALES;
#X obj 347 73 tgl 15 0 empty empty empty 17 7 0 10 -262144 -1 -1 0
1;
#X obj 496 31 r POTSELECT;
#X obj 495 104 r POTFX;
#X obj 269 166 spigot;
#X obj 269 322 t b f, f 6;
#X msg 354 499 vol \$1;
#X obj 354 451 abs;
#X obj 354 478 pow 1;
#X obj 269 187 route 1 2;
#X obj 269 295 unpack f f, f 17;
#X obj 269 481 mod 4;
#X text 16 309 5:flute 7:orch 9:pizzBas 10:pizzViolon;
#X obj 411 153 > 0.5;
#X obj 411 174 change;
#X obj 411 195 sel 0 1;
#X msg 411 216 5 7;
#X obj 269 269 pack f 5;
#X obj 336 267 pack f 7;
#X obj 314 244 unpack f f;
#X msg 440 216 9 10;
#X obj 269 145 r BAGUETTE_ATTACK;
#N canvas 142 143 628 503 fx 0;
#X obj 40 30 inlet~;
#X obj 80 237 throw~ reverb;
#X msg 55 81 \$1 10;
#X obj 55 102 line~;
#X obj 41 125 *~;
#X obj 331 100 bng 15 250 50 0 empty empty load 17 7 0 10 -4034 -1
-1;
#X obj 556 95 bng 15 250 50 0 empty empty save 17 7 0 10 -258113 -1
-1;
#X obj 331 79 loadbang;
#X obj 335 180 hsl 128 15 0 1 0 0 empty empty empty -2 -8 0 10 -262144
-1 -1 74 1;
#X obj 168 77 mknob 25 100 0 1 0 0 \$1RevSnd-snd \$1RevSnd-rcv \$1RevSnd
-2 -6 0 10 -257985 -1 -1 9803 1;
#X msg 96 171 \$1 10;
#X obj 96 192 line~;
#X obj 96 151 pow 2;
#X obj 80 215 *~;
#X obj 40 384 outlet~;
#X obj 332 200 MORPHgroup \$1FX A;
#X obj 331 120 apmasterfile \$1FX SETTINGS/\$1FX.txt;
#X obj 331 58 apmaster \$1FX;
#X obj 55 60 r \$1_FXSND;
#X obj 96 130 r \$1RevSnd-snd;
#X obj 326 323 apf \$1FX-A revsnd \$1RevSnd;
#X obj 40 323 apecho \$1FX-A echo1;
#X obj 332 157 r \$1_FX;
#X connect 0 0 4 0;
#X connect 2 0 3 0;
#X connect 3 0 4 1;
#X connect 4 0 13 0;
#X connect 4 0 21 0;
#X connect 5 0 16 0;
#X connect 6 0 16 1;
#X connect 7 0 5 0;
#X connect 8 0 15 0;
#X connect 10 0 11 0;
#X connect 11 0 13 1;
#X connect 12 0 10 0;
#X connect 13 0 1 0;
#X connect 18 0 2 0;
#X connect 19 0 12 0;
#X connect 21 0 14 0;
#X connect 22 0 8 0;
#X restore 50 241 pd fx;
#X msg 347 204 1;
#X obj 278 676 print;
#X obj 25 20 clone noteplayer 4 \$1PLAYER;
#X obj 316 166 r \$1_ON;
#X obj 347 93 s \$1_ON;
#X obj 496 73 s \$1SELECT;
#X obj 649 32 r \$1_ON;
#X obj 624 104 r \$1_ON;
#X obj 269 572 s \$1PLAYER;
#X obj 411 132 r \$1SELECT;
#N canvas 1 81 364 328 filter 0;
#X obj 45 16 inlet~;
#X obj 43 294 outlet~;
#X obj 44 245 bob~, f 17;
#X obj 94 15 r \$1SELECT;
#X obj 94 64 abs;
#X obj 94 43 - 0.5;
#X obj 94 85 * -2;
#X obj 94 106 + 1;
#X obj 94 128 pow 3;
#X obj 95 148 * 18000;
#X msg 94 191 \$1 50;
#X obj 94 212 line~;
#X obj 147 130 * 2;
#X obj 147 151 pow 0.5;
#X obj 147 172 * 3.8;
#X msg 147 192 \$1 50;
#X obj 147 213 line~;
#X obj 94 170 + 120;
#X obj 44 266 hip~ 200;
#X connect 0 0 2 0;
#X connect 2 0 18 0;
#X connect 3 0 5 0;
#X connect 4 0 6 0;
#X connect 4 0 12 0;
#X connect 5 0 4 0;
#X connect 6 0 7 0;
#X connect 7 0 8 0;
#X connect 8 0 9 0;
#X connect 9 0 17 0;
#X connect 10 0 11 0;
#X connect 11 0 2 1;
#X connect 12 0 13 0;
#X connect 13 0 14 0;
#X connect 14 0 15 0;
#X connect 15 0 16 0;
#X connect 16 0 2 2;
#X connect 17 0 10 0;
#X connect 18 0 1 0;
#X restore 26 52 pd filter;
#X obj 569 74 hsl 128 15 0 1 0 0 empty empty empty -2 -8 0 10 -262144
-1 -1 0 1;
#X obj 552 147 hsl 128 15 0 1 0 0 empty empty empty -2 -8 0 10 -262144
-1 -1 0 1;
#X obj 495 146 s \$1_FX;
#X obj 347 48 route \$2;
#X obj 496 52 songParam SONGS \$1Select;
#X obj 495 125 songParam SONGS \$1Fx;
#N canvas 1 81 428 500 baguette_ctl 0;
#X floatatom 171 354 5 0 0 0 - - -;
#X msg 152 375 transpose \$1;
#X obj 152 161 / 0.7;
#X obj 152 182 t f f;
#X obj 152 203 abs;
#X obj 152 245 max 0;
#X obj 152 224 - 0.2;
#X obj 152 266 / 0.8;
#X obj 152 310 *;
#X obj 193 226 * 2;
#X obj 193 247 - 1;
#X obj 193 206 > 0;
#X obj 152 332 * 24;
#X obj 152 287 pow 2;
#X obj 51 218 + 1;
#X obj 51 239 / 2;
#X obj 51 260 pow 2;
#X msg 92 198 1;
#X obj 51 281 s \$1_FXSND;
#X obj 152 402 s \$1PLAYER;
#X msg 91 229 0.5;
#X obj 54 30 r BAGUETTE_CONTROL;
#X obj 54 55 unpack f f, f 24;
#X obj 266 49 r \$1_ON;
#X obj 54 82 songParam SONGS \$1BCX;
#X obj 195 82 songParam SONGS \$1BCY;
#X obj 195 104 s \$0-BCY;
#X obj 54 107 s \$0-BCX;
#X obj 152 139 r \$0-BCY;
#X obj 51 149 r \$0-BCX;
#X connect 0 0 1 0;
#X connect 1 0 19 0;
#X connect 2 0 3 0;
#X connect 3 0 4 0;
#X connect 3 1 11 0;
#X connect 4 0 6 0;
#X connect 5 0 7 0;
#X connect 6 0 5 0;
#X connect 7 0 13 0;
#X connect 8 0 12 0;
#X connect 9 0 10 0;
#X connect 10 0 8 1;
#X connect 11 0 9 0;
#X connect 12 0 1 0;
#X connect 13 0 8 0;
#X connect 14 0 15 0;
#X connect 15 0 16 0;
#X connect 16 0 18 0;
#X connect 17 0 16 0;
#X connect 20 0 16 0;
#X connect 21 0 22 0;
#X connect 22 0 24 0;
#X connect 22 1 25 0;
#X connect 23 0 24 1;
#X connect 23 0 25 1;
#X connect 24 0 27 0;
#X connect 25 0 26 0;
#X connect 28 0 2 0;
#X connect 29 0 14 0;
#X restore 497 180 pd baguette_ctl;
#X connect 0 0 1 0;
#X connect 0 0 34 0;
#X connect 3 0 43 0;
#X connect 4 0 5 0;
#X connect 4 1 7 2;
#X connect 5 0 6 0;
#X connect 6 0 23 0;
#X connect 7 0 8 0;
#X connect 8 0 3 0;
#X connect 9 0 4 0;
#X connect 10 0 9 0;
#X connect 11 0 10 1;
#X connect 12 0 49 0;
#X connect 13 0 39 0;
#X connect 14 0 50 0;
#X connect 15 0 51 0;
#X connect 16 0 21 0;
#X connect 17 0 10 0;
#X connect 17 1 19 0;
#X connect 18 0 43 0;
#X connect 19 0 20 0;
#X connect 20 0 18 0;
#X connect 21 0 29 0;
#X connect 21 1 30 0;
#X connect 22 0 17 0;
#X connect 22 1 7 1;
#X connect 22 1 11 0;
#X connect 23 0 5 1;
#X connect 23 0 7 0;
#X connect 25 0 26 0;
#X connect 26 0 27 0;
#X connect 27 0 28 0;
#X connect 27 1 32 0;
#X connect 28 0 31 0;
#X connect 29 0 22 0;
#X connect 30 0 22 0;
#X connect 31 0 29 1;
#X connect 31 1 30 1;
#X connect 32 0 31 0;
#X connect 33 0 16 0;
#X connect 34 0 1 0;
#X connect 35 0 30 0;
#X connect 37 0 45 0;
#X connect 38 0 16 1;
#X connect 41 0 50 1;
#X connect 42 0 51 1;
#X connect 44 0 25 0;
#X connect 45 0 0 0;
#X connect 46 0 40 0;
#X connect 47 0 48 0;
#X connect 49 0 13 0;
#X connect 50 0 40 0;
#X connect 51 0 48 0;
