#N canvas 218 107 607 350 10;
#X obj 27 206 *~ 0.4;
#X obj 27 271 throw~ master;
#X obj 204 21 r PEDALES;
#X obj 204 67 tgl 15 0 empty empty empty 17 7 0 10 -262144 -1 -1 0
1;
#X obj 343 25 r POTSELECT;
#X obj 342 98 r POTFX;
#X text 29 312 5:flute 7:orch 9:pizzBas 10:pizzViolon;
#N canvas 142 143 628 503 fx 0;
#X obj 40 30 inlet~;
#X obj 80 237 throw~ reverb;
#X msg 55 81 \$1 10;
#X obj 55 102 line~;
#X obj 41 125 *~;
#X obj 331 100 bng 15 250 50 0 empty empty load 17 7 0 10 -4034 -1
-1;
#X obj 556 95 bng 15 250 50 0 empty empty save 17 7 0 10 -258113 -1
-1;
#X obj 331 79 loadbang;
#X obj 335 180 hsl 128 15 0 1 0 0 empty empty empty -2 -8 0 10 -262144
-1 -1 0 1;
#X obj 168 77 mknob 25 100 0 1 0 0 \$1RevSnd-snd \$1RevSnd-rcv \$1RevSnd
-2 -6 0 10 -257985 -1 -1 5400 1;
#X msg 96 171 \$1 10;
#X obj 96 192 line~;
#X obj 96 151 pow 2;
#X obj 80 215 *~;
#X obj 40 384 outlet~;
#X obj 332 200 MORPHgroup \$1FX A;
#X obj 331 120 apmasterfile \$1FX SETTINGS/\$1FX.txt;
#X obj 331 58 apmaster \$1FX;
#X obj 55 60 r \$1_FXSND;
#X obj 96 130 r \$1RevSnd-snd;
#X obj 326 323 apf \$1FX-A revsnd \$1RevSnd;
#X obj 40 323 apecho \$1FX-A echo1;
#X obj 332 157 r \$1_FX;
#X connect 0 0 4 0;
#X connect 2 0 3 0;
#X connect 3 0 4 1;
#X connect 4 0 13 0;
#X connect 4 0 21 0;
#X connect 5 0 16 0;
#X connect 6 0 16 1;
#X connect 7 0 5 0;
#X connect 8 0 15 0;
#X connect 10 0 11 0;
#X connect 11 0 13 1;
#X connect 12 0 10 0;
#X connect 13 0 1 0;
#X connect 18 0 2 0;
#X connect 19 0 12 0;
#X connect 21 0 14 0;
#X connect 22 0 8 0;
#X restore 50 241 pd fx;
#X obj 25 20 clone noteplayer 4 \$1PLAYER;
#X obj 204 87 s \$1_ON;
#X obj 343 67 s \$1SELECT;
#X obj 496 26 r \$1_ON;
#X obj 471 98 r \$1_ON;
#N canvas 1 81 364 328 filter 0;
#X obj 45 16 inlet~;
#X obj 43 294 outlet~;
#X obj 44 245 bob~, f 17;
#X obj 94 15 r \$1SELECT;
#X obj 94 64 abs;
#X obj 94 43 - 0.5;
#X obj 94 85 * -2;
#X obj 94 106 + 1;
#X obj 94 128 pow 3;
#X obj 95 148 * 18000;
#X msg 94 191 \$1 50;
#X obj 94 212 line~;
#X obj 147 130 * 2;
#X obj 147 151 pow 0.5;
#X obj 147 172 * 3.8;
#X msg 147 192 \$1 50;
#X obj 147 213 line~;
#X obj 94 170 + 120;
#X obj 44 266 hip~ 200;
#X connect 0 0 2 0;
#X connect 2 0 18 0;
#X connect 3 0 5 0;
#X connect 4 0 6 0;
#X connect 4 0 12 0;
#X connect 5 0 4 0;
#X connect 6 0 7 0;
#X connect 7 0 8 0;
#X connect 8 0 9 0;
#X connect 9 0 17 0;
#X connect 10 0 11 0;
#X connect 11 0 2 1;
#X connect 12 0 13 0;
#X connect 13 0 14 0;
#X connect 14 0 15 0;
#X connect 15 0 16 0;
#X connect 16 0 2 2;
#X connect 17 0 10 0;
#X connect 18 0 1 0;
#X restore 26 52 pd filter;
#X obj 416 68 hsl 128 15 0 1 0 0 empty empty empty -2 -8 0 10 -262144
-1 -1 0 1;
#X obj 399 141 hsl 128 15 0 1 0 0 empty empty empty -2 -8 0 10 -262144
-1 -1 0 1;
#X obj 342 140 s \$1_FX;
#X obj 204 42 route \$2;
#N canvas 1 81 408 323 baguette_ctl 0;
#X obj 55 182 s \$1PLAYER;
#X obj 54 30 r BAGUETTE_CONTROL;
#X obj 54 55 unpack f f, f 24;
#X obj 266 49 r \$1_ON;
#X obj 215 104 s \$0-BCY;
#X obj 54 107 s \$0-BCX;
#X obj 55 140 r \$0-BCY;
#X obj 55 160 baguetteTranspose;
#X obj 57 225 baguetteFX \$0 \$1;
#X obj 54 82 songParam SONGS \$1BCX 0.1;
#X obj 215 82 songParam SONGS \$1BCY 0.1;
#X connect 1 0 2 0;
#X connect 2 0 9 0;
#X connect 2 1 10 0;
#X connect 3 0 9 1;
#X connect 3 0 10 1;
#X connect 6 0 7 0;
#X connect 7 0 0 0;
#X connect 9 0 5 0;
#X connect 10 0 4 0;
#X restore 203 139 pd baguette_ctl;
#X obj 283 45 loadbang;
#X msg 283 66 0.45;
#N canvas 1 81 450 300 gamme 0;
#X obj 96 17 r BOUTONROUGE;
#X obj 96 122 songParam SONGS \$1Gamme;
#X obj 183 15 r \$1_ON;
#X obj 96 38 spigot, f 15;
#X obj 96 59 sel 1;
#X obj 96 101 tgl 15 0 empty empty empty 17 7 0 10 -262144 -1 -1 0
1;
#X obj 96 145 tgl 15 0 empty empty empty 17 7 0 10 -262144 -1 -1 0
1;
#X msg 50 145 set \$1;
#X obj 96 165 sel 0 1;
#X msg 96 186 gamme /GAMME;
#X msg 115 207 gamme /CHORD;
#X obj 96 80 del 1;
#X obj 63 265 s LEDROUGE;
#X obj 96 242 s \$1PLAYER;
#X connect 0 0 3 0;
#X connect 1 0 6 0;
#X connect 2 0 3 1;
#X connect 3 0 4 0;
#X connect 4 0 11 0;
#X connect 5 0 1 0;
#X connect 6 0 7 0;
#X connect 6 0 8 0;
#X connect 6 0 12 0;
#X connect 7 0 5 0;
#X connect 8 0 9 0;
#X connect 8 1 10 0;
#X connect 9 0 13 0;
#X connect 10 0 13 0;
#X connect 11 0 5 0;
#X restore 202 162 pd gamme;
#N canvas 1 81 423 545 attack 0;
#X text 71 475 play PLAYER_VOICENB BANK_NB NOTE_NB [KEY];
#X msg 143 436 play \$1 \$2 \$3 0;
#X obj 143 303 t b f, f 10;
#X obj 143 324 i;
#X obj 143 345 + 1;
#X obj 143 387 pack f 1 f;
#X msg 143 408 \$1 \$2 \$3;
#X obj 143 259 + 1;
#X obj 143 238 random 16;
#X obj 194 214 getnbnotes;
#X obj 143 51 spigot;
#X obj 143 207 t b f, f 6;
#X msg 228 384 vol \$1;
#X obj 228 336 abs;
#X obj 228 363 pow 1;
#X obj 143 72 route 1 2;
#X obj 143 180 unpack f f, f 17;
#X obj 143 366 mod 4;
#X obj 285 38 > 0.5;
#X obj 285 59 change;
#X obj 285 80 sel 0 1;
#X msg 285 101 5 7;
#X obj 143 154 pack f 5;
#X obj 210 152 pack f 7;
#X obj 188 129 unpack f f;
#X msg 314 101 9 10;
#X obj 143 30 r BAGUETTE_ATTACK;
#X msg 221 89 1;
#X obj 190 51 r \$1_ON;
#X obj 143 457 s \$1PLAYER;
#X obj 285 17 r \$1SELECT;
#X obj 82 126 moses 0;
#X msg 47 248 stopkey 0;
#X obj 71 180 r \$1_FXSIDE;
#X obj 71 201 == 0;
#X obj 47 227 spigot;
#X connect 1 0 29 0;
#X connect 2 0 3 0;
#X connect 2 1 5 2;
#X connect 3 0 4 0;
#X connect 4 0 17 0;
#X connect 5 0 6 0;
#X connect 6 0 1 0;
#X connect 7 0 2 0;
#X connect 8 0 7 0;
#X connect 9 0 8 1;
#X connect 10 0 15 0;
#X connect 11 0 8 0;
#X connect 11 1 13 0;
#X connect 12 0 29 0;
#X connect 13 0 14 0;
#X connect 14 0 12 0;
#X connect 15 0 31 0;
#X connect 15 1 23 0;
#X connect 16 0 11 0;
#X connect 16 1 5 1;
#X connect 16 1 9 0;
#X connect 17 0 3 1;
#X connect 17 0 5 0;
#X connect 18 0 19 0;
#X connect 19 0 20 0;
#X connect 20 0 21 0;
#X connect 20 1 25 0;
#X connect 21 0 24 0;
#X connect 22 0 16 0;
#X connect 23 0 16 0;
#X connect 24 0 22 1;
#X connect 24 1 23 1;
#X connect 25 0 24 0;
#X connect 26 0 10 0;
#X connect 27 0 23 0;
#X connect 28 0 10 1;
#X connect 30 0 18 0;
#X connect 31 0 35 0;
#X connect 31 1 22 0;
#X connect 32 0 29 0;
#X connect 33 0 34 0;
#X connect 34 0 35 1;
#X connect 35 0 32 0;
#X restore 202 185 pd attack;
#X obj 343 46 songParam SONGS \$1Select 0.1;
#X obj 342 119 songParam SONGS \$1Fx 0.1;
#X connect 0 0 1 0;
#X connect 0 0 7 0;
#X connect 2 0 17 0;
#X connect 3 0 9 0;
#X connect 4 0 23 0;
#X connect 5 0 24 0;
#X connect 7 0 1 0;
#X connect 8 0 13 0;
#X connect 11 0 23 1;
#X connect 12 0 24 1;
#X connect 13 0 0 0;
#X connect 14 0 10 0;
#X connect 15 0 16 0;
#X connect 17 0 3 0;
#X connect 19 0 20 0;
#X connect 20 0 10 0;
#X connect 23 0 10 0;
#X connect 24 0 16 0;
