#N canvas 331 107 857 313 10;
#X obj 26 102 *~ 0.4;
#X obj 25 217 throw~ master;
#X obj 224 25 r PEDALES;
#X obj 224 97 tgl 15 0 empty empty empty 17 7 0 10 -262144 -1 -1 0
1;
#X obj 403 39 r POTSELECT;
#X obj 402 112 r POTFX;
#N canvas 345 87 628 503 fx 0;
#X obj 40 30 inlet~;
#X obj 80 237 throw~ reverb;
#X msg 55 81 \$1 10;
#X obj 55 102 line~;
#X obj 41 125 *~;
#X obj 331 100 bng 15 250 50 0 empty empty load 17 7 0 10 -4034 -1
-1;
#X obj 556 95 bng 15 250 50 0 empty empty save 17 7 0 10 -258113 -1
-1;
#X obj 331 79 loadbang;
#X obj 335 180 hsl 128 15 0 1 0 0 empty empty empty -2 -8 0 10 -262144
-1 -1 10809 1;
#X obj 168 77 mknob 25 100 0 1 0 0 \$1RevSnd-snd \$1RevSnd-rcv \$1RevSnd
-2 -6 0 10 -257985 -1 -1 5581 1;
#X msg 96 171 \$1 10;
#X obj 96 192 line~;
#X obj 96 151 pow 2;
#X obj 80 215 *~;
#X obj 40 384 outlet~;
#X obj 332 200 MORPHgroup \$1FX A;
#X obj 331 120 apmasterfile \$1FX SETTINGS/\$1FX.txt;
#X obj 331 58 apmaster \$1FX;
#X obj 55 60 r \$1_FXSND;
#X obj 96 130 r \$1RevSnd-snd;
#X obj 326 323 apf \$1FX-A revsnd \$1RevSnd;
#X obj 40 323 apecho \$1FX-A echo1;
#X obj 332 157 r \$1_FX;
#X connect 0 0 4 0;
#X connect 2 0 3 0;
#X connect 3 0 4 1;
#X connect 4 0 13 0;
#X connect 4 0 21 0;
#X connect 5 0 16 0;
#X connect 6 0 16 1;
#X connect 7 0 5 0;
#X connect 8 0 15 0;
#X connect 10 0 11 0;
#X connect 11 0 13 1;
#X connect 12 0 10 0;
#X connect 13 0 1 0;
#X connect 18 0 2 0;
#X connect 19 0 12 0;
#X connect 21 0 14 0;
#X connect 22 0 8 0;
#X restore 109 161 pd fx;
#X obj 224 117 s \$1_ON;
#X obj 403 81 s \$1SELECT;
#X obj 556 40 r \$1_ON;
#X obj 531 112 r \$1_ON;
#N canvas 1 81 364 328 filter 0;
#X obj 45 16 inlet~;
#X obj 43 294 outlet~;
#X obj 44 245 bob~, f 17;
#X obj 94 15 r \$1SELECT;
#X obj 94 64 abs;
#X obj 94 43 - 0.5;
#X obj 94 85 * -2;
#X obj 94 106 + 1;
#X obj 94 128 pow 3;
#X obj 95 148 * 18000;
#X msg 94 191 \$1 50;
#X obj 94 212 line~;
#X obj 147 130 * 2;
#X obj 147 151 pow 0.5;
#X obj 147 172 * 3.8;
#X msg 147 192 \$1 50;
#X obj 147 213 line~;
#X obj 94 170 + 120;
#X obj 44 266 hip~ 200;
#X connect 0 0 2 0;
#X connect 2 0 18 0;
#X connect 3 0 5 0;
#X connect 4 0 6 0;
#X connect 4 0 12 0;
#X connect 5 0 4 0;
#X connect 6 0 7 0;
#X connect 7 0 8 0;
#X connect 8 0 9 0;
#X connect 9 0 17 0;
#X connect 10 0 11 0;
#X connect 11 0 2 1;
#X connect 12 0 13 0;
#X connect 13 0 14 0;
#X connect 14 0 15 0;
#X connect 15 0 16 0;
#X connect 16 0 2 2;
#X connect 17 0 10 0;
#X connect 18 0 1 0;
#X restore 26 52 pd filter;
#X obj 402 154 s \$1_FX;
#X obj 476 82 hsl 128 15 0 1 0 0 empty empty empty -2 -8 0 10 -262144
-1 -1 0 1;
#X obj 459 155 hsl 128 15 0 1 0 0 empty empty empty -2 -8 0 10 -262144
-1 -1 0 1;
#X obj 224 46 route \$2;
#X obj 627 74 bng 15 250 50 0 empty empty load 17 7 0 10 -4034 -1 -1
;
#X obj 777 72 bng 15 250 50 0 empty empty save 17 7 0 10 -258113 -1
-1;
#X obj 627 53 loadbang;
#X text 17 279 4:electro 12:tom;
#X obj 627 32 apmaster \$1;
#X obj 627 94 apmasterfile \$1 SETTINGS/\$1.txt;
#N canvas 28 112 427 392 on/play 0;
#X obj 98 18 inlet;
#X obj 98 39 change;
#X obj 98 60 sel 0 1, f 18;
#X obj 150 108 del 350;
#X msg 112 82 stop;
#X msg 150 129 1;
#X msg 98 127 0;
#X obj 98 188 change;
#X obj 74 18 tgl 15 0 empty empty empty 17 7 0 10 -262144 -1 -1 0 1
;
#X obj 170 193 f;
#X obj 170 214 t f f;
#X obj 168 239 sel 0;
#X obj 125 226 sel 1;
#X msg 125 247 1;
#X obj 98 303 outlet on;
#X obj 178 308 outlet play;
#X connect 0 0 1 0;
#X connect 1 0 2 0;
#X connect 2 0 4 0;
#X connect 2 0 6 0;
#X connect 2 1 3 0;
#X connect 3 0 5 0;
#X connect 4 0 3 0;
#X connect 5 0 7 0;
#X connect 5 0 9 0;
#X connect 6 0 7 0;
#X connect 6 0 9 0;
#X connect 7 0 12 0;
#X connect 7 0 14 0;
#X connect 8 0 1 0;
#X connect 9 0 10 0;
#X connect 10 0 11 1;
#X connect 10 1 11 0;
#X connect 11 0 15 0;
#X connect 12 0 13 0;
#X connect 13 0 15 0;
#X restore 224 67 pd on/play;
#X obj 281 95 tgl 15 0 empty empty empty 17 7 0 10 -262144 -1 -1 0
1;
#X obj 281 115 s \$1_PLAY;
#X obj 295 50 tgl 15 0 empty empty empty 17 7 0 10 -262144 -1 -1 1
1;
#N canvas 627 229 364 357 baguette_ctl 0;
#X obj 11 15 r BAGUETTE_CONTROL;
#X obj 11 40 unpack f f, f 24;
#X obj 223 34 r \$1_ON;
#X obj 11 67 songParam SONGS \$1BCX;
#X obj 152 67 songParam SONGS \$1BCY;
#X obj 152 89 s \$0-BCY;
#X obj 11 92 s \$0-BCX;
#X obj 14 193 baguetteFX \$0 \$1;
#X obj 13 167 s \$1PLAYER;
#X obj 13 125 r \$0-BCY;
#X obj 13 145 baguetteTranspose;
#X obj 14 223 r AXLATTITUDE2;
#X obj 14 245 unpack f f, f 24;
#X obj 226 239 r \$1_ON;
#X obj 14 272 songParam SONGS \$1B2X;
#X obj 155 272 songParam SONGS \$1B2Y;
#X obj 14 297 s \$0-B2X;
#X obj 155 294 s \$0-B2Y;
#X connect 0 0 1 0;
#X connect 1 0 3 0;
#X connect 1 1 4 0;
#X connect 2 0 3 1;
#X connect 2 0 4 1;
#X connect 3 0 6 0;
#X connect 4 0 5 0;
#X connect 9 0 10 0;
#X connect 10 0 8 0;
#X connect 11 0 12 0;
#X connect 12 0 14 0;
#X connect 12 1 15 0;
#X connect 13 0 14 1;
#X connect 13 0 15 1;
#X connect 14 0 16 0;
#X connect 15 0 17 0;
#X restore 404 192 pd baguette_ctl;
#X obj 403 60 songParam SONGS \$1Select;
#X obj 402 133 songParam SONGS \$1Fx;
#X obj 343 59 loadbang;
#X msg 343 80 0.45;
#N canvas 245 342 480 402 rhythmbox 1;
#X obj 67 121 r CLOCK;
#X floatatom 81 205 5 0 0 0 - - -;
#X obj 192 166 pack 4 4;
#X obj 210 144 t b f;
#X obj 192 187 unpack f;
#X msg 181 118 8;
#X msg 99 163 nd \$1 \$2;
#X msg 152 118 6;
#X msg 253 116 2;
#X msg 283 116 3;
#X msg 313 116 4;
#X msg 225 116 1;
#X msg 122 118 4;
#X obj 67 228 spigot;
#X obj 112 227 tgl 15 0 empty empty empty 17 7 0 10 -4034 -1 -1 1 1
;
#X text 129 101 nb_steps;
#X text 223 100 clock_divide;
#X obj 192 208 s RYTHM-rhythm1-nbsteps;
#X obj 67 182 ndmetro 8 4;
#X floatatom 48 300 5 0 0 0 - - -;
#X obj 68 59 rhythmicPatterns \$1 rhythm1;
#X obj 67 251 patternRead \$1-rhythm1 1;
#X connect 0 0 18 0;
#X connect 2 0 4 0;
#X connect 2 0 6 0;
#X connect 3 0 2 0;
#X connect 3 1 2 1;
#X connect 4 0 17 0;
#X connect 5 0 2 0;
#X connect 6 0 18 0;
#X connect 7 0 2 0;
#X connect 8 0 3 0;
#X connect 9 0 3 0;
#X connect 10 0 3 0;
#X connect 11 0 3 0;
#X connect 12 0 2 0;
#X connect 13 0 21 0;
#X connect 14 0 13 1;
#X connect 18 0 13 0;
#X connect 21 0 19 0;
#X restore 224 229 pd rhythmbox;
#N canvas 1 81 702 416 noteplayer_ctl 0;
#X obj 24 47 > 0.5;
#X obj 24 71 change;
#X obj 24 26 r \$1SELECT;
#X obj 124 228 palinseq \$1 palinseq1;
#X obj 124 203 getnbnotes;
#X obj 124 140 loadbang;
#X msg 124 161 4;
#X obj 124 182 t f f, f 68;
#X msg 124 344 \$1 \$3 \$2;
#X obj 124 323 list append 1, f 68;
#X obj 123 115 s PERCU-palinseq1-on-rcv;
#X obj 123 93 tgl 15 0 empty empty empty 17 7 0 10 -262144 -1 -1 0
1;
#X obj 123 71 &&;
#X obj 136 51 t b f;
#N canvas 1 81 486 384 attack 0;
#X obj 107 269 + 1;
#X obj 107 248 random 16;
#X obj 158 224 getnbnotes;
#X obj 107 61 spigot;
#X obj 107 217 t b f, f 6;
#X obj 107 82 route 1 2;
#X obj 107 190 unpack f f, f 17;
#X obj 107 164 pack f 5;
#X obj 174 162 pack f 7;
#X obj 152 139 unpack f f;
#X obj 107 40 r BAGUETTE_ATTACK;
#X msg 185 99 1;
#X obj 154 61 r \$1_ON;
#X msg 67 115 1;
#X obj 107 291 pack f f f;
#X msg 60 140 0.3;
#X obj 285 50 sel 0 1;
#X msg 285 71 4 4;
#X msg 314 71 12 12;
#X obj 285 29 inlet mode;
#X obj 107 312 outlet num bank vol;
#X connect 0 0 14 0;
#X connect 1 0 0 0;
#X connect 2 0 1 1;
#X connect 3 0 5 0;
#X connect 4 0 1 0;
#X connect 4 1 14 2;
#X connect 5 0 7 0;
#X connect 5 1 8 0;
#X connect 6 0 4 0;
#X connect 6 1 2 0;
#X connect 6 1 14 1;
#X connect 7 0 6 0;
#X connect 8 0 6 0;
#X connect 9 0 7 1;
#X connect 9 1 8 1;
#X connect 10 0 3 0;
#X connect 11 0 8 0;
#X connect 12 0 3 1;
#X connect 13 0 7 0;
#X connect 14 0 20 0;
#X connect 15 0 7 0;
#X connect 16 0 17 0;
#X connect 16 1 18 0;
#X connect 17 0 9 0;
#X connect 18 0 9 0;
#X connect 19 0 16 0;
#X restore 24 120 pd attack;
#N canvas 1 81 450 300 player 0;
#X msg 142 209 play \$1 \$2 \$3 0;
#X obj 142 76 t b f, f 10;
#X obj 142 97 i;
#X obj 142 118 + 1;
#X obj 142 160 pack f 1 f;
#X msg 142 181 \$1 \$2 \$3;
#X msg 227 157 vol \$1;
#X obj 227 109 abs;
#X obj 227 136 pow 1;
#X obj 142 230 s \$1PLAYER;
#X obj 142 42 unpack f f f;
#X obj 142 18 inlet num bank vol;
#X text 136 250 play PLAYER_VOICENB BANK_NB NOTE_NB [KEY];
#X obj 142 139 mod 6;
#X connect 0 0 9 0;
#X connect 1 0 2 0;
#X connect 1 1 4 2;
#X connect 2 0 3 0;
#X connect 3 0 13 0;
#X connect 4 0 5 0;
#X connect 5 0 0 0;
#X connect 6 0 9 0;
#X connect 7 0 8 0;
#X connect 8 0 6 0;
#X connect 10 0 1 0;
#X connect 10 1 4 1;
#X connect 10 2 7 0;
#X connect 11 0 10 0;
#X connect 13 0 2 1;
#X connect 13 0 4 0;
#X restore 24 378 pd player;
#X obj 123 26 r \$1_PLAY;
#X obj 351 26 r \$0-B2X;
#X obj 480 18 r \$0-B2Y;
#X obj 283 154 s PERCU-palinseq1-denum-rcv;
#X obj 351 47 + 1;
#X obj 351 111 i;
#X obj 351 132 change;
#X obj 351 68 / 2;
#X obj 283 112 moses 2;
#X obj 283 133 f;
#X obj 322 132 + 1;
#X obj 351 90 * 3.3;
#X obj 480 38 + 1;
#X obj 480 102 i;
#X obj 480 123 change;
#X obj 480 59 / 2;
#X obj 480 81 * 4.5;
#X obj 455 156 s PERCU-palinseq1-palinmesure-rcv;
#X connect 0 0 1 0;
#X connect 1 0 13 0;
#X connect 1 0 14 0;
#X connect 2 0 0 0;
#X connect 3 0 9 0;
#X connect 4 0 3 0;
#X connect 5 0 6 0;
#X connect 6 0 7 0;
#X connect 7 0 4 0;
#X connect 7 1 9 1;
#X connect 8 0 15 0;
#X connect 9 0 8 0;
#X connect 11 0 10 0;
#X connect 12 0 11 0;
#X connect 13 0 12 0;
#X connect 13 1 12 1;
#X connect 14 0 15 0;
#X connect 16 0 12 0;
#X connect 17 0 20 0;
#X connect 18 0 28 0;
#X connect 20 0 23 0;
#X connect 21 0 22 0;
#X connect 22 0 24 0;
#X connect 23 0 27 0;
#X connect 24 0 25 0;
#X connect 24 1 26 0;
#X connect 25 0 19 0;
#X connect 26 0 25 0;
#X connect 27 0 21 0;
#X connect 28 0 31 0;
#X connect 29 0 30 0;
#X connect 30 0 33 0;
#X connect 31 0 32 0;
#X connect 32 0 29 0;
#X restore 225 206 pd noteplayer_ctl;
#X obj 25 24 clone noteplayer 6 \$1PLAYER;
#X connect 0 0 6 0;
#X connect 0 0 1 0;
#X connect 2 0 15 0;
#X connect 3 0 7 0;
#X connect 4 0 27 0;
#X connect 5 0 28 0;
#X connect 6 0 1 0;
#X connect 9 0 27 1;
#X connect 10 0 28 1;
#X connect 11 0 0 0;
#X connect 13 0 8 0;
#X connect 14 0 12 0;
#X connect 15 0 22 0;
#X connect 16 0 21 0;
#X connect 17 0 21 1;
#X connect 18 0 16 0;
#X connect 22 0 3 0;
#X connect 22 1 23 0;
#X connect 23 0 24 0;
#X connect 25 0 22 0;
#X connect 27 0 8 0;
#X connect 28 0 12 0;
#X connect 29 0 30 0;
#X connect 30 0 8 0;
#X connect 33 0 11 0;
