#N canvas 118 276 402 463 10;
#X declare -path ../domoTools/gammabs;
#X declare -path ../domoTools/domonet;
#X declare -path ../domoTools/notebank;
#X declare -path ../domoTools/effects;
#X declare -path ../domoTools/rhythmic;
#X declare -path ../domoTools/song;
#X declare -path zexy -lib zexy -path iemlib -lib iemlib -path motex -lib motex -path ggee -lib ggee -path moonlib -path AutoPreset;
#X declare -path creb -lib creb;
#X obj 24 37 fraise_interface;
#X obj 25 84 r CLOCK;
#X obj 25 127 unpack f f;
#X floatatom 25 149 5 0 0 0 - - - 0;
#X floatatom 82 149 5 0 0 0 - - - 0;
#X obj 25 174 bng 50 50 50 0 empty empty empty 17 7 0 10 #fcfcfc #000000 #000000;
#X obj 102 179 r /BPM;
#X floatatom 102 203 5 0 0 0 - - - 0;
#X obj 25 105 route list;
#X obj 126 61 r TEMPOLED;
#X obj 25 230 GAMMEKBV /GAMME;
#X obj 25 294 GAMMEKBV /CHORD;
#N canvas 794 320 718 455 notebanks 0;
#X obj 274 181 s NOTEBANK-LOADTABLES;
#X obj 301 159 s NOTEBANK-DATASDIR;
#X obj 274 115 r DATASDIR;
#X obj 274 136 t b a;
#X obj 328 50 accorder;
#X obj 328 71 dac~;
#X obj 340 406 s PLAYER1;
#X text 268 424 play PLAYER_VOICENB BANK_NB NOTE_NB [KEY];
#X floatatom 340 231 5 0 0 0 - - - 0;
#X msg 340 385 play \$1 \$2 \$3 0;
#X obj 340 252 t b f, f 10;
#X obj 340 273 i;
#X obj 340 294 + 1;
#X obj 340 336 pack f 1 f;
#X msg 340 357 \$1 \$2 \$3;
#X msg 429 285 1;
#X msg 429 305 3;
#X floatatom 453 367 5 0 0 0 - - - 0;
#X msg 453 387 transpose \$1;
#X obj 119 326 *~ 0.4;
#X obj 61 431 throw~ master;
#X floatatom 464 277 5 0 0 0 - - - 0;
#X obj 468 202 + 1;
#X obj 459 105 metro 200;
#X obj 462 63 tgl 15 0 empty empty empty 17 7 0 10 #fcfcfc #000000 #000000 0 1;
#X obj 164 405 throw~ reverb;
#X obj 164 380 *~ 0.8;
#X obj 468 181 random 16;
#X obj 558 325 getnbnotes;
#X floatatom 558 346 5 0 0 0 - - - 0;
#X obj 119 304 clone noteplayer 2 PLAYER1;
#X obj 340 315 mod 2;
#X obj 18 29 l notebank 2 4 CollectionChantsCollectifs;
#X obj 429 34 s reloadNotes;
#X obj 429 15 bng 15 250 50 0 empty empty empty 17 7 0 10 #fcfcfc #000000 #000000;
#X obj 18 9 l notebank 1 7 Ant1-wavtables;
#X obj 16 56 notebank 1 7 Cyrvan;
#X obj 16 75 notebank 2 7 Florentin;
#X obj 16 95 notebank 3 7 Hugo;
#X obj 16 114 notebank 4 7 Louanne;
#X obj 16 133 notebank 5 7 Manon;
#X obj 16 152 notebank 6 7 Boy1;
#X obj 58 213 resample_wavtables;
#X connect 2 0 3 0;
#X connect 3 0 0 0;
#X connect 3 1 1 0;
#X connect 4 0 5 0;
#X connect 4 0 5 1;
#X connect 8 0 10 0;
#X connect 9 0 6 0;
#X connect 10 0 11 0;
#X connect 10 1 13 2;
#X connect 11 0 12 0;
#X connect 12 0 31 0;
#X connect 13 0 14 0;
#X connect 14 0 9 0;
#X connect 15 0 13 1;
#X connect 16 0 13 1;
#X connect 17 0 18 0;
#X connect 18 0 6 0;
#X connect 19 0 26 0;
#X connect 19 0 20 0;
#X connect 21 0 13 1;
#X connect 21 0 28 0;
#X connect 22 0 8 0;
#X connect 23 0 27 0;
#X connect 24 0 23 0;
#X connect 26 0 25 0;
#X connect 27 0 22 0;
#X connect 28 0 27 1;
#X connect 28 0 29 0;
#X connect 30 0 19 0;
#X connect 31 0 11 1;
#X connect 31 0 13 0;
#X connect 34 0 33 0;
#X restore 26 371 pd notebanks;
#N canvas 86 653 625 384 General 0;
#X obj 26 94 getenv HOME;
#X obj 245 117 bng 15 250 50 0 empty empty empty 17 7 0 10 #fcfcfc #000000 #000000;
#X symbolatom 26 115 10 0 0 0 - - - 0;
#X obj 245 179 s DATASDIR;
#X obj 245 96 loadbang;
#X obj 411 49 loadbang;
#X msg 411 70 \; pd dsp 1;
#X obj 480 179 s /GAMME;
#X msg 480 159 2741;
#X obj 417 179 s /CHORD;
#X msg 417 161 145;
#X obj 426 108 loadbang;
#X msg 386 127 1;
#X obj 27 217 bng 15 250 50 0 empty empty empty 17 7 0 10 #fc0400 #000000 #000000;
#X msg 134 573 symbol test1;
#X obj 85 248 s /UNLOCKSNAP;
#X obj 85 229 tgl 15 0 empty empty empty 17 7 0 10 #fcfcfc #000000 #000000 0 1;
#X msg 216 573 symbol test2;
#X obj 134 594 s /SONG;
#X obj 27 271 songMaster SONGS SETTINGS;
#X obj 27 247 5clicks;
#X msg 26 135 symbol \$1/Datas/Domozic/Baguettes;
#N canvas 1 81 450 300 declares 0;
#X obj 29 80 declare -path ../domoTools/gammabs;
#X obj 29 98 declare -path ../domoTools/domonet;
#X obj 29 116 declare -path ../domoTools/notebank;
#X obj 29 134 declare -path ../domoTools/effects;
#X obj 29 153 declare -path ../domoTools/rhythmic;
#X obj 29 171 declare -path ../domoTools/song;
#X obj 28 30 declare -path zexy -lib zexy -path iemlib -lib iemlib -path motex -lib motex -path ggee -lib ggee -path moonlib -path AutoPreset;
#X restore 27 9 pd declares;
#X obj 245 135 getdir;
#X msg 245 157 symbol \$1/WAVS;
#X obj 27 31 domonet Aspicolor;
#X obj 307 94 r reloadNotes;
#X connect 0 0 2 0;
#X connect 1 0 23 0;
#X connect 2 0 21 0;
#X connect 4 0 1 0;
#X connect 5 0 6 0;
#X connect 8 0 7 0;
#X connect 10 0 9 0;
#X connect 11 0 10 0;
#X connect 11 0 8 0;
#X connect 12 0 9 0;
#X connect 12 0 7 0;
#X connect 13 0 20 0;
#X connect 14 0 18 0;
#X connect 16 0 15 0;
#X connect 17 0 18 0;
#X connect 20 0 19 0;
#X connect 21 0 3 0;
#X connect 23 0 24 0;
#X connect 24 0 3 0;
#X connect 26 0 1 0;
#X restore 24 58 pd General;
#X obj 126 82 tgl 15 0 empty empty empty 17 7 0 10 #fcfcfc #000000 #000000 0 1;
#X obj 126 123 s LEDROUGE;
#X obj 196 60 r BOUTONROUGE;
#X obj 196 81 == 0;
#X obj 126 102 spigot 1, f 12;
#N canvas 76 107 764 504 testPP 0;
#X obj 201 48 r PP_POS;
#X obj 334 168 + 15;
#X obj 201 193 mtof;
#X obj 201 235 line~;
#X obj 334 189 mtof;
#X msg 334 210 \$1 10;
#X obj 334 231 line~;
#X obj 208 19 declare -path creb -lib creb;
#X obj 220 403 dist~ 1;
#X obj 195 336 bob~;
#X obj 140 183 mtof;
#X obj 140 225 line~;
#X obj 85 188 mtof;
#X obj 85 230 line~;
#X msg 201 214 \$1 1;
#X msg 140 204 \$1 1;
#X msg 85 209 \$1 1;
#X obj 334 147 * 120;
#X obj 196 369 mull~ 2 10;
#X obj 140 118 + 7;
#X obj 97 109 + 5;
#X obj 196 461 throw~ master;
#X obj 298 466 throw~ reverb;
#X obj 298 442 *~ 0.7;
#X obj 298 419 lop~ 2000;
#X obj 203 116 gammeRound /GAMME 2;
#X obj 139 139 gammeRound /GAMME 2;
#X obj 78 158 gammeRound /GAMME 2;
#X msg 68 31 set /GAMME;
#X msg 73 48 set /CHORD;
#X obj 68 69 t a;
#X msg 89 10 round 5;
#X msg 142 9 round 10;
#X msg 9 70 round 0;
#X obj 649 51 r PROXIMITY;
#X obj 543 63 unpack f f f f;
#X obj 543 42 r COLORSEP;
#X msg 40 9 round 2;
#X obj 31 302 tabosc4~ NT-1-1;
#X obj 201 256 osc~;
#X obj 140 246 osc~;
#X obj 85 251 osc~;
#X obj 54 351 tabosc4~ NT-1-2;
#X obj 258 340 sig~ 2;
#X obj 385 246 + 0;
#X obj 386 225 * 2;
#X obj 201 69 * 40;
#X obj 201 89 + 26;
#X obj 245 261 tabosc4~ NT-1-4;
#X obj 387 326 *~ 2;
#X obj 387 305 osc~ 6;
#X obj 455 55 metro 20;
#X obj 455 35 tgl 15 0 empty empty empty 17 7 0 10 #fcfcfc #000000 #000000 0 1;
#X obj 453 12 loadbang;
#X obj 469 124 t f f;
#X obj 470 152 -;
#X obj 470 173 max 0;
#X obj 442 105 t f f;
#X obj 452 217 +;
#X obj 382 36 r PP_PRESS;
#X obj 334 119 f;
#X obj 452 238 clip 0 1;
#X obj 437 83 f;
#X obj 470 194 * 2;
#X msg 65 441 set NT-1-6;
#X msg 82 411 set NT-1-\$1;
#X obj 81 372 hradio 15 1 0 6 empty empty empty 0 -8 0 10 #fcfcfc #000000 #000000 0;
#X obj 81 392 + 1;
#X obj 156 283 *~ 0.5;
#X obj 196 440 *~ 0.3;
#X obj 580 167 switch~;
#X connect 0 0 46 0;
#X connect 1 0 4 0;
#X connect 2 0 14 0;
#X connect 3 0 39 0;
#X connect 3 0 48 0;
#X connect 4 0 5 0;
#X connect 5 0 6 0;
#X connect 6 0 9 1;
#X connect 9 0 18 0;
#X connect 10 0 15 0;
#X connect 11 0 40 0;
#X connect 11 0 42 0;
#X connect 12 0 16 0;
#X connect 13 0 38 0;
#X connect 13 0 41 0;
#X connect 14 0 3 0;
#X connect 15 0 11 0;
#X connect 16 0 13 0;
#X connect 17 0 1 0;
#X connect 18 0 69 0;
#X connect 19 0 26 0;
#X connect 20 0 27 0;
#X connect 23 0 22 0;
#X connect 24 0 23 0;
#X connect 25 0 2 0;
#X connect 26 0 10 0;
#X connect 27 0 12 0;
#X connect 28 0 30 0;
#X connect 29 0 30 0;
#X connect 30 0 27 0;
#X connect 30 0 25 0;
#X connect 30 0 26 0;
#X connect 31 0 30 0;
#X connect 32 0 30 0;
#X connect 33 0 30 0;
#X connect 36 0 35 0;
#X connect 37 0 30 0;
#X connect 38 0 9 0;
#X connect 39 0 68 0;
#X connect 40 0 68 0;
#X connect 41 0 68 0;
#X connect 42 0 9 0;
#X connect 43 0 9 2;
#X connect 44 0 18 1;
#X connect 45 0 44 0;
#X connect 45 0 49 1;
#X connect 46 0 47 0;
#X connect 47 0 19 0;
#X connect 47 0 20 0;
#X connect 47 0 25 0;
#X connect 48 0 9 0;
#X connect 49 0 48 0;
#X connect 49 0 42 0;
#X connect 49 0 38 0;
#X connect 50 0 49 0;
#X connect 51 0 62 0;
#X connect 52 0 51 0;
#X connect 53 0 52 0;
#X connect 54 0 55 1;
#X connect 54 1 55 0;
#X connect 55 0 56 0;
#X connect 56 0 63 0;
#X connect 57 0 58 0;
#X connect 57 1 54 0;
#X connect 58 0 61 0;
#X connect 59 0 62 1;
#X connect 60 0 17 0;
#X connect 60 0 45 0;
#X connect 61 0 60 0;
#X connect 62 0 57 0;
#X connect 63 0 58 1;
#X connect 64 0 42 0;
#X connect 64 0 48 0;
#X connect 64 0 38 0;
#X connect 65 0 42 0;
#X connect 65 0 48 0;
#X connect 65 0 38 0;
#X connect 66 0 67 0;
#X connect 67 0 65 0;
#X connect 69 0 21 0;
#X restore 259 378 pd testPP;
#N canvas 701 430 566 300 MASTER 0;
#X obj 176 156 limiter~;
#X obj 136 157 z~ 64;
#X obj 134 19 catch~ master;
#X obj 136 178 *~;
#X obj 130 219 dac~;
#X obj 228 21 catch~ reverb;
#X obj 227 43 rev3~ 100 92 2000 20;
#X obj 263 71 r POTVOL;
#X msg 263 131 \$1 20;
#X obj 263 152 line~;
#X obj 135 121 *~;
#X obj 322 80 hsl 128 15 0 1 0 0 empty empty empty -2 -8 0 10 #fcfcfc #000000 #000000 0 1;
#X obj 379 36 loadbang;
#X msg 379 57 0.5;
#X floatatom 326 151 5 0 0 0 - - - 0;
#X obj 263 110 pow 2;
#X obj 134 93 hip~ 30;
#X connect 0 0 3 1;
#X connect 1 0 3 0;
#X connect 2 0 16 0;
#X connect 3 0 4 0;
#X connect 3 0 4 1;
#X connect 5 0 6 0;
#X connect 6 0 16 0;
#X connect 7 0 15 0;
#X connect 8 0 9 0;
#X connect 9 0 10 1;
#X connect 10 0 0 0;
#X connect 10 0 1 0;
#X connect 11 0 15 0;
#X connect 12 0 13 0;
#X connect 13 0 11 0;
#X connect 15 0 8 0;
#X connect 16 0 10 0;
#X restore 23 15 pd MASTER;
#N canvas 446 382 754 596 testCOLOR 0;
#X obj 91 18 r COLOR;
#X obj 274 59 unpack f f f f;
#X floatatom 403 68 5 0 0 0 - - - 0;
#X obj 355 104 change;
#X obj 368 134 tgl 15 0 empty empty empty 17 7 0 10 #fcfcfc #000000 #000000 0 1;
#X msg 49 122 \$1 \$2 \$3;
#X obj 49 143 unpack f f f;
#X obj 83 165 +;
#X obj 49 164 /;
#X obj 130 144 unpack f f f;
#X obj 164 166 +;
#X obj 130 165 /;
#X msg 130 125 \$2 \$1 \$3;
#X obj 215 144 unpack f f f;
#X obj 249 166 +;
#X obj 215 165 /;
#X msg 215 125 \$3 \$2 \$1;
#X obj 49 206 clip 0 1;
#X obj 130 208 clip 0 1;
#X obj 215 207 clip 0 1;
#X obj 30 469 bob~, f 9;
#X obj 75 361 mtof;
#X msg 75 382 \$1 10;
#X obj 75 403 line~;
#X obj 79 521 mull~ 0 10;
#X obj 80 561 throw~ master;
#X obj 95 469 sig~ 3;
#X obj 75 340 + 20;
#X obj 231 446 bob~, f 9;
#X obj 276 352 mtof;
#X msg 276 373 \$1 10;
#X obj 276 394 line~;
#X obj 296 446 sig~ 3;
#X obj 276 331 + 20;
#X obj 140 403 ssaw~ 50;
#X obj 230 425 ssaw~ 120;
#X obj 356 456 bob~, f 9;
#X obj 398 359 mtof;
#X msg 398 380 \$1 10;
#X obj 398 401 line~;
#X obj 423 458 sig~ 3;
#X obj 75 319 * 80;
#X obj 398 317 * 80;
#X obj 276 310 * 80;
#X obj 354 435 ssaw~ 320;
#X obj 473 292 viewColor;
#X obj 91 43 t a a a a;
#X obj 64 235 pack f f f, f 23;
#X obj 31 362 mtof;
#X msg 31 383 \$1 10;
#X obj 31 404 line~;
#X obj 22 238 * 40;
#X obj 22 259 + 30;
#X obj 220 358 mtof;
#X msg 220 379 \$1 10;
#X obj 220 400 line~;
#X obj 220 316 * 40;
#X obj 220 337 + 50;
#X obj 347 365 mtof;
#X msg 347 386 \$1 10;
#X obj 347 407 line~;
#X obj 347 344 + 70;
#X obj 347 323 * 30;
#X obj 398 338 + 30;
#X obj 355 83 > 0.2;
#X obj 436 104 r PROXIMITY;
#X obj 49 185 / 1;
#X obj 130 187 / 0.8;
#X obj 196 514 mull~ 0 10;
#X obj 196 535 throw~ reverb;
#X obj 222 484 pow 2;
#X obj 263 185 * 1;
#X obj 166 185 * 1;
#X obj 91 186 * 1;
#X obj 215 186 / 0.9;
#X obj 614 205 list split 3;
#X obj 614 236 RGBtoHue;
#X obj 614 257 HuetoRGB;
#X floatatom 578 257 5 0 0 0 - - - 0;
#X obj 624 316 viewColor;
#X obj 38 431 tabosc4~ NT-1-1;
#X msg 126 380 set NT-1-\$1;
#X obj 108 336 hradio 15 1 0 7 empty empty empty 0 -8 0 10 #fcfcfc #000000 #000000 0;
#X obj 125 361 + 1;
#X obj 676 247 s COLORNORM;
#X obj 535 540 i;
#X floatatom 535 561 5 0 0 0 - - - 0;
#X obj 677 226 s COLORHUE;
#X obj 537 466 r COLORHUE;
#X obj 537 497 / 360;
#X obj 17 284 gammeRound /GAMME 2;
#X obj 537 518 * 6;
#X obj 504 50 switch~;
#X obj 654 280 r COLORNORM;
#X connect 1 3 64 0;
#X connect 3 0 4 0;
#X connect 5 0 6 0;
#X connect 6 0 8 0;
#X connect 6 1 7 0;
#X connect 6 2 7 1;
#X connect 7 0 73 0;
#X connect 8 0 66 0;
#X connect 9 0 11 0;
#X connect 9 1 10 0;
#X connect 9 2 10 1;
#X connect 10 0 72 0;
#X connect 11 0 67 0;
#X connect 12 0 9 0;
#X connect 13 0 15 0;
#X connect 13 1 14 0;
#X connect 13 2 14 1;
#X connect 14 0 71 0;
#X connect 15 0 74 0;
#X connect 16 0 13 0;
#X connect 17 0 47 0;
#X connect 17 0 51 0;
#X connect 18 0 43 0;
#X connect 18 0 47 1;
#X connect 18 0 56 0;
#X connect 18 0 41 0;
#X connect 19 0 42 0;
#X connect 19 0 47 2;
#X connect 19 0 62 0;
#X connect 19 0 70 0;
#X connect 20 0 24 0;
#X connect 21 0 22 0;
#X connect 22 0 23 0;
#X connect 23 0 20 1;
#X connect 24 0 25 0;
#X connect 24 0 68 0;
#X connect 26 0 20 2;
#X connect 27 0 21 0;
#X connect 29 0 30 0;
#X connect 30 0 31 0;
#X connect 31 0 28 1;
#X connect 32 0 28 2;
#X connect 33 0 29 0;
#X connect 35 0 28 0;
#X connect 37 0 38 0;
#X connect 38 0 39 0;
#X connect 39 0 36 1;
#X connect 40 0 36 2;
#X connect 41 0 27 0;
#X connect 42 0 63 0;
#X connect 43 0 33 0;
#X connect 44 0 36 0;
#X connect 46 0 5 0;
#X connect 46 1 12 0;
#X connect 46 2 16 0;
#X connect 46 3 1 0;
#X connect 46 3 45 0;
#X connect 46 3 75 0;
#X connect 48 0 49 0;
#X connect 49 0 50 0;
#X connect 50 0 80 0;
#X connect 51 0 52 0;
#X connect 52 0 90 0;
#X connect 53 0 54 0;
#X connect 54 0 55 0;
#X connect 55 0 35 0;
#X connect 56 0 57 0;
#X connect 57 0 53 0;
#X connect 58 0 59 0;
#X connect 59 0 60 0;
#X connect 60 0 44 0;
#X connect 61 0 58 0;
#X connect 62 0 61 0;
#X connect 63 0 37 0;
#X connect 64 0 3 0;
#X connect 65 0 24 1;
#X connect 66 0 17 0;
#X connect 67 0 18 0;
#X connect 68 0 69 0;
#X connect 70 0 68 1;
#X connect 71 0 15 1;
#X connect 72 0 11 1;
#X connect 73 0 8 1;
#X connect 74 0 19 0;
#X connect 76 0 77 0;
#X connect 76 0 78 0;
#X connect 76 0 87 0;
#X connect 77 0 84 0;
#X connect 80 0 24 0;
#X connect 81 0 80 0;
#X connect 82 0 83 0;
#X connect 83 0 81 0;
#X connect 85 0 86 0;
#X connect 85 0 82 0;
#X connect 89 0 91 0;
#X connect 90 0 48 0;
#X connect 91 0 85 0;
#X connect 93 0 79 0;
#X restore 258 408 pd testCOLOR;
#X obj 262 296 l Bruits BRUIT 2;
#X obj 262 316 l Chants CHANT 3;
#X obj 262 336 l Percu PERCU 4;
#N canvas 527 140 696 329 notes-ctl 0;
#X text 108 46 couleur=note;
#X text 107 68 ruban: taux/frequences d'harmoniques;
#X text 180 213 solo: timbre transpo vibrato;
#X text 107 91 select: arpege=phrase solo=nappe=étalement/retard/fausseté/vibrato, f 73;
#X text 108 138 speed: arpege=vitesse solo=nappe=vibrato;
#X text 104 22 accelero: gauche=reverb droite=echo haut/bas: longueur reverb/echo + select AEIOU, f 82;
#X text 109 114 effet: timbre \, disto \, filtre \, flanger;
#X restore 210 155 pd notes-ctl;
#X obj 168 237 Aspi ASPI;
#X obj 262 275 l Orchestre ORCH 1;
#X connect 2 0 3 0;
#X connect 2 1 4 0;
#X connect 3 0 5 0;
#X connect 6 0 7 0;
#X connect 8 0 2 0;
#X connect 9 0 14 0;
#X connect 14 0 18 0;
#X connect 16 0 17 0;
#X connect 17 0 18 1;
#X connect 18 0 15 0;
