#N canvas 158 227 684 476 10;
#X declare -stdpath iemlib -lib iemlib1;
#X declare -path ../domoTools/gammabs;
#X declare -path ../domoTools/domonet;
#X declare -path ../domoTools/notebank;
#X declare -path ../domoTools/effects;
#X declare -path ../domoTools/rhythmic;
#X declare -path ../domoTools/song;
#X declare -stdpath motex -path motex -lib motex -path ggee -lib ggee
-path moonlib -path AutoPreset;
#X declare -path ../domoTools/rj;
#X declare -path ../domoTools/melodic;
#X declare -path ../;
#X obj 27 451 throw~ master;
#X obj 26 242 catch~ \$1-VOICEOUT;
#X obj 37 55 r COLORHUE;
#X obj 37 76 / 360;
#X obj 37 187 s \$1-MAINNOTE;
#X obj 152 9 r AXL_ASSIETTE;
#X obj 152 30 unpack f f;
#X obj 209 51 * -1;
#X obj 209 72 clip 0 1;
#N canvas 271 234 450 300 declares 0;
#X obj 28 57 declare -stdpath iemlib -lib iemlib1;
#X obj 29 80 declare -path ../domoTools/gammabs;
#X obj 29 98 declare -path ../domoTools/domonet;
#X obj 29 116 declare -path ../domoTools/notebank;
#X obj 29 134 declare -path ../domoTools/effects;
#X obj 29 153 declare -path ../domoTools/rhythmic;
#X obj 29 171 declare -path ../domoTools/song;
#X obj 27 28 declare -stdpath motex -path motex -lib motex -path ggee
-lib ggee -path moonlib -path AutoPreset;
#X obj 29 191 declare -path ../domoTools/rj;
#X obj 29 209 declare -path ../domoTools/melodic;
#X restore 27 9 pd declares;
#N canvas 1 81 456 417 waveform 0;
#X obj 113 11 inlet;
#X obj 113 79 line;
#X obj 278 142 i;
#X obj 278 205 div 2;
#X obj 325 141 i;
#X obj 325 188 div 2;
#X obj 278 226 * 2;
#X obj 325 211 * 2;
#X obj 325 232 + 1;
#X obj 278 163 + 1;
#X obj 325 163 + 0;
#X floatatom 162 60 5 0 0 0 - - -;
#X obj 162 159 t f f;
#X obj 162 222 -;
#X obj 187 182 div 2;
#X obj 187 203 * 2;
#X obj 162 243 moses 1;
#X obj 201 263 * -1;
#X obj 162 282 f;
#X obj 201 284 + 2;
#X obj 76 162 t f f;
#X obj 76 225 -;
#X obj 101 185 div 2;
#X obj 101 206 * 2;
#X obj 76 246 moses 1;
#X obj 115 266 * -1;
#X obj 76 285 f;
#X obj 115 287 + 2;
#X obj 83 141 + 1;
#X obj 325 253 change;
#X obj 278 278 change;
#X obj 76 326 s \$1-VOICE-WFVOLA;
#X obj 162 304 s \$1-VOICE-WFVOLB;
#X obj 278 299 s \$1-VOICE-WFA;
#X obj 325 273 s \$1-VOICE-WFB;
#X obj 235 45 hsl 128 15 0 1 0 0 empty empty empty -2 -8 0 10 -262144
-1 -1 0 1;
#X floatatom 33 277 5 0 0 0 - - -;
#X floatatom 240 268 5 0 0 0 - - -;
#X floatatom 234 188 5 0 0 0 - - -;
#X obj 113 37 * 4;
#X msg 113 58 \$1 30;
#X connect 0 0 39 0;
#X connect 1 0 2 0;
#X connect 1 0 4 0;
#X connect 1 0 12 0;
#X connect 1 0 28 0;
#X connect 2 0 9 0;
#X connect 3 0 6 0;
#X connect 4 0 10 0;
#X connect 5 0 7 0;
#X connect 6 0 30 0;
#X connect 7 0 8 0;
#X connect 8 0 29 0;
#X connect 9 0 3 0;
#X connect 10 0 5 0;
#X connect 12 0 13 0;
#X connect 12 1 14 0;
#X connect 13 0 16 0;
#X connect 14 0 15 0;
#X connect 15 0 13 1;
#X connect 16 0 18 0;
#X connect 16 1 17 0;
#X connect 17 0 19 0;
#X connect 18 0 32 0;
#X connect 18 0 37 0;
#X connect 19 0 18 0;
#X connect 20 0 21 0;
#X connect 20 1 22 0;
#X connect 21 0 24 0;
#X connect 22 0 23 0;
#X connect 23 0 21 1;
#X connect 24 0 26 0;
#X connect 24 1 25 0;
#X connect 25 0 27 0;
#X connect 26 0 31 0;
#X connect 27 0 26 0;
#X connect 28 0 20 0;
#X connect 29 0 34 0;
#X connect 30 0 33 0;
#X connect 35 0 39 0;
#X connect 36 0 31 0;
#X connect 38 0 33 0;
#X connect 39 0 40 0;
#X connect 40 0 1 0;
#X restore 209 96 pd waveform;
#X obj 37 118 + 34;
#X obj 37 97 * 24;
#X obj 27 348 mull~ 0 20;
#X floatatom 21 34 5 0 0 0 - - -;
#X obj 426 5 r BOUTONMODE;
#X obj 426 93 s \$1-MODE;
#X obj 489 110 r \$1-MODE;
#X obj 153 307 r PP_PRESS;
#X obj 203 380 s \$1-richness;
#X obj 77 75 r PP_POS;
#X obj 37 139 +;
#X obj 77 117 t b f;
#X obj 29 221 clone voice 24 \$1;
#X obj 203 359 * 26;
#X obj 153 328 pow 2;
#X obj 151 373 + 1;
#X obj 151 352 * -0.3;
#N canvas 926 397 753 503 rev/del 0;
#X obj 40 30 inlet~;
#X obj 80 269 throw~ reverb;
#X msg 89 54 \$1 10;
#X obj 89 75 line~;
#X obj 335 180 hsl 128 15 0 1 0 0 empty empty empty -2 -8 0 10 -262144
-1 -1 0 1;
#X obj 168 77 mknob 25 100 0 1 0 0 \$1RevSnd-snd \$1RevSnd-rcv \$1RevSnd
-2 -6 0 10 -257985 -1 -1 0 1;
#X msg 96 203 \$1 10;
#X obj 96 224 line~;
#X obj 96 151 pow 2;
#X obj 80 247 *~;
#X obj 40 416 outlet~;
#X obj 332 200 MORPHgroup \$1FX A;
#X obj 89 33 r \$1_FXSND;
#X obj 117 102 r \$1RevSnd-snd;
#X obj 326 323 apf \$1FX-A revsnd \$1RevSnd;
#X obj 40 355 apecho \$1FX-A echo1;
#X obj 332 157 r \$1_FX;
#X obj 449 45 presetmaster \$1 FX;
#X obj 280 21 r AXL_ASSIETTE;
#X obj 280 42 unpack f f;
#X obj 96 128 clip 0 1;
#X msg 193 180 \$1 10;
#X obj 193 201 line~;
#X obj 193 160 pow 2;
#X obj 193 137 clip 0 1;
#X obj 211 117 * -1;
#X obj 40 319 *~;
#X obj 41 125 *~ 1;
#X obj 96 172 * 0.3;
#X msg 322 110 echo1 time \$1;
#X obj 322 131 s \$1FX-A-setap-snd;
#X obj 322 89 + 0.8;
#X obj 322 68 * -0.2;
#X connect 0 0 27 0;
#X connect 2 0 3 0;
#X connect 4 0 11 0;
#X connect 6 0 7 0;
#X connect 7 0 9 1;
#X connect 8 0 28 0;
#X connect 9 0 1 0;
#X connect 12 0 2 0;
#X connect 15 0 10 0;
#X connect 18 0 19 0;
#X connect 19 0 25 0;
#X connect 19 0 20 0;
#X connect 19 1 32 0;
#X connect 20 0 8 0;
#X connect 21 0 22 0;
#X connect 22 0 26 1;
#X connect 23 0 21 0;
#X connect 24 0 23 0;
#X connect 25 0 24 0;
#X connect 26 0 15 0;
#X connect 27 0 9 0;
#X connect 27 0 26 0;
#X connect 28 0 6 0;
#X connect 29 0 30 0;
#X connect 31 0 29 0;
#X connect 32 0 31 0;
#X restore 49 387 pd rev/del;
#N canvas 926 397 753 557 fx 0;
#X obj 40 30 inlet~;
#X obj 402 133 hsl 128 15 0 1 0 0 empty empty empty -2 -8 0 10 -262144
-1 -1 0 1;
#X obj 40 483 outlet~;
#X obj 326 323 apf \$1FX-A revsnd \$1RevSnd;
#X obj 449 45 presetmaster \$1 FXB;
#X obj 399 153 MORPHgroup \$1FXB A;
#X obj 41 95 apmoog \$1FXB-A moog1;
#X obj 41 185 apdisto \$1FXB-A dist1;
#X obj 158 44 r \$1-MAINNOTE;
#X obj 158 65 * 0.5;
#X obj 259 373 apeq \$1FXB-A eq1;
#X obj 39 363 apphaser \$1FXB-A ph1;
#X obj 40 341 lop~ 500;
#X obj 538 436 hip~ 500;
#X obj 538 457 mull~ 1 20;
#X obj 456 458 mull~ 1 20;
#X obj 533 359 hsl 128 15 0 1 0 0 empty empty empty -2 -8 0 10 -262144
-1 -1 0 1;
#X obj 530 379 pow 2;
#X obj 585 380 hsl 128 15 0 1 0 0 empty empty empty -2 -8 0 10 -262144
-1 -1 0 1;
#X obj 582 400 pow 2;
#X obj 123 303 * 120;
#X obj 123 324 + 10;
#X obj 123 345 mtof;
#X obj 123 264 apslider \$1FXB-A lop1;
#X obj 399 110 r POTFX;
#X obj 41 244 *~ 3;
#X obj 41 165 *~ 0.33;
#X obj 39 442 lop~ 3000;
#X connect 0 0 6 0;
#X connect 1 0 5 0;
#X connect 6 0 26 0;
#X connect 7 0 25 0;
#X connect 8 0 9 0;
#X connect 9 0 6 1;
#X connect 11 0 27 0;
#X connect 12 0 11 0;
#X connect 13 0 14 0;
#X connect 16 0 17 0;
#X connect 17 0 15 1;
#X connect 18 0 19 0;
#X connect 19 0 14 1;
#X connect 20 0 21 0;
#X connect 21 0 22 0;
#X connect 22 0 12 1;
#X connect 23 0 20 0;
#X connect 24 0 1 0;
#X connect 25 0 12 0;
#X connect 26 0 7 0;
#X connect 27 0 2 0;
#X restore 26 265 pd fx;
#X obj 27 426 *~ 0.3;
#X obj 289 8 r BOUTONROUGE;
#X obj 289 65 sel 1;
#X obj 289 121 tgl 15 0 empty empty empty 17 7 0 10 -262144 -1 -1 0
1;
#X obj 289 149 sel 0 1;
#X obj 289 87 del 1;
#X obj 343 149 s LEDROUGE;
#X msg 289 171 /GAMME;
#X msg 335 170 /CHORD;
#X obj 289 192 symbol;
#X msg 289 213 -1 gamme \$1;
#X obj 290 233 s \$1-voicectl;
#X obj 77 96 * 18;
#N canvas 751 152 630 509 phrases 0;
#X obj 56 462 outlet;
#X obj 29 11 declare -path ../;
#X obj 273 169 hsl 128 15 0 1 0 0 empty empty empty -2 -8 0 10 -262144
-1 -1 0 1;
#X obj 270 146 r \$1_FX;
#X obj 353 42 apmaster \$1MELO;
#X obj 270 189 MORPHgroup \$1MELO M;
#X obj 271 108 apmasterfile \$1MELO SETTINGS/\$1MELO.txt;
#X obj 271 86 bng 15 250 50 0 empty empty load 17 7 0 10 -4034 -1 -1
;
#X obj 501 87 bng 15 250 50 0 empty empty save 17 7 0 10 -258113 -1
-1;
#X obj 271 41 loadbang;
#X obj 271 62 del 10;
#X obj 27 48 phrase \$1MELO-M melo 1;
#X obj 56 321 r CLOCK;
#X msg 184 411 1;
#X msg 215 411 0;
#X obj 195 460 outlet;
#X obj 260 259 r \$1-MODE;
#X obj 260 280 == 2;
#X obj 260 301 t f f;
#X msg 287 324 play \$1;
#X obj 184 388 sel 0;
#X msg 72 433 0;
#X obj 411 128 r POTSELECT;
#X obj 56 347 phrase_play_manualspeed \$1MELO-M melo 1;
#X obj 362 268 r POTSPEED;
#X obj 362 289 * 6.5;
#X obj 362 310 i;
#X obj 362 331 change;
#X obj 362 352 sel 0 1 2 3 4 5 6, f 35;
#X obj 447 409 f;
#X msg 447 430 speed \$1;
#X msg 362 376 1;
#X msg 391 376 3;
#X msg 421 375 3;
#X msg 452 375 4;
#X msg 481 375 6;
#X msg 511 374 8;
#X msg 541 375 16;
#X obj 411 149 * 1.2;
#X obj 411 170 clip 0 1;
#X connect 2 0 5 0;
#X connect 7 0 6 0;
#X connect 8 0 6 1;
#X connect 9 0 10 0;
#X connect 10 0 7 0;
#X connect 12 0 23 0;
#X connect 13 0 15 0;
#X connect 14 0 15 0;
#X connect 16 0 17 0;
#X connect 17 0 18 0;
#X connect 18 0 20 0;
#X connect 18 1 19 0;
#X connect 19 0 23 1;
#X connect 20 0 13 0;
#X connect 20 0 21 0;
#X connect 21 0 0 0;
#X connect 22 0 38 0;
#X connect 23 0 13 0;
#X connect 23 0 0 0;
#X connect 23 1 14 0;
#X connect 24 0 25 0;
#X connect 25 0 26 0;
#X connect 26 0 27 0;
#X connect 27 0 28 0;
#X connect 28 0 31 0;
#X connect 28 1 32 0;
#X connect 28 2 33 0;
#X connect 28 3 34 0;
#X connect 28 4 35 0;
#X connect 28 5 36 0;
#X connect 28 6 37 0;
#X connect 29 0 30 0;
#X connect 30 0 23 1;
#X connect 31 0 29 0;
#X connect 32 0 29 0;
#X connect 33 0 29 0;
#X connect 34 0 29 0;
#X connect 35 0 29 0;
#X connect 36 0 29 0;
#X connect 37 0 29 0;
#X connect 38 0 39 0;
#X connect 39 0 2 0;
#X restore 71 148 pd phrases;
#X obj 37 168 +;
#X obj 71 168 t b f;
#N canvas 1 81 602 410 transpose 0;
#X msg 32 218 0 \, 1 \, 2 \, 3 \, 4 \, 5;
#X obj 32 265 + 6;
#X obj 32 329 s \$1-voicectl;
#X msg 32 286 \$1 transpose 12;
#X obj 134 266 + 12;
#X msg 134 287 \$1 transpose -12;
#X obj 32 193 loadbang;
#X obj 242 266 + 18;
#X msg 242 287 \$1 transpose 24;
#X obj 356 363 s \$1-voicectl;
#X obj 426 226 t f f, f 6;
#X obj 459 247 + 1;
#X obj 426 287 pack f f;
#X obj 426 247 + 12;
#X msg 356 198 0 \, 1 \, 2 \, 3 \, 4 \, 5 \, 6 \, 7 \, 8 \, 9 \, 10
\, 11;
#X obj 356 227 t f f, f 6;
#X obj 356 288 pack f f;
#X obj 356 248 + 0;
#X obj 389 248 + 0;
#X msg 356 319 \$1 transpose \$2;
#X obj 389 269 * 3;
#X obj 459 268 * -3;
#X msg 23 306 \$1 transpose 0;
#X obj 152 67 sel 0 1;
#X obj 152 42 inlet;
#X connect 0 0 1 0;
#X connect 0 0 4 0;
#X connect 0 0 7 0;
#X connect 0 0 22 0;
#X connect 1 0 3 0;
#X connect 3 0 2 0;
#X connect 4 0 5 0;
#X connect 5 0 2 0;
#X connect 6 0 0 0;
#X connect 7 0 8 0;
#X connect 8 0 2 0;
#X connect 10 0 13 0;
#X connect 10 1 11 0;
#X connect 11 0 21 0;
#X connect 12 0 19 0;
#X connect 13 0 12 0;
#X connect 14 0 10 0;
#X connect 14 0 15 0;
#X connect 15 0 17 0;
#X connect 15 1 18 0;
#X connect 16 0 19 0;
#X connect 17 0 16 0;
#X connect 18 0 20 0;
#X connect 19 0 9 0;
#X connect 20 0 16 1;
#X connect 21 0 12 1;
#X connect 22 0 2 0;
#X connect 23 0 0 0;
#X connect 23 1 14 0;
#X connect 24 0 23 0;
#X restore 489 136 pd transpose;
#N canvas 1 81 450 300 vibrato 0;
#X obj 64 164 osc~;
#X obj 64 206 s~ \$1-vibrato;
#X obj 67 101 hsl 128 15 0 1 0 0 empty empty empty -2 -8 0 10 -262144
-1 -1 7215 1;
#X obj 64 121 * 4;
#X obj 64 142 + 2;
#X obj 145 135 pow 1;
#X obj 145 156 * 7;
#X obj 64 45 r POTSPEED;
#X obj 64 185 *~ 0;
#X obj 235 33 r \$1-MODE;
#X obj 235 54 t f f;
#X obj 262 74 != 2;
#X obj 64 66 spigot 1, f 13;
#X obj 227 94 sel 2;
#X msg 227 115 0.1;
#X connect 0 0 8 0;
#X connect 2 0 3 0;
#X connect 2 0 5 0;
#X connect 3 0 4 0;
#X connect 4 0 0 0;
#X connect 5 0 6 0;
#X connect 6 0 8 1;
#X connect 7 0 12 0;
#X connect 8 0 1 0;
#X connect 9 0 10 0;
#X connect 10 0 13 0;
#X connect 10 1 11 0;
#X connect 11 0 12 1;
#X connect 12 0 2 0;
#X connect 13 0 14 0;
#X connect 14 0 2 0;
#X restore 490 166 pd vibrato;
#X obj 26 292 mull~ 0 1;
#N canvas 136 333 450 300 autotune 0;
#X obj 135 55 r POTSELECT;
#X obj 135 210 s \$1-voicectl;
#X msg 135 184 -1 autotune \$1;
#X obj 135 140 pow 2;
#X obj 135 161 * 50;
#X obj 235 33 r \$1-MODE;
#X obj 235 54 t f f;
#X obj 262 74 != 2;
#X obj 227 94 sel 2;
#X obj 135 97 spigot 1;
#X msg 227 115 50;
#X connect 0 0 9 0;
#X connect 2 0 1 0;
#X connect 3 0 4 0;
#X connect 4 0 2 0;
#X connect 5 0 6 0;
#X connect 6 0 8 0;
#X connect 6 1 7 0;
#X connect 7 0 9 1;
#X connect 8 0 10 0;
#X connect 9 0 3 0;
#X connect 10 0 2 0;
#X restore 489 194 pd autotune;
#N canvas 1 81 484 438 test_voiceparams 0;
#X msg 72 109 24;
#X obj 72 130 t f b;
#X obj 72 151 until;
#X obj 72 172 i;
#X obj 72 193 + 1;
#X msg 112 151 0;
#X obj 72 214 t f f;
#X obj 72 258 pack f f;
#X msg 72 279 \$1 delay \$2;
#X obj 99 232 * 100;
#X obj 153 48 t b f;
#X msg 163 19 100;
#X msg 116 19 20;
#X msg 61 24 0;
#X obj 315 333 s \$1-voicectl;
#X msg 208 277 -1 detune \$1;
#X floatatom 208 251 5 0 0 0 - - -;
#X floatatom 290 253 5 0 0 0 - - -;
#X msg 290 277 -1 detunespeed \$1;
#X floatatom 195 306 5 0 0 0 - - -;
#X msg 195 330 -1 portamento \$1;
#X floatatom 351 219 5 0 0 0 - - -;
#X msg 349 236 -1 autotune \$1;
#X connect 0 0 1 0;
#X connect 1 0 2 0;
#X connect 1 1 5 0;
#X connect 2 0 3 0;
#X connect 3 0 4 0;
#X connect 4 0 3 1;
#X connect 4 0 6 0;
#X connect 5 0 3 1;
#X connect 6 0 7 0;
#X connect 6 1 9 0;
#X connect 7 0 8 0;
#X connect 8 0 14 0;
#X connect 9 0 7 1;
#X connect 10 0 0 0;
#X connect 10 1 9 1;
#X connect 11 0 10 0;
#X connect 12 0 10 0;
#X connect 13 0 10 0;
#X connect 15 0 14 0;
#X connect 16 0 15 0;
#X connect 17 0 18 0;
#X connect 18 0 14 0;
#X connect 19 0 20 0;
#X connect 20 0 14 0;
#X connect 21 0 22 0;
#X connect 22 0 14 0;
#X restore 468 340 pd test_voiceparams;
#X obj 426 43 list prepend 0;
#X obj 426 68 route 0 1;
#X obj 369 97 != 0;
#X obj 102 276 r BOUTONROUGE;
#X obj 27 323 mull~ 0 1;
#X connect 1 0 29 0;
#X connect 2 0 3 0;
#X connect 3 0 12 0;
#X connect 5 0 6 0;
#X connect 6 1 7 0;
#X connect 7 0 8 0;
#X connect 8 0 10 0;
#X connect 11 0 21 0;
#X connect 12 0 11 0;
#X connect 13 0 28 0;
#X connect 13 0 30 0;
#X connect 14 0 11 0;
#X connect 15 0 51 0;
#X connect 17 0 46 0;
#X connect 18 0 25 0;
#X connect 20 0 42 0;
#X connect 21 0 44 0;
#X connect 22 0 21 0;
#X connect 22 1 21 1;
#X connect 24 0 19 0;
#X connect 25 0 24 0;
#X connect 25 0 27 0;
#X connect 26 0 13 1;
#X connect 27 0 26 0;
#X connect 28 0 30 0;
#X connect 29 0 48 0;
#X connect 30 0 0 0;
#X connect 31 0 32 0;
#X connect 31 0 51 1;
#X connect 32 0 35 0;
#X connect 33 0 34 0;
#X connect 33 0 36 0;
#X connect 34 0 37 0;
#X connect 34 1 38 0;
#X connect 37 0 39 0;
#X connect 38 0 39 0;
#X connect 39 0 40 0;
#X connect 40 0 41 0;
#X connect 42 0 22 0;
#X connect 43 0 45 0;
#X connect 43 1 48 1;
#X connect 44 0 4 0;
#X connect 45 0 44 0;
#X connect 45 1 44 1;
#X connect 48 0 55 0;
#X connect 51 0 52 0;
#X connect 52 0 16 0;
#X connect 52 1 53 0;
#X connect 53 0 33 0;
#X connect 54 0 55 1;
#X connect 55 0 13 0;
