#N canvas 645 103 794 675 10;
#X declare -path Fraise -stdpath Fraise;
#X obj 21 16 declare -path Fraise -stdpath Fraise;
#X obj 21 38 pied/pied 0 41424;
#N canvas 602 111 501 630 AXL 0;
#X obj 22 82 axlprocess 1;
#X obj 47 64 axlprocess 2;
#X msg 226 97 R;
#X text 256 95 reset i2c/axl;
#X obj 22 20 fruit/receive AXL;
#X obj 146 116 fruit/send AXL;
#X obj 140 65 s AXL_SEPARATION;
#X obj 140 22 loadbang;
#X msg 140 43 5;
#X obj 206 141 key;
#X obj 206 162 sel 32;
#X obj 206 183 spigot;
#X obj 259 156 tgl 15 0 empty empty empty 17 7 0 10 -262144 -1 -1 0
1;
#X obj 118 188 bng 15 250 50 0 empty empty empty 17 7 0 10 -262144
-1 -1;
#X obj 118 213 axlgraph AXLSLOW2 16;
#X obj 259 213 axlgraph AXLRAW2 16;
#X obj 23 127 r AXLRAW2;
#N canvas 472 92 495 705 attacks 0;
#X obj 20 13 inlet;
#X obj 20 57 unpack f f f;
#X obj 20 34 t a a, f 26;
#X obj 20 78 abs;
#X obj 54 78 abs;
#X obj 89 79 abs;
#X obj 20 119 moses 0, f 14;
#X obj 101 158 t b f, f 6;
#X obj 101 179 list, f 13;
#X obj 101 200 t b l, f 8;
#X obj 128 272 list, f 8;
#X obj 101 242 t b b;
#X obj 185 328 unpack f f f;
#X obj 185 349 abs;
#X obj 219 349 abs;
#X obj 254 349 abs;
#X obj 185 370 max;
#X obj 219 369 max;
#X msg 218 215 3;
#X obj 303 348 unpack f f f;
#X obj 303 369 abs;
#X obj 337 369 abs;
#X obj 372 369 abs;
#X obj 288 432 sel;
#X obj 322 431 sel;
#X obj 357 433 sel;
#X msg 288 453 0;
#X msg 322 452 1;
#X msg 357 454 2;
#X obj 185 391 t b f;
#X obj 128 293 t a a a, f 19;
#X obj 128 542 list split;
#X obj 185 494 f;
#X obj 185 515 t f f, f 10;
#X obj 156 566 list split 1;
#X obj 156 611 pack f f, f 15;
#X msg 156 632 \$2 \$1;
#X obj 156 654 outlet;
#X obj 156 587 / 16;
#X obj 101 221 del 30;
#X connect 0 0 2 0;
#X connect 1 0 3 0;
#X connect 1 1 4 0;
#X connect 1 2 5 0;
#X connect 2 0 1 0;
#X connect 2 1 8 1;
#X connect 3 0 6 0;
#X connect 4 0 6 0;
#X connect 5 0 6 0;
#X connect 6 1 7 0;
#X connect 7 0 8 0;
#X connect 7 1 6 1;
#X connect 8 0 9 0;
#X connect 9 0 39 0;
#X connect 9 1 10 1;
#X connect 10 0 30 0;
#X connect 11 0 18 0;
#X connect 11 1 10 0;
#X connect 12 0 13 0;
#X connect 12 1 14 0;
#X connect 12 2 15 0;
#X connect 13 0 16 0;
#X connect 14 0 17 0;
#X connect 15 0 17 1;
#X connect 16 0 29 0;
#X connect 17 0 16 1;
#X connect 18 0 6 1;
#X connect 19 0 20 0;
#X connect 19 1 21 0;
#X connect 19 2 22 0;
#X connect 20 0 23 1;
#X connect 21 0 24 1;
#X connect 22 0 25 1;
#X connect 23 0 26 0;
#X connect 24 0 27 0;
#X connect 25 0 28 0;
#X connect 26 0 32 1;
#X connect 27 0 32 1;
#X connect 28 0 32 1;
#X connect 29 0 32 0;
#X connect 29 1 23 0;
#X connect 29 1 25 0;
#X connect 29 1 24 0;
#X connect 30 0 31 0;
#X connect 30 1 12 0;
#X connect 30 2 19 0;
#X connect 31 1 34 0;
#X connect 32 0 33 0;
#X connect 33 0 31 1;
#X connect 33 1 35 1;
#X connect 34 0 38 0;
#X connect 35 0 36 0;
#X connect 36 0 37 0;
#X connect 38 0 35 0;
#X connect 39 0 11 0;
#X restore 23 148 pd attacks;
#X obj 269 245 axlgraph AXLFAST2 16;
#X obj 151 298 unpack f f f;
#X obj 185 319 t f f;
#X obj 185 340 *, f 5;
#X obj 224 319 t f f;
#X obj 224 340 *, f 5;
#X obj 185 361 +, f 7;
#X obj 185 382 sqrt;
#X obj 151 410 atan2, f 6;
#X obj 28 322 unpack f f f;
#X obj 62 343 t f f;
#X obj 62 364 *, f 5;
#X obj 101 343 t f f;
#X obj 101 364 *, f 5;
#X obj 62 385 +, f 7;
#X obj 62 406 sqrt;
#X obj 28 434 atan2, f 6;
#X msg 28 298 \$3 \$1 \$2;
#X obj 28 455 clip -0.7 0.7;
#X obj 28 478 / -0.7;
#X obj 28 271 t a a;
#X obj 28 533 pack f f, f 21;
#X obj 23 169 s BAGUETTE_ATTACK;
#X obj 28 250 r AXLSLOW1;
#X obj 106 133 print;
#X obj 293 49 metro 1000;
#X obj 307 21 tgl 15 0 empty empty empty 17 7 0 10 -262144 -1 -1 0
1;
#X obj 395 126 unpack f f f;
#X floatatom 376 165 5 0 0 0 - - -;
#X floatatom 410 157 5 0 0 0 - - -;
#X floatatom 442 170 5 0 0 0 - - -;
#X obj 22 43 route 1 2;
#X obj 28 588 s AXL_ASSIETTE;
#X msg 28 554 \$2 \$1;
#X obj 28 499 clip -1 1;
#X obj 151 504 clip -1 1;
#X floatatom 219 473 5 0 0 0 - - -;
#X floatatom 96 486 5 0 0 0 - - -;
#X obj 151 431 clip -0.5 0.5;
#X obj 151 455 / 0.5;
#X connect 2 0 5 1;
#X connect 4 0 49 0;
#X connect 7 0 8 0;
#X connect 8 0 6 0;
#X connect 9 0 10 0;
#X connect 10 0 11 0;
#X connect 11 0 18 0;
#X connect 11 0 14 0;
#X connect 11 0 15 0;
#X connect 12 0 11 1;
#X connect 13 0 18 0;
#X connect 13 0 14 0;
#X connect 13 0 15 0;
#X connect 16 0 17 0;
#X connect 17 0 40 0;
#X connect 19 0 26 0;
#X connect 19 1 20 0;
#X connect 19 2 22 0;
#X connect 20 0 21 0;
#X connect 20 1 21 1;
#X connect 21 0 24 0;
#X connect 22 0 23 0;
#X connect 22 1 23 1;
#X connect 23 0 24 1;
#X connect 24 0 25 0;
#X connect 25 0 26 1;
#X connect 26 0 56 0;
#X connect 27 0 34 0;
#X connect 27 1 28 0;
#X connect 27 2 30 0;
#X connect 28 0 29 0;
#X connect 28 1 29 1;
#X connect 29 0 32 0;
#X connect 30 0 31 0;
#X connect 30 1 31 1;
#X connect 31 0 32 1;
#X connect 32 0 33 0;
#X connect 33 0 34 1;
#X connect 34 0 36 0;
#X connect 35 0 27 0;
#X connect 36 0 37 0;
#X connect 37 0 52 0;
#X connect 38 0 35 0;
#X connect 38 1 19 0;
#X connect 39 0 51 0;
#X connect 41 0 38 0;
#X connect 43 0 2 0;
#X connect 44 0 43 0;
#X connect 45 0 46 0;
#X connect 45 1 47 0;
#X connect 45 2 48 0;
#X connect 49 0 0 0;
#X connect 49 1 1 0;
#X connect 51 0 50 0;
#X connect 52 0 39 0;
#X connect 53 0 39 1;
#X connect 56 0 57 0;
#X connect 57 0 53 0;
#X restore 23 188 pd AXL;
#X obj 23 134 fruit/fruit 1 AXL 10 fwAxl;
#X text 193 144 Pedales: MB1 MBEN MBPWM MBCS;
#X text 193 175 BoutonRouge: K11 / LED:K12(LED sur Vdd);
#X text 194 131 AXL: K5:SCK K7:SDA (I2C 1);
#X text 193 159 Pots: K1 K2 K3;
#X obj 23 228 fruit/receive AXL;
#X obj 23 249 route s;
#X obj 62 269 analog/parse;
#X obj 350 379 fruit/send2 AXL;
#X obj 437 334 r LEDROUGE;
#X obj 23 633 s BOUTONROUGE;
#X msg 459 379 R;
#X text 485 380 reset I2C;
#X obj 356 513 s POTSELECT;
#X obj 374 493 s POTFX;
#X obj 395 473 s POTVOL;
#X obj 172 288 spigot;
#X floatatom 172 344 5 0 0 0 - - -;
#X floatatom 210 343 5 0 0 0 - - -;
#X floatatom 248 343 5 0 0 0 - - -;
#X obj 205 266 tgl 15 0 empty empty empty 17 7 0 10 -262144 -1 -1 0
1;
#X obj 62 289 unpack f f;
#X obj 62 332 pack f f, f 10;
#X obj 460 418 tgl 15 0 empty empty empty 17 7 0 10 -262144 -1 -1 0
1;
#X msg 437 358 S\$1 \, L\$1;
#X obj 38 404 /;
#X obj 114 412 spigot;
#X obj 114 494 s PP_POS;
#X obj 38 497 s PP_PRESS;
#X obj 275 214 fruit/receive AXL;
#X floatatom 275 257 5 0 0 0 - - -;
#X obj 254 258 bng 15 250 50 0 empty empty empty 17 7 0 10 -262144
-1 -1;
#X msg 524 350 A;
#X text 553 350 reset APDS;
#X obj 275 236 route APDSOK col;
#X obj 363 306 print;
#N canvas 966 267 310 210 16bits 0;
#X obj 68 21 inlet;
#X obj 68 45 list split 2, f 25;
#X obj 68 66 unpack f f;
#X obj 68 87 * 256;
#X obj 68 108 +;
#X obj 68 180 outlet;
#X obj 141 180 outlet;
#X obj 68 129 / 3072;
#X obj 152 93 r color-fullscale;
#X obj 68 150 clip 0 1;
#X floatatom 13 140 5 0 0 0 - - -;
#X connect 0 0 1 0;
#X connect 1 0 2 0;
#X connect 1 1 6 0;
#X connect 2 0 3 0;
#X connect 2 1 4 1;
#X connect 3 0 4 0;
#X connect 4 0 7 0;
#X connect 4 0 10 0;
#X connect 7 0 9 0;
#X connect 8 0 7 1;
#X connect 9 0 5 0;
#X restore 421 213 pd 16bits;
#N canvas 966 267 310 210 16bits 0;
#X obj 68 21 inlet;
#X obj 68 45 list split 2, f 25;
#X obj 68 66 unpack f f;
#X obj 68 87 * 256;
#X obj 68 108 +;
#X obj 68 180 outlet;
#X obj 141 180 outlet;
#X obj 68 129 / 3072;
#X obj 152 93 r color-fullscale;
#X obj 68 150 clip 0 1;
#X connect 0 0 1 0;
#X connect 1 0 2 0;
#X connect 1 1 6 0;
#X connect 2 0 3 0;
#X connect 2 1 4 1;
#X connect 3 0 4 0;
#X connect 4 0 7 0;
#X connect 7 0 9 0;
#X connect 8 0 7 1;
#X connect 9 0 5 0;
#X restore 484 213 pd 16bits;
#N canvas 966 240 310 210 16bits 0;
#X obj 68 21 inlet;
#X obj 68 45 list split 2, f 25;
#X obj 68 66 unpack f f;
#X obj 68 87 * 256;
#X obj 68 108 +;
#X obj 68 180 outlet;
#X obj 141 180 outlet;
#X obj 68 129 / 3072;
#X obj 152 93 r color-fullscale;
#X obj 68 150 clip 0 1;
#X connect 0 0 1 0;
#X connect 1 0 2 0;
#X connect 1 1 6 0;
#X connect 2 0 3 0;
#X connect 2 1 4 1;
#X connect 3 0 4 0;
#X connect 4 0 7 0;
#X connect 7 0 9 0;
#X connect 8 0 7 1;
#X connect 9 0 5 0;
#X restore 549 214 pd 16bits;
#N canvas 966 240 310 210 16bits 0;
#X obj 68 21 inlet;
#X obj 68 45 list split 2, f 25;
#X obj 68 66 unpack f f;
#X obj 68 87 * 256;
#X obj 68 108 +;
#X obj 68 180 outlet;
#X obj 141 180 outlet;
#X obj 68 129 / 3072;
#X obj 152 93 r color-fullscale;
#X obj 68 150 clip 0 1;
#X connect 0 0 1 0;
#X connect 1 0 2 0;
#X connect 1 1 6 0;
#X connect 2 0 3 0;
#X connect 2 1 4 1;
#X connect 3 0 4 0;
#X connect 4 0 7 0;
#X connect 7 0 9 0;
#X connect 8 0 7 1;
#X connect 9 0 5 0;
#X restore 612 214 pd 16bits;
#X obj 534 124 s color-fullscale;
#X obj 638 70 loadbang;
#X msg 534 101 16383;
#X obj 421 234 pack f f f f, f 32;
#X obj 421 255 s COLOR;
#X msg 592 101 8192;
#X obj 640 315 timer;
#X obj 640 294 t b b;
#X floatatom 688 324 5 0 0 0 - - -;
#X obj 640 337 mavg 20;
#X floatatom 640 360 5 0 0 0 - - -;
#X obj 119 310 / 8192;
#X floatatom 662 249 5 0 0 0 - - -;
#X msg 672 101 1024;
#X obj 421 188 route 10 11;
#X obj 457 149 print gesture;
#X obj 701 252 s PROXIMITY;
#N canvas 1 81 840 619 COLORSEP 0;
#X obj 49 51 r COLOR;
#X msg 49 122 \$1 \$2 \$3;
#X obj 49 143 unpack f f f;
#X obj 83 165 +;
#X obj 49 164 /;
#X obj 130 144 unpack f f f;
#X obj 164 166 +;
#X obj 130 165 /;
#X msg 130 125 \$2 \$1 \$3;
#X obj 211 144 unpack f f f;
#X obj 245 166 +;
#X obj 211 165 /;
#X msg 211 125 \$3 \$2 \$1;
#X obj 49 206 clip 0 1;
#X obj 130 208 clip 0 1;
#X obj 211 207 clip 0 1;
#X obj 49 76 t a a a a, f 41;
#X obj 49 236 pack f f f, f 27;
#X obj 49 185 / 1;
#X obj 130 187 / 0.8;
#X obj 259 185 * 1;
#X obj 166 185 * 1;
#X obj 91 186 * 1;
#X obj 211 186 / 0.9;
#X obj 49 257 s COLORSEP;
#X obj 368 78 r COLOR;
#X obj 368 151 * -0.14282;
#X obj 368 234 +, f 6;
#X obj 402 212 +, f 6;
#X obj 402 173 * 1.54924;
#X obj 437 193 * -0.95641;
#X obj 368 122 unpack f f f;
#X obj 368 99 t a a a, f 49;
#X obj 513 235 +, f 6;
#X obj 547 214 +, f 6;
#X obj 513 124 unpack f f f;
#X obj 659 236 +, f 6;
#X obj 693 214 +, f 6;
#X obj 659 124 unpack f f f;
#X obj 513 153 * -0.32466;
#X obj 659 153 * -0.68202;
#X obj 547 175 * 1.57837;
#X obj 582 195 * -0.73191;
#X obj 693 175 * 0.77073;
#X obj 728 195 * 0.56332;
#X obj 368 257 pack f f f, f 49;
#X obj 368 278 t a a, f 17;
#X obj 368 299 unpack f f f;
#X obj 467 298 unpack f f f;
#X obj 467 319 +;
#X obj 501 318 +, f 6;
#X obj 368 346 /;
#X obj 429 345 /;
#X obj 368 367 - 0.332;
#X obj 429 387 + 0.1858;
#X obj 429 366 * -1;
#X obj 368 388 /;
#X obj 368 409 t f f f, f 28;
#X obj 368 432 t f f;
#X obj 368 454 *;
#X obj 368 474 *;
#X obj 368 495 * 449;
#X obj 450 429 t f f;
#X obj 450 451 *;
#X obj 450 492 * 3525;
#X obj 533 490 * 6823.3;
#X obj 450 513 +;
#X obj 368 516 +;
#X obj 368 537 + 5520;
#X floatatom 362 563 7 0 0 0 - - -;
#X connect 1 0 2 0;
#X connect 2 0 4 0;
#X connect 2 1 3 0;
#X connect 2 2 3 1;
#X connect 3 0 22 0;
#X connect 4 0 18 0;
#X connect 5 0 7 0;
#X connect 5 1 6 0;
#X connect 5 2 6 1;
#X connect 6 0 21 0;
#X connect 7 0 19 0;
#X connect 8 0 5 0;
#X connect 9 0 11 0;
#X connect 9 1 10 0;
#X connect 9 2 10 1;
#X connect 10 0 20 0;
#X connect 11 0 23 0;
#X connect 12 0 9 0;
#X connect 13 0 17 0;
#X connect 14 0 17 1;
#X connect 15 0 17 2;
#X connect 16 0 1 0;
#X connect 16 1 8 0;
#X connect 16 2 12 0;
#X connect 17 0 24 0;
#X connect 18 0 13 0;
#X connect 19 0 14 0;
#X connect 20 0 11 1;
#X connect 21 0 7 1;
#X connect 22 0 4 1;
#X connect 23 0 15 0;
#X connect 26 0 27 0;
#X connect 27 0 45 0;
#X connect 28 0 27 1;
#X connect 29 0 28 0;
#X connect 30 0 28 1;
#X connect 31 0 26 0;
#X connect 31 1 29 0;
#X connect 31 2 30 0;
#X connect 32 0 31 0;
#X connect 32 1 35 0;
#X connect 32 2 38 0;
#X connect 33 0 45 1;
#X connect 34 0 33 1;
#X connect 35 0 39 0;
#X connect 35 1 41 0;
#X connect 35 2 42 0;
#X connect 36 0 45 2;
#X connect 37 0 36 1;
#X connect 38 0 40 0;
#X connect 38 1 43 0;
#X connect 38 2 44 0;
#X connect 39 0 33 0;
#X connect 40 0 36 0;
#X connect 41 0 34 0;
#X connect 42 0 34 1;
#X connect 43 0 37 0;
#X connect 44 0 37 1;
#X connect 45 0 46 0;
#X connect 46 0 47 0;
#X connect 46 1 48 0;
#X connect 47 0 51 0;
#X connect 47 1 52 0;
#X connect 48 0 49 0;
#X connect 48 1 50 0;
#X connect 48 2 50 1;
#X connect 49 0 51 1;
#X connect 49 0 52 1;
#X connect 50 0 49 1;
#X connect 51 0 53 0;
#X connect 52 0 55 0;
#X connect 53 0 56 0;
#X connect 54 0 56 1;
#X connect 55 0 54 0;
#X connect 56 0 57 0;
#X connect 57 0 58 0;
#X connect 57 1 62 0;
#X connect 57 2 65 0;
#X connect 58 0 59 0;
#X connect 58 1 59 1;
#X connect 58 1 60 1;
#X connect 59 0 60 0;
#X connect 60 0 61 0;
#X connect 61 0 67 0;
#X connect 62 0 63 0;
#X connect 62 1 63 1;
#X connect 63 0 64 0;
#X connect 64 0 66 0;
#X connect 65 0 66 1;
#X connect 66 0 67 1;
#X connect 67 0 68 0;
#X connect 68 0 69 0;
#X restore 424 277 pd COLORSEP;
#X msg 638 100 2048;
#X obj 62 353 route 0 1 2 3 4 5 6;
#X obj 356 452 route 0 1 2 3;
#X obj 23 523 route 0 1 2;
#X obj 44 548 tgl 15 0 empty empty empty 17 7 0 10 -262144 -1 -1 0
1;
#X obj 73 547 tgl 15 0 empty empty empty 17 7 0 10 -262144 -1 -1 0
1;
#X floatatom 285 343 5 0 0 0 - - -;
#X obj 172 309 route 3 4 5 6, f 20;
#X obj 283 402 s POTVOL;
#X obj 337 405 s POTSELECT;
#X obj 230 403 s POTFX;
#X obj 159 405 s POTSPEED;
#X obj 612 419 list split 3;
#X obj 612 442 RGBtoHue;
#X obj 612 490 HuetoRGB;
#X obj 618 511 s COLORNORM;
#X obj 619 465 s COLORHUE;
#X obj 612 397 r COLOR;
#X obj 701 231 / 50;
#X obj 44 568 * 1;
#X obj 44 589 +;
#X obj 73 567 * 2;
#X obj 73 588 t b f;
#X obj 44 610 s BOUTONMODE;
#X obj 38 475 clip 0 1;
#X obj 38 425 / 0.85;
#X obj 75 406 > 0.1;
#X obj 38 446 - 0.05;
#X msg 114 433 1 \$1;
#X obj 114 454 -;
#X obj 114 475 clip 0 1;
#X obj 146 561 loadbang;
#X msg 146 583 0;
#X connect 8 0 9 0;
#X connect 9 0 64 0;
#X connect 9 1 10 0;
#X connect 10 0 19 0;
#X connect 10 0 24 0;
#X connect 12 0 27 0;
#X connect 14 0 11 1;
#X connect 19 0 68 0;
#X connect 23 0 19 1;
#X connect 24 0 25 0;
#X connect 24 1 54 0;
#X connect 25 0 62 0;
#X connect 27 0 11 1;
#X connect 28 0 86 0;
#X connect 29 0 89 0;
#X connect 32 0 37 0;
#X connect 32 0 57 0;
#X connect 35 0 11 1;
#X connect 37 0 33 0;
#X connect 37 0 34 0;
#X connect 39 0 46 0;
#X connect 39 1 40 0;
#X connect 40 0 46 1;
#X connect 40 1 41 0;
#X connect 41 0 46 2;
#X connect 41 1 42 0;
#X connect 42 0 46 3;
#X connect 42 1 79 0;
#X connect 44 0 61 0;
#X connect 45 0 43 0;
#X connect 46 0 47 0;
#X connect 48 0 43 0;
#X connect 49 0 52 0;
#X connect 50 0 49 0;
#X connect 50 1 49 1;
#X connect 52 0 53 0;
#X connect 54 0 25 1;
#X connect 56 0 43 0;
#X connect 57 0 39 0;
#X connect 57 1 58 0;
#X connect 61 0 43 0;
#X connect 62 0 28 1;
#X connect 62 1 28 0;
#X connect 62 1 87 0;
#X connect 62 2 29 0;
#X connect 62 3 72 0;
#X connect 62 4 71 0;
#X connect 62 5 69 0;
#X connect 62 6 70 0;
#X connect 63 0 16 0;
#X connect 63 1 17 0;
#X connect 63 2 18 0;
#X connect 64 0 13 0;
#X connect 64 1 65 0;
#X connect 64 2 66 0;
#X connect 65 0 80 0;
#X connect 66 0 82 0;
#X connect 68 0 20 0;
#X connect 68 1 21 0;
#X connect 68 2 22 0;
#X connect 68 3 67 0;
#X connect 73 0 74 0;
#X connect 74 0 75 0;
#X connect 74 0 77 0;
#X connect 75 0 76 0;
#X connect 78 0 73 0;
#X connect 79 0 59 0;
#X connect 80 0 81 0;
#X connect 81 0 84 0;
#X connect 82 0 83 0;
#X connect 83 0 81 0;
#X connect 83 1 81 1;
#X connect 85 0 31 0;
#X connect 86 0 88 0;
#X connect 87 0 29 1;
#X connect 88 0 85 0;
#X connect 89 0 90 0;
#X connect 90 0 91 0;
#X connect 91 0 30 0;
#X connect 92 0 93 0;
#X connect 93 0 84 0;
