#N canvas 1 81 396 454 10;
#X obj 37 37 inlet;
#X obj 37 58 t f f, f 13;
#X obj 37 82 div 60;
#X obj 37 103 mod 6;
#X obj 37 124 t f f;
#X obj 64 144 * -1;
#X obj 64 165 +;
#X obj 64 186 t f f;
#X obj 90 204 * -1;
#X obj 90 225 + 1;
#X obj 37 249 pack f f f;
#X obj 37 270 route 0 1 2 3 4 5, f 47;
#X msg 269 300 1 0 \$2;
#X msg 223 300 \$1 0 1;
#X msg 176 300 0 \$2 1;
#X msg 130 300 0 1 \$1;
#X msg 83 300 \$2 1 0;
#X msg 37 300 1 \$1 0;
#X obj 112 81 / 60;
#X obj 37 345 outlet;
#X connect 0 0 1 0;
#X connect 1 0 2 0;
#X connect 1 1 18 0;
#X connect 2 0 3 0;
#X connect 3 0 4 0;
#X connect 4 0 10 0;
#X connect 4 1 5 0;
#X connect 5 0 6 0;
#X connect 6 0 7 0;
#X connect 7 0 10 1;
#X connect 7 1 8 0;
#X connect 8 0 9 0;
#X connect 9 0 10 2;
#X connect 10 0 11 0;
#X connect 11 0 17 0;
#X connect 11 1 16 0;
#X connect 11 2 15 0;
#X connect 11 3 14 0;
#X connect 11 4 13 0;
#X connect 11 5 12 0;
#X connect 12 0 19 0;
#X connect 13 0 19 0;
#X connect 14 0 19 0;
#X connect 15 0 19 0;
#X connect 16 0 19 0;
#X connect 17 0 19 0;
#X connect 18 0 6 1;
