#N canvas 195 118 701 650 10;
#X msg 315 36 1;
#X obj 315 150 text get;
#X obj 315 57 t b f;
#X msg 360 129 symbol noteprops-\$1;
#X msg 315 127 0;
#X symbolatom 315 171 10 0 0 0 - - -;
#X obj 499 152 tabread;
#X msg 499 130 set notelength-\$1 \, 0;
#X obj 390 247 table \$0-desttable 515;
#X obj 167 532 tabwrite~ \$0-desttable;
#X obj 342 77 s \$0-bank;
#X obj 499 110 r \$0-bank;
#X obj 360 110 r \$0-bank;
#X obj 499 173 s \$0-numsamples;
#X text 312 20 bank;
#X msg 86 49 1;
#X obj 86 169 tabread;
#X obj 102 123 r \$0-bank;
#X msg 102 143 set notelength-\$1;
#X floatatom 47 200 5 0 0 0 - - -;
#X msg 167 258 515;
#X msg 218 257 1027;
#X obj 167 214 t f f, f 15;
#X obj 34 12 hradio 15 1 0 7 empty empty empty 0 -8 0 10 -262144 -1
-1 6;
#X obj 34 32 + 1;
#X floatatom 34 53 5 0 0 0 - - -;
#X obj 167 278 t f f;
#X msg 194 325 resize \$1;
#X obj 194 346 s \$0-desttable;
#X obj 167 300 pack f f, f 15;
#X obj 167 370 unpack f f;
#X obj 167 391 / 44.1;
#X obj 167 414 pack f f;
#X msg 167 456 0 \, \$2 \$1;
#X obj 167 435 t a b, f 13;
#X obj 167 477 line~;
#X obj 340 433 r \$0-bank;
#X obj 86 77 t f f;
#X obj 113 99 s \$0-sample;
#X obj 265 434 r \$0-sample;
#X obj 265 455 pack f f, f 13;
#X msg 265 476 set NT-\$2-\$1;
#X obj 167 506 tabread4~;
#X msg 347 35 2;
#X obj 254 259 - 2;
#X msg 433 346 \$1;
#X obj 433 367 + 50;
#X obj 433 388 del;
#X obj 86 193 sel 515 1027 0;
#X obj 315 191 s \$0-bankpath;
#X obj 461 458 r \$0-bankpath;
#X obj 448 433 r \$0-sample;
#X obj 433 459 f;
#X obj 433 501 list prepend \$0-desttable;
#X obj 433 545 soundfiler;
#X obj 549 457 r NOTEBANK-DATASDIR;
#X obj 433 480 pack f s s;
#X obj 433 409 spigot;
#X obj 478 387 tgl 15 0 empty empty empty 17 7 0 10 -262144 -1 -1 1
1;
#X msg 433 522 write -normalize \$4/\$3/\$2.wav \$1;
#X msg 77 236 515;
#X msg 108 236 1027;
#X floatatom 77 257 5 0 0 0 - - -;
#X obj 62 278 f;
#X obj 167 236 moses 520;
#X obj 47 244 bng 15 250 50 0 empty empty empty 17 7 0 10 -262144 -1
-1;
#X obj 413 13 hradio 15 1 0 7 empty empty empty 0 -8 0 10 -262144 -1
-1 6;
#X obj 413 33 + 1;
#X floatatom 413 54 5 0 0 0 - - -;
#X obj 413 416 bng 15 250 50 0 empty empty empty 17 7 0 10 -262144
-1 -1;
#X connect 0 0 2 0;
#X connect 1 0 5 0;
#X connect 2 0 4 0;
#X connect 2 1 10 0;
#X connect 3 0 1 3;
#X connect 4 0 1 0;
#X connect 5 0 49 0;
#X connect 6 0 13 0;
#X connect 7 0 6 0;
#X connect 11 0 7 0;
#X connect 12 0 3 0;
#X connect 15 0 37 0;
#X connect 16 0 19 0;
#X connect 16 0 48 0;
#X connect 17 0 18 0;
#X connect 18 0 16 0;
#X connect 20 0 26 0;
#X connect 21 0 26 0;
#X connect 22 0 64 0;
#X connect 22 1 44 0;
#X connect 23 0 24 0;
#X connect 24 0 25 0;
#X connect 25 0 37 0;
#X connect 26 0 29 0;
#X connect 26 1 27 0;
#X connect 27 0 28 0;
#X connect 29 0 30 0;
#X connect 30 0 31 0;
#X connect 30 1 32 1;
#X connect 31 0 32 0;
#X connect 32 0 34 0;
#X connect 33 0 35 0;
#X connect 34 0 33 0;
#X connect 34 0 45 0;
#X connect 34 1 9 0;
#X connect 35 0 42 0;
#X connect 36 0 40 1;
#X connect 37 0 16 0;
#X connect 37 1 38 0;
#X connect 39 0 40 0;
#X connect 40 0 41 0;
#X connect 41 0 42 0;
#X connect 42 0 9 0;
#X connect 43 0 2 0;
#X connect 44 0 29 1;
#X connect 45 0 46 0;
#X connect 46 0 47 0;
#X connect 47 0 57 0;
#X connect 47 0 69 0;
#X connect 48 0 60 0;
#X connect 48 1 61 0;
#X connect 48 3 22 0;
#X connect 50 0 56 1;
#X connect 51 0 52 1;
#X connect 52 0 56 0;
#X connect 53 0 59 0;
#X connect 55 0 56 2;
#X connect 56 0 53 0;
#X connect 57 0 52 0;
#X connect 58 0 57 1;
#X connect 59 0 54 0;
#X connect 60 0 62 0;
#X connect 61 0 62 0;
#X connect 62 0 63 1;
#X connect 63 0 22 0;
#X connect 64 0 20 0;
#X connect 64 1 21 0;
#X connect 65 0 63 0;
#X connect 66 0 67 0;
#X connect 67 0 68 0;
#X connect 68 0 2 0;
