#N canvas 1 81 431 559 10;
#X obj 55 19 inlet;
#X obj 55 66 unpack f f f;
#X obj 55 87 t f f;
#X obj 55 108 <;
#X obj 82 108 <;
#X obj 112 107 <;
#X obj 55 170 +;
#X obj 82 131 * 2;
#X obj 82 152 +;
#X obj 112 128 * 4;
#X floatatom 89 176 5 0 0 0 - - -;
#X obj 55 201 sel 0 1 2 3 4 5 6 7;
#X msg 55 232 0;
#X msg 84 232 1;
#X msg 114 232 2;
#X obj 262 93 unpack f f f;
#X obj 262 114 min;
#X obj 296 112 min;
#X obj 55 42 t a a a, f 35;
#X obj 55 302 list append, f 35;
#X obj 55 325 route 0 1 2, f 48;
#X msg 55 350 \$2 \$3 \$1 \$4;
#X obj 55 371 unpack f f f f;
#X obj 55 392 -, f 5;
#X obj 109 391 -, f 5;
#X obj 55 413 /, f 9;
#X obj 55 434 * 60;
#X obj 55 455 + 360;
#X obj 151 371 unpack f f f f;
#X obj 151 392 -, f 5;
#X obj 205 391 -, f 5;
#X obj 151 413 /, f 9;
#X obj 151 434 * 60;
#X obj 248 373 unpack f f f f;
#X obj 248 394 -, f 5;
#X obj 302 393 -, f 5;
#X obj 248 415 /, f 9;
#X obj 248 436 * 60;
#X obj 151 455 + 120;
#X msg 248 352 \$1 \$2 \$3 \$4;
#X obj 248 457 + 240;
#X obj 55 488 mod 360;
#X obj 55 260 f;
#X obj 55 281 list append, f 18;
#X msg 151 350 \$3 \$1 \$2 \$4;
#X obj 55 509 outlet;
#X connect 0 0 18 0;
#X connect 1 0 2 0;
#X connect 1 1 3 1;
#X connect 1 1 5 0;
#X connect 1 2 4 1;
#X connect 1 2 5 1;
#X connect 2 0 3 0;
#X connect 2 1 4 0;
#X connect 3 0 6 0;
#X connect 4 0 7 0;
#X connect 5 0 9 0;
#X connect 6 0 11 0;
#X connect 7 0 8 0;
#X connect 8 0 6 1;
#X connect 9 0 8 1;
#X connect 11 0 12 0;
#X connect 11 1 13 0;
#X connect 11 3 13 0;
#X connect 11 4 12 0;
#X connect 11 6 14 0;
#X connect 11 7 14 0;
#X connect 12 0 42 0;
#X connect 13 0 42 0;
#X connect 14 0 42 0;
#X connect 15 0 16 0;
#X connect 15 1 17 0;
#X connect 15 2 17 1;
#X connect 16 0 19 1;
#X connect 17 0 16 1;
#X connect 18 0 1 0;
#X connect 18 1 43 1;
#X connect 18 2 15 0;
#X connect 19 0 20 0;
#X connect 20 0 21 0;
#X connect 20 1 44 0;
#X connect 20 2 39 0;
#X connect 21 0 22 0;
#X connect 22 0 23 0;
#X connect 22 1 23 1;
#X connect 22 2 24 0;
#X connect 22 3 24 1;
#X connect 23 0 25 0;
#X connect 24 0 25 1;
#X connect 25 0 26 0;
#X connect 26 0 27 0;
#X connect 27 0 41 0;
#X connect 28 0 29 0;
#X connect 28 1 29 1;
#X connect 28 2 30 0;
#X connect 28 3 30 1;
#X connect 29 0 31 0;
#X connect 30 0 31 1;
#X connect 31 0 32 0;
#X connect 32 0 38 0;
#X connect 33 0 34 0;
#X connect 33 1 34 1;
#X connect 33 2 35 0;
#X connect 33 3 35 1;
#X connect 34 0 36 0;
#X connect 35 0 36 1;
#X connect 36 0 37 0;
#X connect 37 0 40 0;
#X connect 38 0 41 0;
#X connect 39 0 33 0;
#X connect 40 0 41 0;
#X connect 41 0 45 0;
#X connect 42 0 43 0;
#X connect 43 0 19 0;
#X connect 44 0 28 0;
