#N canvas 906 244 753 631 10;
#X declare -stdpath iemlib -lib iemlib1 -path ../domoTools/gammabs;
#X obj 32 237 line~;
#X obj 81 310 + 1;
#X obj 32 42 r \$2-MAINNOTE;
#X obj 116 190 noise~;
#X obj 81 286 r \$2-VOICE-WFA;
#X obj 183 393 tabosc4~ NT-1-1;
#X obj 34 393 tabosc4~ NT-1-1;
#X obj 33 326 +~;
#X obj 207 314 + 1;
#X obj 208 414 r \$2-VOICE-WFVOLB;
#X obj 33 464 mull~ 1 2;
#X obj 183 466 mull~ 1 2;
#X obj 58 413 r \$2-VOICE-WFVOLA;
#X obj 207 290 r \$2-VOICE-WFB;
#X obj 208 441 pow 2;
#X obj 58 439 pow 2;
#X floatatom 154 99 5 0 0 0 - - - 0;
#X obj 7 8 declare -stdpath iemlib -lib iemlib1 -path ../domoTools/gammabs, f 65;
#X obj 32 172 gammeRound /GAMME 4;
#X obj 116 211 lop~ 1;
#X obj 116 231 lop~ 1;
#X obj 116 252 *~ 50;
#X obj 81 331 pack f 1;
#X msg 81 367 set NT-\$2-\$1;
#X obj 207 335 pack f 1;
#X msg 207 371 set NT-\$2-\$1;
#X obj 396 205 loadbang;
#X obj 396 226 f \$1;
#X obj 396 247 mod 6;
#X obj 396 268 + 1;
#X obj 288 36 r \$2-voicectl;
#X obj 288 57 route -1 \$1;
#X obj 288 84 t a;
#X obj 32 140 +;
#X obj 47 116 t b f;
#X obj 432 324 r \$2-richness;
#X obj 432 345 - \$1;
#X obj 432 387 clip 0 1;
#X obj 33 543 throw~ \$2-VOICEOUT;
#X obj 432 408 change;
#X obj 432 366 + 0;
#X obj 33 507 mull~ 0 10, f 74;
#X obj 32 63 pipe 0;
#X obj 238 240 r~ \$2-vibrato;
#X obj 288 105 route autotune transpose portamento detune detunespeed delay gamme;
#X msg 87 138 set \$1;
#X obj 507 151 symbol;
#X obj 332 202 noise~;
#X obj 332 225 lop~ 0.5;
#X obj 32 273 mtof~;
#X obj 332 248 *~ 20;
#X obj 32 216 pack f 15;
#X connect 0 0 49 0;
#X connect 1 0 22 0;
#X connect 2 0 42 0;
#X connect 3 0 19 0;
#X connect 4 0 1 0;
#X connect 5 0 11 0;
#X connect 6 0 10 0;
#X connect 7 0 6 0;
#X connect 7 0 5 0;
#X connect 8 0 24 0;
#X connect 9 0 14 0;
#X connect 10 0 41 0;
#X connect 11 0 41 0;
#X connect 12 0 15 0;
#X connect 13 0 8 0;
#X connect 14 0 11 1;
#X connect 15 0 10 1;
#X connect 16 0 18 1;
#X connect 18 0 51 0;
#X connect 19 0 20 0;
#X connect 20 0 21 0;
#X connect 21 0 7 0;
#X connect 22 0 23 0;
#X connect 23 0 6 0;
#X connect 24 0 25 0;
#X connect 25 0 5 0;
#X connect 26 0 27 0;
#X connect 27 0 28 0;
#X connect 28 0 29 0;
#X connect 29 0 24 1;
#X connect 29 0 22 1;
#X connect 30 0 31 0;
#X connect 31 0 32 0;
#X connect 31 1 32 0;
#X connect 32 0 44 0;
#X connect 33 0 18 0;
#X connect 34 0 33 0;
#X connect 34 1 33 1;
#X connect 35 0 36 0;
#X connect 36 0 40 0;
#X connect 37 0 39 0;
#X connect 39 0 41 1;
#X connect 40 0 37 0;
#X connect 41 0 38 0;
#X connect 42 0 33 0;
#X connect 43 0 7 0;
#X connect 44 0 18 1;
#X connect 44 1 34 0;
#X connect 44 2 51 1;
#X connect 44 3 21 1;
#X connect 44 4 20 1;
#X connect 44 4 19 1;
#X connect 44 5 42 1;
#X connect 44 6 46 0;
#X connect 45 0 18 0;
#X connect 46 0 45 0;
#X connect 47 0 48 0;
#X connect 48 0 50 0;
#X connect 49 0 7 0;
#X connect 50 0 49 0;
#X connect 51 0 0 0;
