#N canvas 110 558 351 424 10;
#X declare -path ../domoTools/gammabs;
#X declare -path ../domoTools/domonet;
#X declare -path ../domoTools/notebank;
#X declare -path ../domoTools/effects;
#X declare -path ../domoTools/rhythmic;
#X declare -path ../domoTools/song;
#X declare -path iemlib -lib iemlib;
#X declare -stdpath motex -path motex -lib motex -path ggee -lib ggee -path moonlib -path AutoPreset -lib zexy -path zexy;
#X obj 25 11 fraise_interface;
#X obj 25 174 bng 50 50 50 0 empty empty empty 17 7 0 10 #fcfcfc #000000 #000000;
#X obj 102 181 r /BPM;
#X floatatom 102 203 5 0 0 0 - - - 0;
#X obj 67 80 r TEMPOLED;
#X obj 25 230 GAMMEKBV /GAMME;
#X obj 25 294 GAMMEKBV /CHORD;
#N canvas 265 359 551 488 notebanks 0;
#X obj 227 191 s NOTEBANK-LOADTABLES;
#X obj 254 169 s NOTEBANK-DATASDIR;
#X obj 227 125 r DATASDIR;
#X obj 227 146 t b a;
#X obj 143 199 accorder;
#X obj 143 220 dac~;
#X obj 108 361 dac~;
#X obj 340 406 s PLAYER1;
#X text 268 424 play PLAYER_VOICENB BANK_NB NOTE_NB [KEY];
#X floatatom 340 231 5 0 0 0 - - - 0;
#X msg 340 385 play \$1 \$2 \$3 0;
#X obj 340 252 t b f, f 10;
#X obj 340 273 i;
#X obj 340 294 + 1;
#X obj 340 336 pack f 1 f;
#X msg 340 357 \$1 \$2 \$3;
#X msg 462 190 1;
#X msg 463 232 3;
#X floatatom 453 367 5 0 0 0 - - - 0;
#X msg 453 387 transpose \$1;
#X obj 119 326 *~ 0.4;
#X msg 463 210 2;
#X obj 471 316 getnbnotes;
#X obj 430 280 f;
#X floatatom 471 337 5 0 0 0 - - - 0;
#X obj 119 304 clone noteplayer 2 PLAYER1;
#X obj 340 315 mod 2;
#X obj 63 52 notebank 1 17 CollectionAlarmeVoix;
#X obj 63 72 notebank 2 14 CollectionAlarmeWav;
#X obj 62 91 notebank 3 4 CollectionASMR;
#X obj 64 132 notebank 5 2 EssuieGlace;
#X obj 63 112 notebank 4 4 Clignote;
#X connect 2 0 3 0;
#X connect 3 0 0 0;
#X connect 3 1 1 0;
#X connect 4 0 5 0;
#X connect 4 0 5 1;
#X connect 9 0 11 0;
#X connect 10 0 7 0;
#X connect 11 0 12 0;
#X connect 11 1 14 2;
#X connect 12 0 13 0;
#X connect 13 0 26 0;
#X connect 14 0 15 0;
#X connect 15 0 10 0;
#X connect 16 0 23 0;
#X connect 17 0 23 0;
#X connect 18 0 19 0;
#X connect 19 0 7 0;
#X connect 20 0 6 0;
#X connect 20 0 6 1;
#X connect 21 0 23 0;
#X connect 22 0 24 0;
#X connect 23 0 22 0;
#X connect 23 0 14 1;
#X connect 25 0 20 0;
#X connect 26 0 12 1;
#X connect 26 0 14 0;
#X restore 26 371 pd notebanks;
#N canvas 399 358 625 384 General 0;
#X obj 26 94 getenv HOME;
#X obj 245 117 bng 15 250 50 0 empty empty empty 17 7 0 10 #fcfcfc #000000 #000000;
#X symbolatom 26 115 10 0 0 0 - - - 0;
#X obj 245 179 s DATASDIR;
#X obj 245 96 loadbang;
#X obj 411 49 loadbang;
#X msg 411 70 \; pd dsp 1;
#X obj 480 179 s /GAMME;
#X msg 480 159 2741;
#X obj 417 179 s /CHORD;
#X msg 417 161 145;
#X obj 426 108 loadbang;
#X msg 386 127 1;
#X obj 27 217 bng 15 250 50 0 empty empty empty 17 7 0 10 #fc0400 #000000 #000000;
#X msg 218 246 symbol test1;
#X obj 85 248 s /UNLOCKSNAP;
#X obj 85 229 tgl 15 0 empty empty empty 17 7 0 10 #fcfcfc #000000 #000000 0 1;
#X msg 300 246 symbol test2;
#X obj 218 267 s /SONG;
#X obj 27 271 songMaster SONGS SETTINGS;
#X obj 27 247 5clicks;
#X msg 26 135 symbol \$1/Datas/Domozic/Baguettes;
#N canvas 588 177 450 300 declares 1;
#X obj 29 80 declare -path ../domoTools/gammabs;
#X obj 29 98 declare -path ../domoTools/domonet;
#X obj 29 116 declare -path ../domoTools/notebank;
#X obj 29 134 declare -path ../domoTools/effects;
#X obj 29 153 declare -path ../domoTools/rhythmic;
#X obj 29 171 declare -path ../domoTools/song;
#X obj 28 57 declare -path iemlib -lib iemlib;
#X obj 29 20 declare -stdpath motex -path motex -lib motex -path ggee -lib ggee -path moonlib -path AutoPreset -lib zexy -path zexy, f 63;
#X restore 27 9 pd declares;
#X obj 245 135 getdir;
#X msg 245 157 symbol \$1/WAVS;
#X obj 27 31 domonet PCsecu;
#X connect 0 0 2 0;
#X connect 1 0 23 0;
#X connect 2 0 21 0;
#X connect 4 0 1 0;
#X connect 5 0 6 0;
#X connect 8 0 7 0;
#X connect 10 0 9 0;
#X connect 11 0 10 0;
#X connect 11 0 8 0;
#X connect 12 0 9 0;
#X connect 12 0 7 0;
#X connect 13 0 20 0;
#X connect 14 0 18 0;
#X connect 16 0 15 0;
#X connect 17 0 18 0;
#X connect 20 0 19 0;
#X connect 21 0 3 0;
#X connect 23 0 24 0;
#X connect 24 0 3 0;
#X restore 25 32 pd General;
#X obj 67 103 tgl 15 0 empty empty empty 17 7 0 10 #fcfcfc #000000 #000000 0 1;
#X msg 67 125 TEMPO \$1;
#X obj 67 146 s LEDS;
#X obj 167 184 annonce;
#N canvas 305 380 592 299 MASTER 0;
#X obj 120 159 limiter~;
#X obj 80 160 z~ 64;
#X obj 78 22 catch~ master;
#X obj 80 181 *~;
#X obj 74 222 dac~;
#X obj 172 24 catch~ reverb;
#X obj 378 179 pow 2;
#X msg 378 201 \$1 20;
#X obj 378 222 line~;
#X obj 311 45 r ANALOGS;
#X obj 171 46 rev2~ 100 92 2000 20;
#X obj 262 181 catch~ mastersecu;
#X obj 311 115 s SECUVOL;
#X obj 378 158 r SECUVOL;
#X obj 262 202 *~;
#X obj 452 149 hsl 128 15 0 1 0 0 empty empty empty -2 -8 0 10 #fcfcfc #000000 #000000 0 1;
#X obj 311 75 route SECU2;
#X obj 79 98 hip~ 30;
#X obj 186 241 env~;
#X floatatom 186 262 5 0 0 0 - - - 0;
#X obj 79 124 *~ 1;
#X connect 0 0 3 1;
#X connect 1 0 3 0;
#X connect 2 0 17 0;
#X connect 3 0 4 0;
#X connect 3 0 4 1;
#X connect 3 0 18 0;
#X connect 5 0 10 0;
#X connect 6 0 7 0;
#X connect 7 0 8 0;
#X connect 8 0 14 1;
#X connect 9 0 16 0;
#X connect 10 0 17 0;
#X connect 11 0 14 0;
#X connect 13 0 6 0;
#X connect 14 0 17 0;
#X connect 15 0 6 0;
#X connect 16 0 12 0;
#X connect 17 0 20 0;
#X connect 18 0 19 0;
#X connect 20 0 0 0;
#X connect 20 0 1 0;
#X restore 25 53 pd MASTER;
#X obj 25 152 sel 1;
#X obj 168 208 electrocut;
#X obj 168 239 alarmDigital ALDIG BLUE1;
#X obj 168 261 alarmVoix ALVOX RED1;
#X obj 168 287 ASMR ASMR BLUE2;
#X obj 168 309 rhythm RHYTHM RED2;
#N canvas 0 0 487 425 INPUT_MIC 0;
#X obj 62 11 adc~;
#X obj 103 323 limiter~;
#X obj 63 324 z~ 64;
#X obj 63 345 *~;
#X obj 62 34 hp4_butt~ 80;
#X obj 214 144 hip~ 6000;
#X obj 138 146 bs2~ 3000 2;
#X obj 279 166 *~ 12;
#X obj 280 145 bp~ 7000 20;
#X obj 62 58 +~;
#X obj 62 241 +~;
#X obj 81 169 *~ 20;
#X obj 56 116 lop~ 50;
#X obj 215 166 *~ 16;
#X obj 62 265 bs2~ 3320 6;
#X obj 63 288 *~ 0.2;
#X obj 357 142 bp~ 5500 15;
#X obj 356 163 *~ 2;
#X obj 81 148 lop~ 100;
#X obj 64 368 s~ MICRO;
#X connect 0 0 4 0;
#X connect 1 0 3 1;
#X connect 2 0 3 0;
#X connect 3 0 19 0;
#X connect 4 0 9 0;
#X connect 5 0 13 0;
#X connect 6 0 10 0;
#X connect 7 0 10 0;
#X connect 8 0 7 0;
#X connect 9 0 8 0;
#X connect 9 0 6 0;
#X connect 9 0 5 0;
#X connect 9 0 12 0;
#X connect 9 0 16 0;
#X connect 9 0 18 0;
#X connect 10 0 14 0;
#X connect 11 0 10 0;
#X connect 12 0 11 0;
#X connect 13 0 10 0;
#X connect 14 0 15 0;
#X connect 15 0 1 0;
#X connect 15 0 2 0;
#X connect 16 0 17 0;
#X connect 17 0 10 0;
#X connect 18 0 11 0;
#X restore 90 53 pd INPUT_MIC;
#X connect 2 0 3 0;
#X connect 4 0 9 0;
#X connect 9 0 10 0;
#X connect 9 0 14 0;
#X connect 10 0 11 0;
#X connect 14 0 1 0;
