#N canvas 648 59 696 953 10;
#X declare -stdpath iemlib -lib iemlib1;
#X declare -path ../domoTools/gammabs;
#X declare -path ../domoTools/domonet;
#X declare -path ../domoTools/notebank;
#X declare -path ../domoTools/effects;
#X declare -path ../domoTools/rhythmic;
#X declare -path ../domoTools/song;
#X declare -stdpath motex -path motex -lib motex -path ggee -lib ggee -path moonlib -path AutoPreset -stdpath AutoPreset;
#X obj 56 166 getnbnotes;
#X floatatom 56 187 5 0 0 0 - - - 0;
#X obj 152 9 secu_interface \$1 \$2;
#X obj 29 80 r \$1-ON;
#X obj 152 83 r \$1SELECT;
#X obj 294 81 r \$1DIST1;
#X obj 410 83 r \$1DIST2;
#X obj 29 101 t f f;
#X obj 56 122 sel 1;
#X obj 225 157 *;
#X obj 225 178 i;
#X obj 155 30 hsl 128 15 0 1 0 0 empty empty empty -2 -8 0 10 #fcfcfc #000000 #000000 0 1;
#X obj 152 53 s \$1SELECT;
#X obj 297 28 hsl 128 15 0 1 0 0 empty empty empty -2 -8 0 10 #fcfcfc #000000 #000000 0 1;
#X obj 27 48 s \$1-ON;
#X obj 27 26 tgl 15 0 empty empty empty 17 7 0 10 #fcfcfc #000000 #000000 0 1;
#X obj 460 32 hsl 128 15 0 1 0 0 empty empty empty -2 -8 0 10 #fcfcfc #000000 #000000 0 1;
#X obj 294 52 s \$1DIST1;
#X obj 457 53 s \$1DIST2;
#X obj 44 800 tabread4~;
#X obj 43 240 array size;
#X msg 273 568 set \$1;
#X obj 43 218 t b s;
#N canvas 1515 62 365 511 calc-speed 0;
#X obj 62 96 r CLOCK;
#X obj 62 136 t b f;
#X obj 50 196 t f b;
#X obj 50 242 log;
#X msg 77 220 2;
#X obj 77 242 log;
#X obj 50 263 /, f 5;
#X obj 50 353 i;
#X msg 50 443 2 \$1;
#X obj 50 464 pow;
#X obj 50 285 moses 0, f 8;
#X obj 50 389 change;
#X obj 95 352 * -1;
#X obj 95 330 i;
#X obj 50 306 * -1;
#X msg 143 356 set -1000;
#X obj 50 485 outlet;
#X msg 62 117 \$2;
#X obj 62 54 t b f;
#X obj 50 75 / 1;
#X obj 50 157 / 500;
#X obj 50 12 inlet;
#X obj 88 29 r \$1-pitch;
#X obj 95 307 + 0;
#X obj 50 327 + 0;
#X obj 177 32 r \$0-speed;
#X obj 177 100 + 1;
#X obj 177 53 pow 2;
#X obj 177 79 * 128;
#X floatatom 111 453 5 0 0 0 - - - 0;
#X obj 160 167 loadbang;
#X msg 160 190 44100;
#X connect 0 0 17 0;
#X connect 1 0 20 0;
#X connect 1 1 20 1;
#X connect 2 0 3 0;
#X connect 2 1 4 0;
#X connect 3 0 6 0;
#X connect 4 0 5 0;
#X connect 5 0 6 1;
#X connect 6 0 10 0;
#X connect 7 0 11 0;
#X connect 8 0 9 0;
#X connect 9 0 16 0;
#X connect 10 0 14 0;
#X connect 10 1 23 0;
#X connect 11 0 8 0;
#X connect 11 0 29 0;
#X connect 12 0 11 0;
#X connect 13 0 12 0;
#X connect 14 0 24 0;
#X connect 15 0 11 0;
#X connect 17 0 1 0;
#X connect 18 0 19 0;
#X connect 18 1 19 1;
#X connect 19 0 20 0;
#X connect 20 0 2 0;
#X connect 21 0 19 0;
#X connect 22 0 18 0;
#X connect 23 0 13 0;
#X connect 24 0 7 0;
#X connect 25 0 27 0;
#X connect 26 0 18 0;
#X connect 27 0 28 0;
#X connect 28 0 26 0;
#X connect 30 0 31 0;
#X connect 31 0 19 0;
#X restore 43 362 pd calc-speed;
#X obj 43 319 / 44.1;
#X obj 43 438 ndmetro 4 1;
#X obj 43 489 sel 0;
#X obj 43 605 t f f;
#X obj 43 646 * 44.1;
#X obj 43 561 f;
#X obj 43 778 line~;
#X obj 88 605 / 1;
#X obj 43 342 t f f, f 20;
#X obj 43 883 throw~ mastersecu;
#X obj 134 409 r CLOCK;
#X obj 43 518 spigot;
#X obj 184 383 t f f;
#X msg 184 442 stop;
#X obj 184 421 sel 0 1;
#X msg 56 143 1;
#X msg 252 296 symbol NT-1-\$1;
#X obj 235 135 t b f;
#X obj 342 184 loadbang;
#X msg 342 205 44100;
#X obj 105 584 r \$1-pitch;
#X obj 467 158 r \$1-ON;
#X obj 425 320 s LEDS;
#X msg 425 299 RED \$1;
#X obj 494 95 r \$1FX;
#X floatatom 494 116 5 0 0 0 - - - 0;
#X obj 294 103 s \$0-speed;
#X obj 410 104 s \$0-offset;
#X obj 233 423 r \$0-offset;
#X obj 208 470 *;
#X obj 233 444 t b f;
#X obj 43 666 pack f f f;
#X obj 43 687 unpack f f f;
#X obj 43 708 +;
#X obj 43 729 pack f f f;
#X obj 43 294 t f f;
#X obj 44 821 mull~ 0 2;
#X obj 167 676 t b b, f 7;
#X obj 167 697 del 2;
#X obj 204 696 0;
#X obj 43 539 t b b;
#X obj 43 626 + 2;
#X obj 43 584 pipe 2;
#X obj 117 541 s \$0-led;
#X obj 117 519 == 0;
#X obj 425 249 r \$0-led;
#X obj 425 272 spigot;
#X msg 43 409 nd 4 \$1 \, 0;
#X obj 467 215 t f f;
#X obj 489 252 sel 0;
#X msg 489 273 0;
#X obj 88 103 tgl 15 0 empty empty empty 17 7 0 10 #fcfcfc #000000 #000000 0 1;
#X msg 148 467 clear;
#X msg 43 757 0 \, \$1 \$2;
#X obj 235 91 + 1;
#X obj 225 248 sel 0;
#X obj 225 225 t f f;
#X floatatom 371 146 5 0 0 0 - - - 0;
#X obj 167 718 0.5;
#N canvas 69 257 621 371 fx 0;
#X obj 112 21 inlet~;
#X obj 112 324 outlet~;
#X obj 302 176 hsl 128 15 0 1 0 0 empty empty empty -2 -8 0 10 #fcfcfc #000000 #000000 0 1;
#X obj 299 88 bng 15 250 50 0 empty empty load 17 7 0 10 #00fc04 #000000 #000000;
#X obj 494 86 bng 15 250 50 0 empty empty save 17 7 0 10 #fc0400 #000000 #000000;
#X obj 299 67 loadbang;
#N canvas 1 81 450 300 declares 0;
#X obj 28 57 declare -stdpath iemlib -lib iemlib1;
#X obj 29 80 declare -path ../domoTools/gammabs;
#X obj 29 98 declare -path ../domoTools/domonet;
#X obj 29 116 declare -path ../domoTools/notebank;
#X obj 29 134 declare -path ../domoTools/effects;
#X obj 29 153 declare -path ../domoTools/rhythmic;
#X obj 29 171 declare -path ../domoTools/song;
#X obj 27 28 declare -stdpath motex -path motex -lib motex -path ggee -lib ggee -path moonlib -path AutoPreset -stdpath AutoPreset;
#X restore 455 37 pd declares;
#X obj 299 46 apmaster \$1FX;
#X obj 299 108 apmasterfile \$1FX SETTINGS/\$1FX.txt;
#X obj 299 133 r \$1FX;
#X obj 299 196 MORPHgroup \$1FX A;
#X obj 129 243 apecho \$1FX-A echo1;
#X obj 128 99 apeq \$1FX-A eq2;
#X obj 128 181 apdisto \$1FX-A disto;
#X connect 0 0 1 0;
#X connect 0 0 12 0;
#X connect 2 0 10 0;
#X connect 3 0 8 0;
#X connect 4 0 8 1;
#X connect 5 0 3 0;
#X connect 9 0 2 0;
#X connect 11 0 1 0;
#X connect 12 0 13 0;
#X connect 13 0 11 0;
#X restore 44 861 pd fx;
#X obj 369 603 r PINGNIP-tab;
#X obj 369 625 unpack f s;
#X obj 456 602 t f f, f 7;
#X obj 426 678 spigot;
#X obj 456 623 sel 0;
#X obj 495 625 == 0;
#X obj 426 650 symbol;
#X obj 546 524 r PINGNIP-beats;
#X obj 576 551 t f f, f 7;
#X obj 546 622 spigot;
#X obj 576 572 sel 0;
#X obj 615 574 == 0;
#X obj 546 599 f;
#X obj 520 487 f;
#X obj 546 645 *;
#X obj 546 668 * 44.1;
#X obj 591 623 r CLOCK;
#X msg 591 644 \$2;
#X floatatom 546 691 5 0 0 0 - - - 0;
#X floatatom 213 547 5 0 0 0 - - - 0;
#X obj 43 462 change;
#X obj 43 383 * 2;
#X floatatom 277 172 5 0 0 0 - - - 0;
#X floatatom 136 313 5 0 0 0 - - - 0;
#X listbox 252 319 20 0 0 0 - - - 0;
#X obj 43 267 max 4410;
#X obj 10 204 bng 18 250 50 0 empty empty empty 0 -9 0 10 #fcfcfc #000000 #000000;
#X obj 501 349 tgl 18 0 empty empty empty 0 -9 0 10 #fcfcfc #000000 #000000 0 1;
#X obj 235 112 * 2;
#X obj 252 274 moses;
#X obj 149 213 + 1;
#X obj 184 335 * 1;
#X obj 211 335 t b f;
#X obj 152 126 < 0.5;
#X obj 225 202 change;
#X obj 314 377 bng 18 250 50 0 empty empty empty 0 -9 0 10 #fcfcfc #000000 #000000;
#X obj 184 359 change;
#X obj 501 186 t b f;
#X obj 152 151 change;
#X obj 467 187 && 1;
#X connect 0 0 1 0;
#X connect 0 0 78 0;
#X connect 0 0 114 0;
#X connect 3 0 7 0;
#X connect 3 0 75 0;
#X connect 4 0 9 0;
#X connect 4 0 117 0;
#X connect 5 0 50 0;
#X connect 5 0 81 0;
#X connect 6 0 51 0;
#X connect 7 0 115 0;
#X connect 7 1 8 0;
#X connect 8 0 39 0;
#X connect 9 0 10 0;
#X connect 10 0 106 0;
#X connect 10 0 118 0;
#X connect 11 0 12 0;
#X connect 13 0 17 0;
#X connect 15 0 14 0;
#X connect 16 0 18 0;
#X connect 19 0 60 0;
#X connect 20 0 109 0;
#X connect 21 0 19 0;
#X connect 22 0 20 0;
#X connect 22 1 20 1;
#X connect 23 0 105 0;
#X connect 24 0 32 0;
#X connect 25 0 104 0;
#X connect 26 0 35 0;
#X connect 27 0 65 0;
#X connect 27 1 31 0;
#X connect 28 0 55 0;
#X connect 29 0 66 0;
#X connect 30 0 19 0;
#X connect 31 0 55 1;
#X connect 32 0 23 0;
#X connect 32 1 29 1;
#X connect 34 0 25 0;
#X connect 35 0 64 0;
#X connect 36 0 38 0;
#X connect 36 1 35 1;
#X connect 37 0 30 0;
#X connect 37 0 76 0;
#X connect 37 0 62 0;
#X connect 38 0 37 0;
#X connect 38 1 35 0;
#X connect 39 0 0 0;
#X connect 40 0 21 0;
#X connect 40 0 22 0;
#X connect 40 0 108 0;
#X connect 41 0 9 0;
#X connect 41 1 9 1;
#X connect 42 0 43 0;
#X connect 43 0 24 0;
#X connect 44 0 31 1;
#X connect 45 0 123 0;
#X connect 47 0 46 0;
#X connect 48 0 49 0;
#X connect 52 0 54 0;
#X connect 53 0 55 2;
#X connect 54 0 53 0;
#X connect 54 1 53 1;
#X connect 55 0 56 0;
#X connect 56 0 57 0;
#X connect 56 1 58 1;
#X connect 56 2 57 1;
#X connect 56 2 58 2;
#X connect 57 0 58 0;
#X connect 58 0 77 0;
#X connect 59 0 24 0;
#X connect 59 1 53 0;
#X connect 60 0 83 0;
#X connect 61 0 62 0;
#X connect 61 1 63 0;
#X connect 62 0 82 0;
#X connect 63 0 60 1;
#X connect 64 0 29 0;
#X connect 64 1 61 0;
#X connect 65 0 28 0;
#X connect 66 0 27 0;
#X connect 68 0 67 0;
#X connect 69 0 70 0;
#X connect 70 0 47 0;
#X connect 70 0 111 0;
#X connect 71 0 25 0;
#X connect 72 0 73 0;
#X connect 72 1 70 1;
#X connect 73 0 74 0;
#X connect 74 0 47 0;
#X connect 76 0 66 0;
#X connect 77 0 30 0;
#X connect 78 0 112 0;
#X connect 79 1 113 0;
#X connect 80 0 79 0;
#X connect 80 1 97 0;
#X connect 82 0 60 1;
#X connect 83 0 33 0;
#X connect 84 0 85 0;
#X connect 85 1 90 0;
#X connect 86 0 88 0;
#X connect 86 1 89 0;
#X connect 87 0 21 0;
#X connect 88 0 90 0;
#X connect 89 0 87 1;
#X connect 90 0 87 0;
#X connect 91 0 96 0;
#X connect 92 0 94 0;
#X connect 92 1 95 0;
#X connect 93 0 98 0;
#X connect 94 0 96 0;
#X connect 95 0 93 1;
#X connect 96 0 93 0;
#X connect 97 0 86 0;
#X connect 97 0 92 0;
#X connect 98 0 99 0;
#X connect 99 0 102 0;
#X connect 99 0 109 0;
#X connect 100 0 101 0;
#X connect 101 0 98 1;
#X connect 104 0 68 0;
#X connect 104 0 26 0;
#X connect 105 0 71 0;
#X connect 105 0 103 0;
#X connect 108 0 119 0;
#X connect 109 0 59 0;
#X connect 109 0 107 0;
#X connect 110 0 20 0;
#X connect 112 0 41 0;
#X connect 113 0 40 0;
#X connect 114 0 113 1;
#X connect 115 0 120 0;
#X connect 116 0 115 0;
#X connect 116 1 115 1;
#X connect 117 0 122 0;
#X connect 118 0 80 0;
#X connect 120 0 36 0;
#X connect 121 0 123 0;
#X connect 121 1 123 1;
#X connect 122 0 116 0;
#X connect 122 0 121 0;
#X connect 123 0 72 0;
