#N canvas 1036 42 788 963 10;
#X obj 152 9 secu_interface \$1 \$2;
#X obj 29 80 r \$1-ON;
#X obj 152 83 r \$1SELECT;
#X obj 294 81 r \$1DIST1;
#X obj 583 59 r \$1DIST2;
#X obj 155 30 hsl 128 15 0 1 0 0 empty empty empty -2 -8 0 10 #fcfcfc #000000 #000000 0 1;
#X obj 152 53 s \$1SELECT;
#X obj 297 28 hsl 128 15 0 1 0 0 empty empty empty -2 -8 0 10 #fcfcfc #000000 #000000 0 1;
#X obj 27 48 s \$1-ON;
#X obj 27 26 tgl 15 0 empty empty empty 17 7 0 10 #fcfcfc #000000 #000000 0 1;
#X obj 460 32 hsl 128 15 0 1 0 0 empty empty empty -2 -8 0 10 #fcfcfc #000000 #000000 0 1;
#X obj 294 52 s \$1DIST1;
#X obj 457 53 s \$1DIST2;
#X obj 28 926 throw~ mastersecu;
#X obj 567 172 r \$1-ON;
#X obj 525 298 s LEDS;
#X msg 525 277 RED \$1;
#X obj 532 98 r \$1FX;
#X floatatom 532 119 5 0 0 0 - - - 0;
#X obj 294 103 s \$0-speed;
#X obj 525 227 r \$0-led;
#X obj 525 250 spigot;
#X obj 567 193 t f f;
#X obj 589 230 sel 0;
#X msg 589 251 0;
#X obj 88 103 tgl 15 0 empty empty empty 17 7 0 10 #fcfcfc #000000 #000000 0 1;
#X floatatom 371 146 5 0 0 0 - - - 0;
#N canvas 69 257 621 371 fx 1;
#X obj 112 21 inlet~;
#X obj 112 324 outlet~;
#X obj 302 176 hsl 128 15 0 1 0 0 empty empty empty -2 -8 0 10 #fcfcfc #000000 #000000 0 1;
#X obj 299 133 r \$1FX;
#X obj 299 196 MORPHgroup \$1FX A;
#X obj 129 243 apecho \$1FX-A echo1;
#X obj 128 99 apeq \$1FX-A eq2;
#X obj 128 181 apdisto \$1FX-A disto;
#X connect 0 0 1 0;
#X connect 0 0 6 0;
#X connect 2 0 4 0;
#X connect 3 0 2 0;
#X connect 5 0 1 0;
#X connect 6 0 7 0;
#X connect 7 0 5 0;
#X restore 29 877 pd fx;
#X obj 592 307 tgl 18 0 empty empty empty 0 -9 0 10 #fcfcfc #000000 #000000 0 1;
#X obj 152 109 >= 0.5;
#X obj 152 172 tgl 18 0 empty empty empty 0 -9 0 10 #fcfcfc #000000 #000000 0 1;
#X obj 152 141 change;
#X obj 221 154 r \$0-speed;
#X obj 31 314 ndmetro 4 4;
#X obj 31 286 r CLOCK;
#X obj 31 504 *~, f 15;
#X obj 120 422 ssaw~;
#X floatatom 156 331 5 0 0 0 - - - 0;
#X msg 467 271 nd 2 8;
#X obj 221 245 sel 0 1 2 3 4 5, f 49;
#X obj 221 177 * 5.9;
#X obj 221 200 i;
#X obj 221 223 change;
#X obj 65 342 s \$0-led;
#X obj 57 191 &&;
#X obj 82 189 t b f;
#X obj 31 340 == 0;
#X obj 31 395 *;
#X obj 57 395 t b f;
#X msg 413 272 nd 2 6;
#X msg 366 271 nd 2 4;
#X obj 256 309 r \$0-note;
#X obj 207 343 * 50;
#X obj 207 366 + 30;
#X obj 120 395 lop~ 10;
#X obj 343 443 env~;
#X obj 343 489 mtof;
#X obj 343 466 / 1;
#X obj 343 393 abs~;
#X obj 343 416 lop~ 2;
#X obj 343 370 hip~ 20;
#X obj 183 510 *~ 0.5;
#X obj 31 368 change;
#X msg 317 270 nd 2 3;
#X msg 269 270 nd 2 2;
#X msg 222 271 nd 2 1;
#X obj 185 461 *~ 1.03;
#X obj 455 610 hsl 128 15 0 1 0 0 empty empty empty -2 -8 0 10 #fcfcfc #000000 #000000 0 1;
#X obj 452 630 MORPHgroup \$1FX B;
#X obj 30 537 apcheb \$1FX-B cheb1;
#X obj 453 403 bng 15 250 50 0 empty empty load 17 7 0 10 #00fc04 #000000 #000000;
#X obj 648 401 bng 15 250 50 0 empty empty save 17 7 0 10 #fc0400 #000000 #000000;
#X obj 453 382 loadbang;
#X obj 453 361 apmaster \$1FX;
#X obj 453 423 apmasterfile \$1FX SETTINGS/\$1FX.txt;
#X obj 183 540 hip~ 5;
#X obj 184 485 osc~;
#X obj 234 483 ssaw~;
#X obj 233 509 *~ 0.25;
#X obj 31 473 *~ 2;
#X obj 29 728 apdisto \$1FX-B disto;
#X obj 261 547 osc~ 5;
#X obj 120 342 +~;
#X obj 119 368 mtof~;
#X obj 452 469 r \$1SELECT;
#X obj 452 492 - 0.5;
#X obj 452 515 * 2;
#X obj 452 538 clip 0 1;
#X msg 452 561 \$1 300;
#X obj 452 584 line;
#X obj 65 636 apeq \$1FX-B eq2;
#X obj 66 796 apmoog \$1FX-B moog;
#X obj 30 607 *~ 1;
#X obj 31 421 ||;
#X obj 57 219 t f f;
#X obj 58 421 t b f;
#X obj 84 240 sel 0 1;
#X msg 141 268 1;
#X obj 90 267 del 300;
#X msg 90 290 0;
#X obj 185 438 lop~ 20;
#X obj 343 513 / 5;
#X obj 200 401 gammeRound /GAMME 100;
#X floatatom 624 156 5 0 0 0 - - - 0;
#X msg 456 147 1 \$1;
#X floatatom 513 159 5 0 0 0 - - - 0;
#X obj 456 173 /;
#X obj 456 219 + 80;
#X obj 456 79 r \$0-note;
#X obj 646 95 s \$0-note;
#X obj 646 47 r ANALOGS;
#X obj 646 70 route DIST2;
#X obj 456 125 max 0.02;
#X obj 456 196 * -1;
#X obj 456 102 pow 1.5;
#X floatatom 265 364 5 0 0 0 - - - 0;
#X obj 31 447 eadsr~ 0.1 150 0.5 50;
#X obj 231 326 pow 0.75;
#X obj 28 902 *~ 0.35;
#X obj 343 343 r \$0-note;
#X obj 261 570 *~ 0.35;
#X connect 1 0 25 0;
#X connect 1 0 44 0;
#X connect 2 0 29 0;
#X connect 3 0 19 0;
#X connect 3 0 26 0;
#X connect 5 0 6 0;
#X connect 7 0 11 0;
#X connect 9 0 8 0;
#X connect 10 0 12 0;
#X connect 14 0 22 0;
#X connect 16 0 15 0;
#X connect 17 0 18 0;
#X connect 20 0 21 0;
#X connect 21 0 16 0;
#X connect 21 0 28 0;
#X connect 22 0 23 0;
#X connect 22 1 21 1;
#X connect 23 0 24 0;
#X connect 24 0 16 0;
#X connect 27 0 118 0;
#X connect 29 0 31 0;
#X connect 30 0 45 0;
#X connect 31 0 30 0;
#X connect 32 0 40 0;
#X connect 33 0 46 0;
#X connect 34 0 33 0;
#X connect 35 0 69 0;
#X connect 36 0 75 0;
#X connect 38 0 33 0;
#X connect 39 0 65 0;
#X connect 39 1 64 0;
#X connect 39 2 63 0;
#X connect 39 3 50 0;
#X connect 39 4 49 0;
#X connect 39 5 38 0;
#X connect 40 0 41 0;
#X connect 41 0 42 0;
#X connect 42 0 39 0;
#X connect 44 0 94 0;
#X connect 45 0 44 0;
#X connect 45 1 44 1;
#X connect 46 0 62 0;
#X connect 47 0 93 0;
#X connect 48 0 47 0;
#X connect 48 1 47 1;
#X connect 49 0 33 0;
#X connect 50 0 33 0;
#X connect 51 0 117 0;
#X connect 52 0 53 0;
#X connect 53 0 115 0;
#X connect 53 0 102 0;
#X connect 54 0 36 0;
#X connect 55 0 57 0;
#X connect 56 0 101 0;
#X connect 57 0 56 0;
#X connect 58 0 59 0;
#X connect 59 0 55 0;
#X connect 60 0 58 0;
#X connect 61 0 75 0;
#X connect 62 0 47 0;
#X connect 62 0 43 0;
#X connect 63 0 33 0;
#X connect 64 0 33 0;
#X connect 65 0 33 0;
#X connect 66 0 76 0;
#X connect 66 0 77 0;
#X connect 67 0 68 0;
#X connect 69 0 92 0;
#X connect 70 0 74 0;
#X connect 71 0 74 1;
#X connect 72 0 70 0;
#X connect 75 0 35 1;
#X connect 76 0 61 0;
#X connect 77 0 78 0;
#X connect 78 0 75 0;
#X connect 79 0 35 0;
#X connect 80 0 27 0;
#X connect 80 0 91 0;
#X connect 81 0 120 0;
#X connect 82 0 83 0;
#X connect 83 0 54 0;
#X connect 83 0 100 0;
#X connect 84 0 85 0;
#X connect 85 0 86 0;
#X connect 86 0 87 0;
#X connect 87 0 88 0;
#X connect 88 0 89 0;
#X connect 89 0 67 0;
#X connect 90 0 80 0;
#X connect 91 0 27 0;
#X connect 92 0 90 0;
#X connect 92 0 80 0;
#X connect 93 0 116 0;
#X connect 94 0 48 0;
#X connect 94 1 96 0;
#X connect 95 0 93 0;
#X connect 95 1 93 1;
#X connect 96 0 99 0;
#X connect 96 1 97 0;
#X connect 96 1 98 0;
#X connect 97 0 95 0;
#X connect 98 0 99 0;
#X connect 99 0 95 0;
#X connect 100 0 66 0;
#X connect 101 0 54 1;
#X connect 102 0 37 0;
#X connect 102 0 82 1;
#X connect 104 0 106 0;
#X connect 106 0 113 0;
#X connect 107 0 105 0;
#X connect 108 0 114 0;
#X connect 110 0 111 0;
#X connect 111 0 109 0;
#X connect 112 0 104 0;
#X connect 113 0 107 0;
#X connect 114 0 112 0;
#X connect 116 0 79 0;
#X connect 117 0 52 0;
#X connect 118 0 13 0;
#X connect 119 0 60 0;
#X connect 120 0 82 0;
