#N canvas 981 68 701 808 10;
#X declare -path pingnip5;
#X obj 166 653 r ANALOGS;
#X obj 166 674 route NOEL2;
#X obj 166 737 pow 2;
#X obj 210 737 hsl 128 15 0 1 0 0 empty empty empty -2 -8 0 10 #fcfcfc #000000 #000000 0 1;
#X obj 381 355 s annonce-pitch;
#X floatatom 381 284 5 0 0 0 - - - 0;
#X obj 381 304 mtof;
#X obj 381 325 / 8.175;
#X obj 227 186 hsl 128 15 0 1 0 0 empty empty empty -2 -8 0 10 #fcfcfc #000000 #000000 0 1;
#X obj 224 66 bng 15 250 50 0 empty empty load 17 7 0 10 #00fc04 #000000 #000000;
#X obj 419 64 bng 15 250 50 0 empty empty save 17 7 0 10 #fc0400 #000000 #000000;
#X obj 224 45 loadbang;
#X obj 224 24 apmaster AFX;
#X obj 224 86 apmasterfile AFX SETTINGS/AFX.txt;
#X obj 224 219 MORPHgroup AFX A;
#X obj 37 174 apshifter AFX-A sh1;
#X obj 36 411 apdisto AFX-A disto1;
#X obj 38 87 apdiv AFX-A div1;
#X obj 208 550 apecho AFX-A echo1;
#X obj 36 474 apgap AFX-A gap1;
#X obj 37 324 apeq AFX-A eq1;
#X obj 37 560 apssb AFX-A ssb1;
#X obj 36 264 apcheb AFX-A cheb1;
#X obj 393 395 aprev AFX-A r1;
#X obj 36 658 +~;
#X obj 210 398 apeq AFX-A eq2;
#X obj 209 485 apdisto AFX-A disto2;
#X obj 224 111 r ANALOGS;
#X obj 224 132 route NOEL1;
#X obj 36 769 throw~ master;
#X obj 37 742 mull~ 0 20;
#X obj 522 167 s SWITCHES;
#X msg 522 145 TEMPO \$1;
#X obj 522 123 tgl 15 0 empty empty empty 17 7 0 10 #fcfcfc #000000 #000000 0 1;
#X obj 522 14 keyname;
#X obj 522 35 pack f s;
#X msg 522 56 \$2 \$1;
#X obj 522 100 route F12;
#X obj 522 77 spigot;
#X obj 582 55 tgl 15 0 empty empty empty 17 7 0 10 #fcfcfc #000000 #000000 0 1;
#X obj 165 758 * 0.8;
#N canvas 735 420 450 300 olds 0;
#N canvas 92 143 588 470 rec_annonce 0;
#X obj 39 34 r SWITCHES;
#X obj 39 55 route TEMPO;
#X obj 39 129 timer;
#X obj 39 102 sel 1 0;
#X obj 39 192 s annonce-len;
#X obj 141 439 tabwrite~ annonce-tab;
#X obj 125 124 sel 1 0;
#X msg 144 150 stop;
#X obj 361 20 table annonce-tab 1e+06;
#X obj 121 66 loadbang;
#X msg 121 87 1000;
#X obj 8 90 tgl 15 0 empty empty empty 17 7 0 10 #fcfcfc #000000 #000000 0 1;
#X obj 27 269 print;
#X floatatom 13 231 5 0 0 0 - - - 0;
#X msg 75 234 51;
#X obj 39 160 max 10;
#X obj 177 414 r~ MICRO;
#X connect 0 0 1 0;
#X connect 1 0 3 0;
#X connect 1 0 6 0;
#X connect 1 0 11 0;
#X connect 2 0 13 0;
#X connect 2 0 15 0;
#X connect 3 0 2 0;
#X connect 3 1 2 1;
#X connect 6 0 5 0;
#X connect 6 1 7 0;
#X connect 7 0 5 0;
#X connect 9 0 10 0;
#X connect 10 0 4 0;
#X connect 14 0 4 0;
#X connect 15 0 4 0;
#X connect 16 0 5 0;
#X restore 19 38 pd rec_annonce;
#N canvas 1 79 453 545 load_annonce 0;
#X obj 182 350 r DATASDIR;
#X obj 137 371 pack f s;
#X obj 160 322 i;
#X obj 160 301 clip 0 3;
#X obj 137 346 + 1;
#X obj 75 291 random 4;
#X obj 137 413 soundfiler;
#X obj 137 434 / 44.1;
#X obj 137 457 s annonce-len;
#X obj 75 270 bng 15 250 50 0 empty empty empty 17 7 0 10 #fcfcfc #000000 #000000;
#X msg 137 392 read \$2/00WavMessageAlerte/\$1.wav annonce-tab;
#X obj 96 16 r SWITCHES;
#X obj 96 37 route TEMPO;
#X obj 96 58 change;
#X obj 96 79 sel 0 1;
#X obj 96 104 del 250;
#X msg 96 125 0;
#X obj 152 104 f;
#X obj 152 125 + 1;
#X obj 176 247 del 1;
#X obj 137 489 r annonce-len;
#X floatatom 137 510 5 0 0 0 - - - 0;
#X obj 137 147 f;
#X obj 137 167 moses 2;
#X obj 176 187 - 2;
#X obj 176 226 t b f;
#X obj 176 208 moses 4;
#X obj 176 268 f;
#X floatatom 217 323 5 0 0 0 - - - 0;
#X connect 0 0 1 1;
#X connect 1 0 10 0;
#X connect 2 0 4 0;
#X connect 2 0 28 0;
#X connect 3 0 2 0;
#X connect 4 0 1 0;
#X connect 5 0 4 0;
#X connect 6 0 7 0;
#X connect 7 0 8 0;
#X connect 9 0 5 0;
#X connect 10 0 6 0;
#X connect 12 0 13 0;
#X connect 13 0 14 0;
#X connect 14 0 15 0;
#X connect 14 0 22 0;
#X connect 14 1 17 0;
#X connect 15 0 16 0;
#X connect 16 0 17 1;
#X connect 17 0 18 0;
#X connect 18 0 17 1;
#X connect 18 0 22 1;
#X connect 19 0 27 0;
#X connect 20 0 21 0;
#X connect 22 0 23 0;
#X connect 23 1 24 0;
#X connect 24 0 26 0;
#X connect 25 0 19 0;
#X connect 25 1 27 1;
#X connect 26 0 25 0;
#X connect 27 0 3 0;
#X restore 19 17 pd load_annonce;
#N canvas 0 0 498 525 loop_annonce 0;
#X obj 45 136 ndmetro 4 1;
#X obj 150 29 r CLOCK;
#X obj 45 157 sel 0;
#X obj 130 114 r annonce-len;
#X obj 45 178 spigot;
#X obj 130 156 sel 0;
#X msg 130 177 stop;
#N canvas 432 127 334 465 calc-speed 0;
#X obj 96 13 r annonce-len;
#X obj 108 97 r CLOCK;
#X obj 108 137 t b f;
#X obj 96 179 t f b;
#X obj 96 220 log;
#X msg 123 198 2;
#X obj 123 220 log;
#X obj 96 241 /, f 5;
#X obj 96 331 i;
#X msg 96 387 2 \$1;
#X obj 96 408 pow;
#X obj 96 263 moses 0, f 8;
#X obj 96 367 change;
#X obj 141 330 * -1;
#X obj 141 308 i;
#X obj 96 284 * -1;
#X msg 189 334 set -1000;
#X obj 96 429 outlet;
#X obj 96 305 + 0.5;
#X obj 141 285 + 0.5;
#X msg 108 118 \$2;
#X obj 108 55 t b f;
#X obj 96 76 / 1;
#X obj 96 158 / 500;
#X obj 108 35 r annonce-pitch;
#X obj 51 339 bng 15 250 50 0 empty empty empty 17 7 0 10 #fcfcfc #000000 #000000;
#X connect 0 0 22 0;
#X connect 1 0 20 0;
#X connect 2 0 23 0;
#X connect 2 1 23 1;
#X connect 3 0 4 0;
#X connect 3 1 5 0;
#X connect 4 0 7 0;
#X connect 5 0 6 0;
#X connect 6 0 7 1;
#X connect 7 0 11 0;
#X connect 8 0 12 0;
#X connect 9 0 10 0;
#X connect 10 0 17 0;
#X connect 11 0 15 0;
#X connect 11 1 19 0;
#X connect 12 0 9 0;
#X connect 13 0 12 0;
#X connect 14 0 13 0;
#X connect 15 0 18 0;
#X connect 16 0 12 0;
#X connect 18 0 8 0;
#X connect 19 0 14 0;
#X connect 20 0 2 0;
#X connect 21 0 22 0;
#X connect 21 1 22 1;
#X connect 22 0 23 0;
#X connect 23 0 3 0;
#X connect 24 0 21 0;
#X connect 25 0 10 0;
#X restore 45 28 pd calc-speed;
#X floatatom 10 50 5 0 0 0 - - - 0;
#X obj 45 241 t f f;
#X obj 45 269 * 44.1;
#X obj 45 222 f;
#X obj 45 292 pack f f;
#X msg 45 313 0 \, \$1 \$2;
#X obj 44 410 tabread4~ annonce-tab;
#X obj 60 202 r annonce-len;
#X obj 105 244 r annonce-pitch;
#X obj 90 269 / 1;
#X floatatom 205 156 5 0 0 0 - - - 0;
#X obj 109 170 tgl 15 0 empty empty empty 17 7 0 10 #fcfcfc #000000 #000000 0 1;
#X obj 130 135 > 80;
#X floatatom 6 167 5 0 0 0 - - - 0;
#X obj 14 191 bng 15 250 50 0 empty empty empty 17 7 0 10 #fcfcfc #000000 #000000;
#X obj 291 271 t f f, f 8;
#X obj 291 299 * 44.1;
#X obj 291 203 f;
#X obj 341 204 r annonce-len;
#X obj 351 274 r annonce-pitch;
#X obj 336 299 / 1;
#X obj 291 153 t b f, f 20;
#X obj 291 326 t f f;
#X obj 319 348 *;
#X obj 291 374 +;
#X obj 291 412 pack f f f;
#X msg 291 438 \$2 \, \$1 \$3;
#X obj 375 324 s annonce-pitch;
#X msg 378 300 1;
#X obj 150 51 unpack f f;
#X obj 207 73 /;
#X floatatom 207 95 5 0 0 0 - - - 0;
#X obj 121 301 r annonce-len;
#X obj 121 324 * 44.1;
#X obj 44 372 min~, f 11;
#X obj 45 334 vline~;
#X obj 45 61 * 1;
#X msg 45 111 nd 1 \$1;
#X obj 203 235 / 1;
#X obj 17 102 bng 15 250 50 0 empty empty empty 17 7 0 10 #fcfcfc #000000 #000000;
#X obj 203 211 spigot;
#X msg 231 235 0;
#X msg 228 187 1;
#X obj 234 259 bng 15 250 50 0 empty empty empty 17 7 0 10 #fcfcfc #000000 #000000;
#X obj 45 86 t b f;
#X connect 0 0 2 0;
#X connect 0 1 48 0;
#X connect 1 0 0 0;
#X connect 1 0 37 0;
#X connect 2 0 4 0;
#X connect 3 0 20 0;
#X connect 3 0 18 0;
#X connect 4 0 11 0;
#X connect 5 0 6 0;
#X connect 6 0 43 0;
#X connect 7 0 8 0;
#X connect 7 0 38 1;
#X connect 7 0 44 0;
#X connect 9 0 10 0;
#X connect 9 1 17 0;
#X connect 10 0 12 0;
#X connect 11 0 9 0;
#X connect 12 0 13 0;
#X connect 13 0 43 0;
#X connect 15 0 11 1;
#X connect 16 0 17 1;
#X connect 17 0 12 1;
#X connect 19 0 4 1;
#X connect 20 0 4 1;
#X connect 20 0 5 0;
#X connect 21 0 22 0;
#X connect 23 0 24 0;
#X connect 23 1 28 0;
#X connect 24 0 30 0;
#X connect 25 0 23 0;
#X connect 27 0 28 1;
#X connect 28 0 33 2;
#X connect 29 0 25 0;
#X connect 29 1 31 1;
#X connect 30 0 32 0;
#X connect 30 1 31 0;
#X connect 31 0 32 1;
#X connect 31 0 33 1;
#X connect 32 0 33 0;
#X connect 33 0 34 0;
#X connect 34 0 43 0;
#X connect 36 0 35 0;
#X connect 37 1 38 0;
#X connect 38 0 39 0;
#X connect 38 0 25 1;
#X connect 40 0 41 0;
#X connect 41 0 42 1;
#X connect 42 0 14 0;
#X connect 43 0 42 0;
#X connect 44 0 52 0;
#X connect 45 0 0 0;
#X connect 46 0 29 0;
#X connect 47 0 0 0;
#X connect 48 0 46 0;
#X connect 48 0 49 0;
#X connect 49 0 48 1;
#X connect 49 0 51 0;
#X connect 50 0 48 1;
#X connect 52 0 50 0;
#X connect 52 1 45 0;
#X restore 18 60 pd loop_annonce;
#X restore 136 23 pd olds;
#N canvas 270 110 899 527 PINGNIP 1;
#X obj 21 381 outlet~;
#X obj 19 10 declare -path pingnip5;
#X msg 115 223 rec \$1;
#X msg 238 379 feed \$1;
#X msg 172 221 over \$1;
#X msg 310 219 oneway \$1;
#X obj 20 311 pingnip5, f 18;
#X obj 241 350 hsl 170 20 0 1 0 0 empty empty empty -2 -10 0 12 #fcfcfc #000000 #000000 0 1;
#X msg 240 480 latencyMs \$1;
#X floatatom 240 456 5 0 200 0 - - - 0;
#X obj 115 257 pingnip5-recctl;
#X msg 245 220 reset;
#X msg 475 225 clock \$1 \$2;
#X obj 475 78 r CLOCK;
#X obj 21 63 r~ MICRO;
#X obj 115 47 r SWITCHES;
#X obj 115 70 route ADD REPLACE TEMPO PINGMODE, f 44;
#X obj 125 333 unpack f;
#X msg 125 356 PINGNIP \$1;
#X obj 125 379 s LEDS;
#X obj 475 129 ndmetro 1e+06 1;
#X obj 475 104 t a a;
#X obj 475 173 pack f f;
#X obj 515 104 unpack f f;
#X obj 475 151 change;
#X obj 115 197 unpack f f;
#X msg 180 167 \$1 0;
#X obj 20 337 hip~ 5;
#X obj 245 163 sel 1;
#X obj 238 303 loadbang;
#X msg 238 326 1;
#X msg 35 234 \$1 1;
#X obj 35 258 line~;
#X obj 20 285 *~;
#X obj 35 187 &&;
#X obj 62 188 t b f;
#X obj 35 210 == 0;
#X obj 170 130 == 0;
#X obj 86 220 tgl 18 0 empty empty empty 0 -9 0 10 #fcfcfc #000000 #000000 0 1;
#X obj 234 265 tgl 18 0 empty empty empty 0 -9 0 10 #fcfcfc #000000 #000000 0 1;
#X obj 115 131 pack f 1;
#X msg 115 166 \$1 \$2;
#X obj 90 412 s PINGNIP-tab;
#X obj 101 470 s PINGNIP-beats;
#X obj 245 188 nclicks 3;
#X obj 627 170 hsl 153 18 0 1 0 0 empty empty empty -2 -9 0 10 #fcfcfc #000000 #000000 0 1;
#X msg 624 326 \$1 100;
#X obj 624 73 r ANALOGS;
#X obj 624 94 route NOEL1;
#X obj 711 66 r SWITCHES;
#X obj 711 89 route TEMPO;
#X obj 624 136 thresPot 0.1, f 15;
#X obj 711 113 == 0;
#X obj 625 376 lop~ 15;
#X obj 626 403 lop~ 15;
#X obj 624 349 doubleline~;
#X obj 624 261 -;
#X obj 626 459 -~;
#X obj 641 432 lop~ 1;
#X obj 624 115 t f f;
#X obj 731 136 sel 1;
#X obj 624 285 +;
#X obj 656 285 f;
#X obj 715 342 hsl 153 18 0 1 0 0 empty empty empty -2 -9 0 10 #fcfcfc #000000 #000000 0 1;
#X obj 712 317 wrap;
#X obj 624 193 t f f;
#X obj 639 227 spigot;
#X msg 655 250 0;
#X msg 672 206 1;
#X obj 259 100 == 0;
#X obj 322 122 &&;
#X obj 349 123 t b f;
#X obj 322 146 &&;
#X obj 349 147 t b f;
#X obj 322 169 tgl 18 0 empty empty empty 0 -9 0 10 #fcfcfc #000000 #000000 0 1;
#X obj 322 192 s annonce-vol-micdirect;
#X obj 386 122 loadbang;
#X msg 386 145 0;
#X obj 115 101 * 1;
#X obj 187 102 * 1;
#X obj 59 118 tgl 18 0 empty empty empty 0 -9 0 10 #fcfcfc #000000 #000000 0 1;
#X obj 240 430 r LATENCY;
#X connect 2 0 10 0;
#X connect 3 0 6 1;
#X connect 4 0 6 1;
#X connect 5 0 6 1;
#X connect 6 0 27 0;
#X connect 6 1 17 0;
#X connect 6 1 42 0;
#X connect 7 0 3 0;
#X connect 8 0 6 1;
#X connect 9 0 8 0;
#X connect 10 0 6 1;
#X connect 10 1 43 0;
#X connect 11 0 10 0;
#X connect 12 0 10 0;
#X connect 13 0 21 0;
#X connect 14 0 33 0;
#X connect 15 0 16 0;
#X connect 16 0 70 0;
#X connect 16 0 78 0;
#X connect 16 1 71 0;
#X connect 16 1 79 0;
#X connect 16 2 28 0;
#X connect 16 2 69 0;
#X connect 16 2 73 0;
#X connect 16 3 5 0;
#X connect 17 0 18 0;
#X connect 18 0 19 0;
#X connect 20 0 24 0;
#X connect 21 0 20 0;
#X connect 21 1 23 0;
#X connect 22 0 12 0;
#X connect 23 1 22 1;
#X connect 24 0 22 0;
#X connect 25 0 2 0;
#X connect 25 1 4 0;
#X connect 25 1 39 0;
#X connect 26 0 25 0;
#X connect 27 0 0 0;
#X connect 28 0 44 0;
#X connect 29 0 30 0;
#X connect 30 0 7 0;
#X connect 31 0 32 0;
#X connect 32 0 33 1;
#X connect 33 0 6 0;
#X connect 34 0 36 0;
#X connect 35 0 34 0;
#X connect 35 1 34 1;
#X connect 36 0 31 0;
#X connect 36 0 38 0;
#X connect 37 0 40 1;
#X connect 40 0 41 0;
#X connect 41 0 25 0;
#X connect 44 0 11 0;
#X connect 45 0 65 0;
#X connect 46 0 55 0;
#X connect 47 0 48 0;
#X connect 48 0 59 0;
#X connect 49 0 50 0;
#X connect 50 0 52 0;
#X connect 51 0 45 0;
#X connect 52 0 51 1;
#X connect 52 0 60 0;
#X connect 53 0 54 0;
#X connect 54 0 57 0;
#X connect 54 0 58 0;
#X connect 55 0 53 0;
#X connect 56 0 61 0;
#X connect 57 0 6 2;
#X connect 58 0 57 1;
#X connect 59 0 51 0;
#X connect 60 0 62 0;
#X connect 60 0 68 0;
#X connect 61 0 46 0;
#X connect 61 0 62 1;
#X connect 61 0 64 0;
#X connect 62 0 61 1;
#X connect 64 0 63 0;
#X connect 65 0 56 0;
#X connect 65 1 66 0;
#X connect 66 0 56 1;
#X connect 66 0 67 0;
#X connect 67 0 66 1;
#X connect 68 0 66 1;
#X connect 69 0 78 1;
#X connect 69 0 79 1;
#X connect 70 0 72 0;
#X connect 71 0 70 0;
#X connect 71 1 70 1;
#X connect 72 0 74 0;
#X connect 73 0 72 0;
#X connect 73 1 72 1;
#X connect 74 0 75 0;
#X connect 76 0 77 0;
#X connect 77 0 74 0;
#X connect 78 0 40 0;
#X connect 78 0 34 0;
#X connect 78 0 80 0;
#X connect 79 0 37 0;
#X connect 79 0 26 0;
#X connect 79 0 35 0;
#X connect 81 0 9 0;
#X restore 39 61 pd PINGNIP;
#X obj 311 109 r SWITCHES;
#X obj 311 132 route TEMPO;
#X obj 224 154 thresPot 0.1, f 15;
#X obj 388 111 loadbang;
#X msg 388 134 0;
#X obj 208 611 *~ 0.5;
#X obj 253 657 r annonce-vol-micdirect;
#X obj 166 704 thresPot 0.1, f 15;
#X obj 253 680 == 0;
#X obj 445 589 r ANALOGS;
#X obj 445 610 route NOEL2;
#X obj 445 689 pow 2;
#X obj 448 665 hsl 128 15 0 1 0 0 empty empty empty -2 -8 0 10 #fcfcfc #000000 #000000 0 1;
#X obj 417 741 mull~ 0 20;
#X obj 532 614 r annonce-vol-micdirect;
#X obj 445 640 thresPot 0.1, f 15;
#X obj 445 716 * 0.5;
#X obj 418 563 r~ MICRO;
#X connect 0 0 1 0;
#X connect 1 0 50 0;
#X connect 2 0 40 0;
#X connect 3 0 2 0;
#X connect 5 0 6 0;
#X connect 6 0 7 0;
#X connect 7 0 4 0;
#X connect 8 0 14 0;
#X connect 9 0 13 0;
#X connect 10 0 13 1;
#X connect 11 0 9 0;
#X connect 15 0 22 0;
#X connect 16 0 19 0;
#X connect 17 0 15 0;
#X connect 18 0 48 0;
#X connect 19 0 21 0;
#X connect 19 0 25 0;
#X connect 19 0 23 0;
#X connect 20 0 16 0;
#X connect 21 0 24 0;
#X connect 22 0 20 0;
#X connect 23 0 48 0;
#X connect 24 0 30 0;
#X connect 25 0 26 0;
#X connect 26 0 18 0;
#X connect 27 0 28 0;
#X connect 28 0 45 0;
#X connect 30 0 29 0;
#X connect 32 0 31 0;
#X connect 33 0 32 0;
#X connect 34 0 35 0;
#X connect 34 1 35 1;
#X connect 35 0 36 0;
#X connect 36 0 38 0;
#X connect 37 0 33 0;
#X connect 38 0 37 0;
#X connect 39 0 38 1;
#X connect 40 0 30 1;
#X connect 42 0 17 0;
#X connect 43 0 44 0;
#X connect 44 0 45 1;
#X connect 45 0 8 0;
#X connect 46 0 47 0;
#X connect 47 0 45 1;
#X connect 48 0 24 1;
#X connect 49 0 51 0;
#X connect 50 0 2 0;
#X connect 51 0 50 1;
#X connect 52 0 53 0;
#X connect 53 0 58 0;
#X connect 54 0 59 0;
#X connect 55 0 54 0;
#X connect 56 0 17 0;
#X connect 57 0 58 1;
#X connect 58 0 55 0;
#X connect 59 0 56 1;
#X connect 60 0 56 0;
