#N canvas 662 79 694 664 10;
#X declare -stdpath iemlib -lib iemlib1;
#X declare -path ../domoTools/gammabs;
#X declare -path ../domoTools/domonet;
#X declare -path ../domoTools/notebank;
#X declare -path ../domoTools/effects;
#X declare -path ../domoTools/rhythmic;
#X declare -path ../domoTools/song;
#X declare -stdpath motex -path motex -lib motex -path ggee -lib ggee
-path moonlib -path AutoPreset -stdpath AutoPreset;
#X obj 166 653 r ANALOGS;
#X obj 166 674 route NOEL2;
#X obj 166 695 pow 2;
#X obj 210 695 hsl 128 15 0 1 0 0 empty empty empty -2 -8 0 10 -262144
-1 -1 0 1;
#X obj 381 355 s annonce-pitch;
#X floatatom 381 284 5 0 0 0 - - -;
#X obj 381 304 mtof;
#X obj 381 325 / 8.175;
#N canvas 485 206 506 470 rec_annonce 0;
#X obj 39 34 r SWITCHES;
#X obj 39 55 route TEMPO;
#X obj 39 129 timer;
#X obj 39 102 sel 1 0;
#X obj 39 192 s annonce-len;
#X obj 144 392 tabwrite~ annonce-tab;
#X obj 190 32 adc~;
#X obj 231 321 limiter~;
#X obj 191 322 z~ 64;
#X obj 191 343 *~;
#X obj 190 286 *~ 2;
#X obj 125 124 sel 1 0;
#X msg 144 150 stop;
#X obj 241 22 table annonce-tab 1e+06;
#X obj 121 66 loadbang;
#X msg 121 87 1000;
#X obj 8 90 tgl 15 0 empty empty empty 17 7 0 10 -262144 -1 -1 0 1
;
#X obj 190 55 hp4_butt~ 80;
#X obj 190 159 lop~ 200;
#X obj 323 155 hip~ 6000;
#X obj 324 177 *~ 4;
#X obj 247 157 bs2~ 3000 2;
#X obj 190 180 *~ 5;
#X obj 388 177 *~ 12;
#X obj 389 156 bp~ 7000 20;
#X obj 190 79 +~;
#X obj 190 262 +~;
#X obj 27 269 print;
#X floatatom 13 231 5 0 0 0 - - -;
#X msg 75 234 51;
#X obj 39 160 max 10;
#X connect 0 0 1 0;
#X connect 1 0 3 0;
#X connect 1 0 11 0;
#X connect 1 0 16 0;
#X connect 2 0 28 0;
#X connect 2 0 30 0;
#X connect 3 0 2 0;
#X connect 3 1 2 1;
#X connect 6 0 17 0;
#X connect 7 0 9 1;
#X connect 8 0 9 0;
#X connect 9 0 5 0;
#X connect 10 0 7 0;
#X connect 10 0 8 0;
#X connect 11 0 5 0;
#X connect 11 1 12 0;
#X connect 12 0 5 0;
#X connect 14 0 15 0;
#X connect 15 0 4 0;
#X connect 17 0 25 0;
#X connect 18 0 22 0;
#X connect 19 0 20 0;
#X connect 20 0 26 0;
#X connect 21 0 26 0;
#X connect 22 0 26 0;
#X connect 23 0 26 0;
#X connect 24 0 23 0;
#X connect 25 0 18 0;
#X connect 25 0 24 0;
#X connect 25 0 21 0;
#X connect 25 0 19 0;
#X connect 26 0 10 0;
#X connect 29 0 4 0;
#X connect 30 0 4 0;
#X restore 37 46 pd rec_annonce;
#N canvas 177 142 481 545 loop_annonce 0;
#X obj 45 136 ndmetro 4 1;
#X obj 150 29 r CLOCK;
#X obj 45 157 sel 0;
#X obj 130 114 r annonce-len;
#X obj 45 178 spigot;
#X obj 130 156 sel 0;
#X msg 130 177 stop;
#N canvas 432 127 334 465 calc-speed 0;
#X obj 96 13 r annonce-len;
#X obj 108 97 r CLOCK;
#X obj 108 137 t b f;
#X obj 96 179 t f b;
#X obj 96 220 log;
#X msg 123 198 2;
#X obj 123 220 log;
#X obj 96 241 /, f 5;
#X obj 96 331 i;
#X msg 96 387 2 \$1;
#X obj 96 408 pow;
#X obj 96 263 moses 0, f 8;
#X obj 96 367 change;
#X obj 141 330 * -1;
#X obj 141 308 i;
#X obj 96 284 * -1;
#X msg 189 334 set -1000;
#X obj 96 429 outlet;
#X obj 96 305 + 0.5;
#X obj 141 285 + 0.5;
#X msg 108 118 \$2;
#X obj 108 55 t b f;
#X obj 96 76 / 1;
#X obj 96 158 / 500;
#X obj 108 35 r annonce-pitch;
#X obj 51 339 bng 15 250 50 0 empty empty empty 17 7 0 10 -262144 -1
-1;
#X connect 0 0 22 0;
#X connect 1 0 20 0;
#X connect 2 0 23 0;
#X connect 2 1 23 1;
#X connect 3 0 4 0;
#X connect 3 1 5 0;
#X connect 4 0 7 0;
#X connect 5 0 6 0;
#X connect 6 0 7 1;
#X connect 7 0 11 0;
#X connect 8 0 12 0;
#X connect 9 0 10 0;
#X connect 10 0 17 0;
#X connect 11 0 15 0;
#X connect 11 1 19 0;
#X connect 12 0 9 0;
#X connect 13 0 12 0;
#X connect 14 0 13 0;
#X connect 15 0 18 0;
#X connect 16 0 12 0;
#X connect 18 0 8 0;
#X connect 19 0 14 0;
#X connect 20 0 2 0;
#X connect 21 0 22 0;
#X connect 21 1 22 1;
#X connect 22 0 23 0;
#X connect 23 0 3 0;
#X connect 24 0 21 0;
#X connect 25 0 10 0;
#X restore 45 28 pd calc-speed;
#X floatatom 10 50 5 0 0 0 - - -;
#X obj 45 241 t f f;
#X obj 45 269 * 44.1;
#X obj 45 222 f;
#X obj 45 292 pack f f;
#X msg 45 313 0 \, \$1 \$2;
#X obj 44 410 tabread4~ annonce-tab;
#X obj 60 202 r annonce-len;
#X obj 105 244 r annonce-pitch;
#X obj 90 269 / 1;
#X obj 45 441 outlet~;
#X floatatom 205 156 5 0 0 0 - - -;
#X obj 109 170 tgl 15 0 empty empty empty 17 7 0 10 -262144 -1 -1 0
1;
#X obj 130 135 > 80;
#X floatatom 6 167 5 0 0 0 - - -;
#X obj 14 191 bng 15 250 50 0 empty empty empty 17 7 0 10 -262144 -1
-1;
#X obj 291 271 t f f, f 8;
#X obj 291 299 * 44.1;
#X obj 291 203 f;
#X obj 341 204 r annonce-len;
#X obj 351 274 r annonce-pitch;
#X obj 336 299 / 1;
#X obj 291 153 t b f, f 20;
#X obj 291 326 t f f;
#X obj 319 348 *;
#X obj 291 374 +;
#X obj 291 412 pack f f f;
#X msg 291 438 \$2 \, \$1 \$3;
#X obj 375 324 s annonce-pitch;
#X msg 378 300 1;
#X obj 150 51 unpack f f;
#X obj 207 73 /;
#X floatatom 207 95 5 0 0 0 - - -;
#X obj 121 301 r annonce-len;
#X obj 121 324 * 44.1;
#X obj 44 372 min~, f 11;
#X obj 45 334 vline~;
#X obj 45 61 * 1;
#X msg 45 111 nd 1 \$1;
#X obj 203 235 / 1;
#X obj 17 102 bng 15 250 50 0 empty empty empty 17 7 0 10 -262144 -1
-1;
#X obj 203 211 spigot;
#X msg 231 235 0;
#X msg 228 187 1;
#X obj 234 259 bng 15 250 50 0 empty empty empty 17 7 0 10 -262144
-1 -1;
#X obj 45 86 t b f;
#X connect 0 0 2 0;
#X connect 0 1 49 0;
#X connect 1 0 0 0;
#X connect 1 0 38 0;
#X connect 2 0 4 0;
#X connect 3 0 21 0;
#X connect 3 0 19 0;
#X connect 4 0 11 0;
#X connect 5 0 6 0;
#X connect 6 0 44 0;
#X connect 7 0 8 0;
#X connect 7 0 39 1;
#X connect 7 0 45 0;
#X connect 9 0 10 0;
#X connect 9 1 17 0;
#X connect 10 0 12 0;
#X connect 11 0 9 0;
#X connect 12 0 13 0;
#X connect 13 0 44 0;
#X connect 14 0 18 0;
#X connect 15 0 11 1;
#X connect 16 0 17 1;
#X connect 17 0 12 1;
#X connect 20 0 4 1;
#X connect 21 0 4 1;
#X connect 21 0 5 0;
#X connect 22 0 23 0;
#X connect 24 0 25 0;
#X connect 24 1 29 0;
#X connect 25 0 31 0;
#X connect 26 0 24 0;
#X connect 28 0 29 1;
#X connect 29 0 34 2;
#X connect 30 0 26 0;
#X connect 30 1 32 1;
#X connect 31 0 33 0;
#X connect 31 1 32 0;
#X connect 32 0 33 1;
#X connect 32 0 34 1;
#X connect 33 0 34 0;
#X connect 34 0 35 0;
#X connect 35 0 44 0;
#X connect 37 0 36 0;
#X connect 38 1 39 0;
#X connect 39 0 40 0;
#X connect 39 0 26 1;
#X connect 41 0 42 0;
#X connect 42 0 43 1;
#X connect 43 0 14 0;
#X connect 44 0 43 0;
#X connect 45 0 53 0;
#X connect 46 0 0 0;
#X connect 47 0 30 0;
#X connect 48 0 0 0;
#X connect 49 0 47 0;
#X connect 49 0 50 0;
#X connect 50 0 49 1;
#X connect 50 0 52 0;
#X connect 51 0 49 1;
#X connect 53 0 51 0;
#X connect 53 1 46 0;
#X restore 37 66 pd loop_annonce;
#X obj 227 154 hsl 128 15 0 1 0 0 empty empty empty -2 -8 0 10 -262144
-1 -1 74 1;
#X obj 224 66 bng 15 250 50 0 empty empty load 17 7 0 10 -4034 -1 -1
;
#X obj 419 64 bng 15 250 50 0 empty empty save 17 7 0 10 -258113 -1
-1;
#X obj 224 45 loadbang;
#X obj 224 24 apmaster AFX;
#X obj 224 86 apmasterfile AFX SETTINGS/AFX.txt;
#X obj 224 219 MORPHgroup AFX A;
#X obj 37 174 apshifter AFX-A sh1;
#X obj 36 411 apdisto AFX-A disto1;
#X obj 38 87 apdiv AFX-A div1;
#X obj 209 579 apecho AFX-A echo1;
#X obj 36 474 apgap AFX-A gap1;
#X obj 37 324 apeq AFX-A eq1;
#X obj 37 560 apssb AFX-A ssb1;
#X obj 36 264 apcheb AFX-A cheb1;
#X obj 393 395 aprev AFX-A r1;
#X obj 36 658 +~;
#X obj 210 398 apeq AFX-A eq2;
#X obj 209 485 apdisto AFX-A disto2;
#N canvas 0 79 450 300 declares 0;
#X obj 28 57 declare -stdpath iemlib -lib iemlib1;
#X obj 29 80 declare -path ../domoTools/gammabs;
#X obj 29 98 declare -path ../domoTools/domonet;
#X obj 29 116 declare -path ../domoTools/notebank;
#X obj 29 134 declare -path ../domoTools/effects;
#X obj 29 153 declare -path ../domoTools/rhythmic;
#X obj 29 171 declare -path ../domoTools/song;
#X obj 27 28 declare -stdpath motex -path motex -lib motex -path ggee
-lib ggee -path moonlib -path AutoPreset -stdpath AutoPreset;
#X restore 380 15 pd declares;
#X obj 224 111 r ANALOGS;
#X obj 224 132 route NOEL1;
#X obj 36 769 throw~ master;
#N canvas 1 79 453 545 load_annonce 0;
#X obj 182 350 r DATASDIR;
#X obj 137 371 pack f s;
#X obj 160 322 i;
#X obj 160 301 clip 0 3;
#X obj 137 346 + 1;
#X obj 75 291 random 4;
#X obj 137 413 soundfiler;
#X obj 137 434 / 44.1;
#X obj 137 457 s annonce-len;
#X obj 75 270 bng 15 250 50 0 empty empty empty 17 7 0 10 -262144 -1
-1;
#X msg 137 392 read \$2/00WavMessageAlerte/\$1.wav annonce-tab;
#X obj 96 16 r SWITCHES;
#X obj 96 37 route TEMPO;
#X obj 96 58 change;
#X obj 96 79 sel 0 1;
#X obj 96 104 del 250;
#X msg 96 125 0;
#X obj 152 104 f;
#X obj 152 125 + 1;
#X obj 176 247 del 1;
#X obj 137 489 r annonce-len;
#X floatatom 137 510 5 0 0 0 - - -;
#X obj 137 147 f;
#X obj 137 167 moses 2;
#X obj 176 187 - 2;
#X obj 176 226 t b f;
#X obj 176 208 moses 4;
#X obj 176 268 f;
#X floatatom 217 323 5 0 0 0 - - -;
#X connect 0 0 1 1;
#X connect 1 0 10 0;
#X connect 2 0 4 0;
#X connect 2 0 28 0;
#X connect 3 0 2 0;
#X connect 4 0 1 0;
#X connect 5 0 4 0;
#X connect 6 0 7 0;
#X connect 7 0 8 0;
#X connect 9 0 5 0;
#X connect 10 0 6 0;
#X connect 12 0 13 0;
#X connect 13 0 14 0;
#X connect 14 0 15 0;
#X connect 14 0 22 0;
#X connect 14 1 17 0;
#X connect 15 0 16 0;
#X connect 16 0 17 1;
#X connect 17 0 18 0;
#X connect 18 0 17 1;
#X connect 18 0 22 1;
#X connect 19 0 27 0;
#X connect 20 0 21 0;
#X connect 22 0 23 0;
#X connect 23 1 24 0;
#X connect 24 0 26 0;
#X connect 25 0 19 0;
#X connect 25 1 27 1;
#X connect 26 0 25 0;
#X connect 27 0 3 0;
#X restore 37 25 pd load_annonce;
#X obj 37 742 mull~ 0 20;
#X obj 522 167 s SWITCHES;
#X msg 522 145 TEMPO \$1;
#X obj 522 123 tgl 15 0 empty empty empty 17 7 0 10 -262144 -1 -1 0
1;
#X obj 522 14 keyname;
#X obj 522 35 pack f s;
#X msg 522 56 \$2 \$1;
#X obj 522 100 route F12;
#X obj 522 77 spigot;
#X obj 582 55 tgl 15 0 empty empty empty 17 7 0 10 -262144 -1 -1 0
1;
#X msg 367 141 0;
#X msg 396 141 1;
#X obj 367 164 tgl 15 0 empty empty empty 17 7 0 10 -262144 -1 -1 1
1;
#X obj 224 174 spigot;
#X obj 396 118 loadbang;
#X obj 165 716 * 0.8;
#X connect 0 0 1 0;
#X connect 1 0 2 0;
#X connect 2 0 49 0;
#X connect 3 0 2 0;
#X connect 5 0 6 0;
#X connect 6 0 7 0;
#X connect 7 0 4 0;
#X connect 9 0 19 0;
#X connect 10 0 47 0;
#X connect 11 0 15 0;
#X connect 12 0 15 1;
#X connect 13 0 11 0;
#X connect 17 0 24 0;
#X connect 18 0 21 0;
#X connect 19 0 17 0;
#X connect 20 0 26 1;
#X connect 21 0 23 0;
#X connect 21 0 27 0;
#X connect 22 0 18 0;
#X connect 23 0 26 0;
#X connect 24 0 22 0;
#X connect 26 0 34 0;
#X connect 27 0 28 0;
#X connect 28 0 20 0;
#X connect 30 0 31 0;
#X connect 31 0 10 0;
#X connect 34 0 32 0;
#X connect 36 0 35 0;
#X connect 37 0 36 0;
#X connect 38 0 39 0;
#X connect 38 1 39 1;
#X connect 39 0 40 0;
#X connect 40 0 42 0;
#X connect 41 0 37 0;
#X connect 42 0 41 0;
#X connect 43 0 42 1;
#X connect 44 0 46 0;
#X connect 45 0 46 0;
#X connect 46 0 47 1;
#X connect 47 0 16 0;
#X connect 48 0 45 0;
#X connect 49 0 34 1;
