#N canvas 99 81 593 794 10;
#X obj 37 742 *~;
#X obj 54 680 r ANALOGS;
#X obj 54 701 route NOEL2;
#X obj 54 722 pow 2;
#X obj 98 722 hsl 128 15 0 1 0 0 empty empty empty -2 -8 0 10 -262144
-1 -1 0 1;
#X obj 36 769 dac~;
#X obj 383 282 s annonce-pitch;
#X floatatom 383 211 5 0 0 0 - - -;
#X obj 383 231 mtof;
#X obj 383 252 / 8.175;
#X obj 139 58 s SWITCHES;
#X msg 139 36 TEMPO \$1;
#X obj 139 14 tgl 15 0 empty empty empty 17 7 0 10 -262144 -1 -1 0
1;
#N canvas 1 81 396 236 rec_annonce 0;
#X obj 39 34 r SWITCHES;
#X obj 39 55 route TEMPO;
#X obj 39 129 timer;
#X obj 39 102 sel 1 0;
#X obj 39 150 s annonce-len;
#X obj 144 188 tabwrite~ annonce-tab;
#X obj 190 61 adc~;
#X obj 231 117 limiter~;
#X obj 191 118 z~ 64;
#X obj 191 139 *~;
#X obj 190 82 *~ 2;
#X obj 125 124 sel 1 0;
#X msg 144 150 stop;
#X obj 203 30 table annonce-tab 1e+06;
#X connect 0 0 1 0;
#X connect 1 0 3 0;
#X connect 1 0 11 0;
#X connect 2 0 4 0;
#X connect 3 0 2 0;
#X connect 3 1 2 1;
#X connect 6 0 10 0;
#X connect 7 0 9 1;
#X connect 8 0 9 0;
#X connect 9 0 5 0;
#X connect 10 0 7 0;
#X connect 10 0 8 0;
#X connect 11 0 5 0;
#X connect 11 1 12 0;
#X connect 12 0 5 0;
#X restore 37 42 pd rec_annonce;
#N canvas 1 108 330 439 loop_annonce 0;
#X obj 45 136 ndmetro 4 1;
#X obj 130 53 r CLOCK;
#X obj 45 157 sel 0;
#X msg 45 107 nd 1 \$1;
#X obj 130 114 r annonce-len;
#X obj 130 135 > 200;
#X obj 45 178 spigot;
#X obj 130 156 sel 0;
#X msg 130 177 stop;
#N canvas 1 125 334 465 calc-speed 0;
#X obj 96 13 r annonce-len;
#X obj 108 97 r CLOCK;
#X obj 108 137 t b f;
#X obj 96 179 t f b;
#X obj 96 220 log;
#X msg 123 198 2;
#X obj 123 220 log;
#X obj 96 241 /, f 5;
#X obj 96 331 i;
#X msg 96 387 2 \$1;
#X obj 96 408 pow;
#X obj 96 263 moses 0, f 8;
#X obj 96 367 change;
#X obj 141 330 * -1;
#X obj 141 308 i;
#X obj 96 284 * -1;
#X msg 189 334 set -1000;
#X obj 96 429 outlet;
#X obj 96 305 + 0.5;
#X obj 141 285 + 0.5;
#X msg 108 118 \$2;
#X obj 108 55 t b f;
#X obj 96 76 / 1;
#X obj 96 158 / 500;
#X obj 108 35 r annonce-pitch;
#X connect 0 0 22 0;
#X connect 1 0 20 0;
#X connect 2 0 23 0;
#X connect 2 1 23 1;
#X connect 3 0 4 0;
#X connect 3 1 5 0;
#X connect 4 0 7 0;
#X connect 5 0 6 0;
#X connect 6 0 7 1;
#X connect 7 0 11 0;
#X connect 8 0 12 0;
#X connect 9 0 10 0;
#X connect 10 0 17 0;
#X connect 11 0 15 0;
#X connect 11 1 19 0;
#X connect 12 0 9 0;
#X connect 13 0 12 0;
#X connect 14 0 13 0;
#X connect 15 0 18 0;
#X connect 16 0 12 0;
#X connect 18 0 8 0;
#X connect 19 0 14 0;
#X connect 20 0 2 0;
#X connect 21 0 22 0;
#X connect 21 1 22 1;
#X connect 22 0 23 0;
#X connect 23 0 3 0;
#X connect 24 0 21 0;
#X restore 45 28 pd calc-speed;
#X floatatom 75 61 5 0 0 0 - - -;
#X obj 45 241 t f f;
#X obj 45 269 * 44.1;
#X obj 45 222 f;
#X obj 45 292 pack f f;
#X msg 45 313 0 \, \$1 \$2;
#X obj 45 334 line~;
#X obj 46 361 tabread4~ annonce-tab;
#X obj 60 202 r annonce-len;
#X obj 105 244 r annonce-pitch;
#X obj 90 269 / 1;
#X obj 46 382 outlet~;
#X connect 0 0 2 0;
#X connect 1 0 0 0;
#X connect 2 0 6 0;
#X connect 3 0 0 0;
#X connect 4 0 5 0;
#X connect 5 0 6 1;
#X connect 5 0 7 0;
#X connect 6 0 13 0;
#X connect 7 0 8 0;
#X connect 8 0 16 0;
#X connect 9 0 3 0;
#X connect 9 0 10 0;
#X connect 11 0 12 0;
#X connect 11 1 20 0;
#X connect 12 0 14 0;
#X connect 13 0 11 0;
#X connect 14 0 15 0;
#X connect 15 0 16 0;
#X connect 16 0 17 0;
#X connect 17 0 21 0;
#X connect 18 0 13 1;
#X connect 19 0 20 1;
#X connect 20 0 14 1;
#X restore 37 62 pd loop_annonce;
#X obj 227 107 hsl 128 15 0 1 0 0 empty empty empty -2 -8 0 10 -262144
-1 -1 0 1;
#X obj 224 66 bng 15 250 50 0 empty empty load 17 7 0 10 -4034 -1 -1
;
#X obj 419 64 bng 15 250 50 0 empty empty save 17 7 0 10 -258113 -1
-1;
#X obj 224 45 loadbang;
#X obj 224 24 apmaster AFX;
#X obj 224 86 apmasterfile AFX SETTINGS/AFX.txt;
#X obj 224 127 MORPHgroup AFX A;
#X obj 37 174 apshifter AFX-A sh1;
#X obj 36 411 apdisto AFX-A disto1;
#X obj 38 87 apdiv AFX-A div1;
#X obj 209 579 apecho AFX-A echo1;
#X obj 36 474 apgap AFX-A gap1;
#X obj 37 324 apeq AFX-A eq1;
#X obj 37 560 apssb AFX-A ssb1;
#X obj 36 264 apcheb AFX-A cheb1;
#X obj 393 350 aprev AFX-A r1;
#X obj 36 658 +~;
#X obj 210 398 apeq AFX-A eq2;
#X obj 209 485 apdisto AFX-A disto2;
#X connect 0 0 5 0;
#X connect 0 0 5 1;
#X connect 1 0 2 0;
#X connect 2 0 3 0;
#X connect 3 0 0 1;
#X connect 4 0 3 0;
#X connect 7 0 8 0;
#X connect 8 0 9 0;
#X connect 9 0 6 0;
#X connect 11 0 10 0;
#X connect 12 0 11 0;
#X connect 14 0 24 0;
#X connect 15 0 21 0;
#X connect 16 0 20 0;
#X connect 17 0 20 1;
#X connect 18 0 16 0;
#X connect 22 0 29 0;
#X connect 23 0 26 0;
#X connect 24 0 22 0;
#X connect 25 0 31 1;
#X connect 26 0 28 0;
#X connect 26 0 32 0;
#X connect 27 0 23 0;
#X connect 28 0 31 0;
#X connect 29 0 27 0;
#X connect 31 0 0 0;
#X connect 32 0 33 0;
#X connect 33 0 25 0;
