#N canvas 293 106 449 253 10;
#X declare -path utils;
#X obj 1 17 cnv 15 95 60 empty empty empty 2 6 1 8 #3c50fc #f8d8fc 0;
#X obj 41 43 mknob 15 100 0 1 0 0 \$0-eff-snd \$0-eff-rcv effect -2 -5 1 8 #fcfcc8 #000000 #000000 0 1;
#X obj 6 59 mknob 15 100 0 1 0 0 \$0-vol-snd \$0-vol-rcv volume -2 -5 1 8 #fc2828 #000000 #000000 0 1;
#X obj 6 29 mknob 15 100 0 1 0 0 \$0-effmicro-snd \$0-effmicro-rcv effect-micro -2 -5 1 8 #e8e828 #000000 #000000 0 1;
#X obj 69 30 mknob 15 100 0 1 0 0 \$0-vol2-snd \$0-vol2-rcv vol2 -2 -5 1 8 #fcac44 #000000 #000000 0 1;
#X obj 67 60 tgl 15 0 \$0-bypass-snd \$0-bypass-rcv bypass 0 -6 1 8 #fc2828 #000000 #000000 0 1;
#X obj 10 141 outlet~;
#X obj 10 95 inlet~;
#X obj 72 95 r \$0-bypass-snd;
#N canvas 1 324 146 312 allsound 0;
#X obj 22 21 inlet~;
#X obj 27 221 outlet~;
#X obj 79 25 inlet;
#X obj 32 101 *~;
#N canvas 1 81 528 523 allsound 0;
#X obj 38 15 inlet~;
#X obj 166 458 outlet~;
#X obj 75 289 mull~ 0 10;
#X obj 53 78 fiddle~ 2048;
#X obj 79 110 unpack;
#X obj 72 222 osc~;
#X obj 79 134 moses 1;
#X obj 38 222 *~;
#X obj 106 162 mtof;
#X obj 106 185 *;
#X obj 39 245 *~ 2;
#X obj 147 96 r \$0-eff-snd;
#X obj 120 223 r \$0-vol-snd;
#X obj 147 119 * 15;
#X obj 125 249 pow 3;
#X obj 124 268 * 2;
#X obj 180 114 r \$0-effmicro-snd;
#X floatatom 163 195 5 0 0 0 - - - 0;
#X obj 371 189 samplerate~;
#X obj 318 188 t f b;
#X obj 231 338 +~;
#X obj 349 242 +;
#X obj 318 163 expr 500/$f1;
#X obj 349 294 line~;
#X obj 349 271 pack 0 20;
#X obj 371 215 expr 2048000/$f1;
#X obj 87 51 delwrite~ \$0-wav 100;
#X obj 232 266 delread~ \$0-wav;
#X obj 252 314 vd~ \$0-wav;
#X obj 218 377 mull~ 0 10;
#X obj 268 337 pow 3;
#X obj 267 356 * 2;
#X obj 319 337 r \$0-vol2-snd;
#X obj 147 157 +;
#X obj 180 135 t b f;
#X connect 0 0 7 0;
#X connect 0 0 3 0;
#X connect 0 0 26 0;
#X connect 2 0 1 0;
#X connect 3 2 4 0;
#X connect 4 0 6 0;
#X connect 5 0 7 1;
#X connect 6 1 8 0;
#X connect 7 0 10 0;
#X connect 8 0 9 0;
#X connect 8 0 22 0;
#X connect 9 0 5 0;
#X connect 10 0 2 0;
#X connect 11 0 13 0;
#X connect 12 0 14 0;
#X connect 13 0 33 0;
#X connect 14 0 15 0;
#X connect 15 0 2 1;
#X connect 16 0 34 0;
#X connect 18 0 25 0;
#X connect 19 0 21 0;
#X connect 19 1 18 0;
#X connect 20 0 29 0;
#X connect 21 0 24 0;
#X connect 22 0 19 0;
#X connect 23 0 28 0;
#X connect 24 0 23 0;
#X connect 25 0 21 1;
#X connect 25 0 27 0;
#X connect 27 0 20 0;
#X connect 28 0 20 1;
#X connect 29 0 1 0;
#X connect 30 0 31 0;
#X connect 31 0 29 1;
#X connect 32 0 30 0;
#X connect 33 0 17 0;
#X connect 33 0 9 1;
#X connect 34 0 33 0;
#X connect 34 1 33 1;
#X restore 11 132 pd allsound;
#X msg 79 48 \$1 50;
#X obj 79 71 line~;
#X obj 11 175 *~;
#X obj 79 94 *~ -1;
#X obj 79 117 +~ 1;
#X connect 0 0 4 0;
#X connect 0 0 3 0;
#X connect 2 0 5 0;
#X connect 3 0 1 0;
#X connect 4 0 7 0;
#X connect 5 0 6 0;
#X connect 6 0 3 1;
#X connect 6 0 8 0;
#X connect 7 0 1 0;
#X connect 8 0 9 0;
#X connect 9 0 7 1;
#X restore 9 116 pd allsound;
#X obj 194 157 declare -path utils;
#X obj 192 13 apf \$1-\$2 effmicro \$0-effmicro;
#X obj 192 33 apf \$1-\$2 eff \$0-eff;
#X obj 191 61 apf \$1-\$2 vol \$0-vol;
#X obj 193 88 apf \$1-\$2 vol2 \$0-vol2;
#X obj 193 130 apsubmaster \$1-\$2 \$1 \$2;
#X floatatom 109 145 5 0 0 0 - - - 0;
#X obj 194 109 apf \$1-\$2 bypass \$0-bypass;
#X connect 7 0 9 0;
#X connect 8 0 9 1;
#X connect 8 0 16 0;
#X connect 9 0 6 0;
#X coords 0 -1 1 1 97 80 1 0 0;
