#N canvas 380 243 409 216 10;
#X declare -path utils;
#X obj 1 17 cnv 15 90 60 empty empty empty 2 5 1 8 #fc8000 #f8d8fc 0;
#X obj 32 29 mknob 15 100 0 1 0 0 \$0-time-snd \$0-time-rcv time -2 -5 1 8 #fcfcc8 #000000 #000000 0 1;
#X obj 6 59 mknob 15 100 0 1 0 0 \$0-vol-snd \$0-vol-rcv volume -2 -5 1 8 #fc2828 #000000 #000000 0 1;
#X obj 6 28 mknob 15 100 0 1 0 0 \$0-line-snd \$0-line-rcv line -2 -5 1 8 #e8e828 #000000 #000000 0 1;
#X obj 63 29 mknob 15 100 0 1 0 0 \$0-vitesse-snd \$0-vitesse-rcv vitesse -2 -5 1 8 #fcac44 #000000 #000000 0 1;
#X obj 62 61 tgl 15 0 \$0-bypass-snd \$0-bypass-rcv bypass 0 -6 1 8 #fc2828 #000000 #000000 0 1;
#X obj 11 157 outlet~;
#X obj 11 111 inlet~;
#X obj 73 110 r \$0-bypass-snd;
#N canvas 1 671 233 260 allsound 0;
#X obj 22 21 inlet~;
#X obj 20 199 outlet~;
#X obj 91 26 inlet;
#X obj 40 95 *~;
#N canvas 113 60 528 523 allsound 0;
#X obj 15 22 inlet~;
#X obj 15 460 outlet~;
#X obj 16 429 mull~ 0 10, f 46;
#X obj 152 363 r \$0-vol-snd;
#X obj 152 386 pow 3;
#X obj 152 407 * 2;
#X obj 47 116 unpack f f;
#X floatatom 83 146 5 0 0 0 - - - 0;
#X obj 51 64 r CLOCK;
#X obj 306 17 r \$0-vitesse-snd;
#X obj 306 63 i;
#X msg 315 188 0.25;
#X msg 361 191 0.5;
#X msg 387 166 1;
#X msg 405 140 2;
#X msg 332 214 0.333333;
#X msg 433 137 3;
#X msg 470 137 4;
#X obj 361 315 f;
#X obj 361 349 s \$0-speed;
#X obj 65 333 del 50;
#X obj 118 266 r \$0-time-snd;
#X obj 15 397 mull~ 0.7 1;
#X msg 27 365 1;
#X obj 29 308 t b b;
#X msg 67 361 0;
#X obj 209 264 r \$0-line-snd;
#X obj 103 171 r \$0-speed;
#X obj 83 242 t f f f;
#X msg 292 162 0.125;
#X msg 266 136 0.0625;
#X obj 195 333 moses 1;
#X obj 306 87 sel 0 1 2 3 4 5 6 7 8;
#X obj 306 39 * 8.9;
#X obj 51 88 route list;
#X obj 83 221 *;
#X obj 103 192 t b f;
#X obj 209 287 t b f;
#X obj 195 307 *;
#X obj 102 309 *;
#X obj 118 288 t b f;
#X obj 29 258 ndmetro 4 4;
#X obj 75 306 bng 18 250 50 0 empty empty empty 0 -9 0 10 #fcfcfc #000000 #000000;
#X obj 29 281 sel 0;
#X floatatom 322 351 5 0 0 0 - - - 0;
#X obj 280 38 bng 18 250 50 0 empty empty empty 0 -9 0 10 #fcfcfc #000000 #000000;
#X obj 184 124 r \$0-speed;
#X msg 184 194 nd 4 \$1;
#X msg 184 147 4 \$1;
#X obj 184 170 /;
#X connect 0 0 22 0;
#X connect 2 0 1 0;
#X connect 3 0 4 0;
#X connect 4 0 5 0;
#X connect 5 0 2 1;
#X connect 6 1 7 0;
#X connect 7 0 35 0;
#X connect 8 0 34 0;
#X connect 9 0 33 0;
#X connect 10 0 32 0;
#X connect 11 0 18 0;
#X connect 12 0 18 0;
#X connect 13 0 18 0;
#X connect 14 0 18 0;
#X connect 15 0 18 0;
#X connect 16 0 18 0;
#X connect 17 0 18 0;
#X connect 18 0 19 0;
#X connect 18 0 44 0;
#X connect 20 0 25 0;
#X connect 21 0 40 0;
#X connect 22 0 2 0;
#X connect 23 0 22 1;
#X connect 24 0 23 0;
#X connect 24 1 20 0;
#X connect 25 0 22 1;
#X connect 26 0 37 0;
#X connect 27 0 36 0;
#X connect 28 1 39 0;
#X connect 28 2 38 0;
#X connect 29 0 18 0;
#X connect 30 0 18 0;
#X connect 31 1 22 2;
#X connect 32 0 30 0;
#X connect 32 1 29 0;
#X connect 32 2 11 0;
#X connect 32 3 15 0;
#X connect 32 4 12 0;
#X connect 32 5 13 0;
#X connect 32 6 14 0;
#X connect 32 7 16 0;
#X connect 32 8 17 0;
#X connect 33 0 10 0;
#X connect 34 0 6 0;
#X connect 34 0 41 0;
#X connect 35 0 28 0;
#X connect 36 0 35 0;
#X connect 36 1 35 1;
#X connect 37 0 38 0;
#X connect 37 1 38 1;
#X connect 38 0 31 0;
#X connect 39 0 20 1;
#X connect 40 0 39 0;
#X connect 40 1 39 1;
#X connect 41 0 43 0;
#X connect 43 0 24 0;
#X connect 45 0 10 0;
#X connect 46 0 48 0;
#X connect 47 0 41 0;
#X connect 48 0 49 0;
#X connect 49 0 47 0;
#X restore 12 129 pd allsound;
#X msg 91 61 \$1 50;
#X obj 91 84 line~;
#X obj 12 163 *~;
#X obj 91 107 *~ -1;
#X obj 91 130 +~ 1;
#X connect 0 0 4 0;
#X connect 0 0 3 0;
#X connect 2 0 5 0;
#X connect 3 0 1 0;
#X connect 4 0 7 0;
#X connect 5 0 6 0;
#X connect 6 0 8 0;
#X connect 6 0 3 1;
#X connect 7 0 1 0;
#X connect 8 0 9 0;
#X connect 9 0 7 1;
#X restore 10 132 pd allsound;
#X obj 189 21 declare -path utils;
#X obj 190 50 apf \$1-\$2 line \$0-line;
#X obj 190 71 apf \$1-\$2 time \$0-time;
#X obj 190 92 apf \$1-\$2 vol \$0-vol;
#X obj 190 113 apf \$1-\$2 vitesse \$0-vitesse;
#X obj 190 155 apsubmaster \$1-\$2 \$1 \$2;
#X obj 190 134 apf \$1-\$2 bypass \$0-bypass;
#X connect 7 0 9 0;
#X connect 8 0 9 1;
#X connect 9 0 6 0;
#X coords 0 0 1 1 92 80 1 0 0;
