#N canvas 401 148 782 659 10;
#X declare -stdpath iemlib -lib iemlib1;
#X declare -path ../domoTools/gammabs;
#X declare -path ../domoTools/domonet;
#X declare -path ../domoTools/notebank;
#X declare -path ../domoTools/effects;
#X declare -path ../domoTools/rhythmic;
#X declare -path ../domoTools/song;
#X declare -stdpath motex -path motex -lib motex -path ggee -lib ggee
-path moonlib -path AutoPreset -stdpath AutoPreset;
#X obj 56 166 getnbnotes;
#X floatatom 56 187 5 0 0 0 - - -;
#X obj 152 9 secu_interface \$1 \$2;
#X obj 29 80 r \$1-ON;
#X obj 152 83 r \$1SELECT;
#X obj 294 81 r \$1DIST1;
#X obj 410 83 r \$1DIST2;
#X obj 29 101 t f f;
#X obj 56 122 sel 1;
#X obj 216 192 *;
#X obj 216 213 i;
#X obj 216 234 + 1;
#X floatatom 245 236 5 0 0 0 - - -;
#X obj 155 30 hsl 128 15 0 1 0 0 empty empty empty -2 -8 0 10 -262144
-1 -1 0 1;
#X obj 152 53 s \$1SELECT;
#X obj 297 28 hsl 128 15 0 1 0 0 empty empty empty -2 -8 0 10 -262144
-1 -1 0 1;
#X obj 27 48 s \$1-ON;
#X obj 27 26 tgl 15 0 empty empty empty 17 7 0 10 -262144 -1 -1 0 1
;
#X obj 460 32 hsl 128 15 0 1 0 0 empty empty empty -2 -8 0 10 -262144
-1 -1 0 1;
#X obj 294 52 s \$1DIST1;
#X obj 457 53 s \$1DIST2;
#X obj 44 577 tabread4~;
#X obj 43 243 array size;
#X msg 333 424 set \$1;
#X obj 43 221 t b s;
#N canvas 392 203 334 465 calc-speed 0;
#X obj 108 97 r CLOCK;
#X obj 108 137 t b f;
#X obj 96 179 t f b;
#X obj 96 220 log;
#X msg 123 198 2;
#X obj 123 220 log;
#X obj 96 241 /, f 5;
#X obj 96 331 i;
#X msg 96 387 2 \$1;
#X obj 96 408 pow;
#X obj 96 263 moses 0, f 8;
#X obj 96 367 change;
#X obj 141 330 * -1;
#X obj 141 308 i;
#X obj 96 284 * -1;
#X msg 189 334 set -1000;
#X obj 96 429 outlet;
#X msg 108 118 \$2;
#X obj 108 55 t b f;
#X obj 96 76 / 1;
#X obj 96 158 / 500;
#X obj 96 13 inlet;
#X obj 108 34 r \$1-pitch;
#X obj 141 285 + 0;
#X obj 96 305 + 0;
#X connect 0 0 17 0;
#X connect 1 0 20 0;
#X connect 1 1 20 1;
#X connect 2 0 3 0;
#X connect 2 1 4 0;
#X connect 3 0 6 0;
#X connect 4 0 5 0;
#X connect 5 0 6 1;
#X connect 6 0 10 0;
#X connect 7 0 11 0;
#X connect 8 0 9 0;
#X connect 9 0 16 0;
#X connect 10 0 14 0;
#X connect 10 1 23 0;
#X connect 11 0 8 0;
#X connect 12 0 11 0;
#X connect 13 0 12 0;
#X connect 14 0 24 0;
#X connect 15 0 11 0;
#X connect 17 0 1 0;
#X connect 18 0 19 0;
#X connect 18 1 19 1;
#X connect 19 0 20 0;
#X connect 20 0 2 0;
#X connect 21 0 19 0;
#X connect 22 0 18 0;
#X connect 23 0 13 0;
#X connect 24 0 7 0;
#X restore 43 305 pd calc-speed;
#X obj 43 264 / 44.1;
#X obj 43 357 ndmetro 4 1;
#X obj 43 378 sel 0;
#X obj 43 462 t f f;
#X obj 43 490 * 44.1;
#X obj 43 443 f;
#X obj 43 513 pack f f;
#X msg 43 534 0 \, \$1 \$2;
#X obj 43 555 line~;
#X obj 88 490 / 1;
#X obj 43 285 t f f, f 20;
#X obj 43 637 throw~ mastersecu;
#X obj 135 327 r CLOCK;
#X obj 43 399 spigot;
#X obj 184 304 t f f;
#X msg 184 361 stop;
#X obj 184 340 sel 0 1;
#X msg 56 143 3;
#X msg 216 261 symbol NT-3-\$1;
#X obj 226 170 t b f;
#X obj 368 186 loadbang;
#X msg 368 207 44100;
#X obj 110 466 r \$1-pitch;
#X msg 43 328 nd 1 \$1 \, 0;
#X obj 464 264 r \$1-ON;
#X obj 464 306 s LEDS;
#X msg 464 285 YEL \$1;
#X obj 44 598 *~ 1;
#N canvas 1 81 765 433 fx 0;
#X obj 184 77 r \$1DIST1;
#X obj 340 94 r \$1DIST2;
#X obj 100 77 inlet~;
#X obj 124 381 outlet~;
#X obj 184 98 * -1;
#X obj 184 119 + 1;
#X obj 251 21 loadbang;
#X msg 251 42 0;
#X obj 124 257 bob~, f 11;
#X msg 184 215 \$1 20;
#X obj 184 236 line~;
#X obj 184 182 mtof;
#X obj 124 351 hip~ 20;
#X obj 123 302 dist~ 1;
#X obj 253 153 * 2;
#X obj 253 130 sqrt;
#X msg 253 205 \$1 20;
#X obj 253 226 line~;
#X obj 184 140 * 90;
#X obj 184 161 + 30;
#X obj 236 328 *~;
#X msg 340 141 \$1 20;
#X obj 340 162 line~;
#X obj 440 173 hsl 128 15 0 1 0 0 empty empty empty -2 -8 0 10 -262144
-1 -1 11348 1;
#X obj 437 85 bng 15 250 50 0 empty empty load 17 7 0 10 -4034 -1 -1
;
#X obj 632 83 bng 15 250 50 0 empty empty save 17 7 0 10 -258113 -1
-1;
#X obj 437 64 loadbang;
#N canvas 1 81 450 300 declares 0;
#X obj 28 57 declare -stdpath iemlib -lib iemlib1;
#X obj 29 80 declare -path ../domoTools/gammabs;
#X obj 29 98 declare -path ../domoTools/domonet;
#X obj 29 116 declare -path ../domoTools/notebank;
#X obj 29 134 declare -path ../domoTools/effects;
#X obj 29 153 declare -path ../domoTools/rhythmic;
#X obj 29 171 declare -path ../domoTools/song;
#X obj 27 28 declare -stdpath motex -path motex -lib motex -path ggee
-lib ggee -path moonlib -path AutoPreset -stdpath AutoPreset;
#X restore 593 34 pd declares;
#X obj 437 43 apmaster \$1FX;
#X obj 437 105 apmasterfile \$1FX SETTINGS/\$1FX.txt;
#X obj 437 130 r \$1FX;
#X obj 437 193 MORPHgroup \$1FX A;
#X obj 237 353 aprev \$1FX-A r1;
#X obj 340 115 pow 1;
#X obj 124 278 *~ 8;
#X obj 123 323 *~ 0.4;
#X connect 0 0 4 0;
#X connect 0 0 15 0;
#X connect 1 0 33 0;
#X connect 2 0 8 0;
#X connect 4 0 5 0;
#X connect 5 0 18 0;
#X connect 6 0 7 0;
#X connect 7 0 4 0;
#X connect 7 0 15 0;
#X connect 8 0 34 0;
#X connect 9 0 10 0;
#X connect 10 0 8 1;
#X connect 11 0 9 0;
#X connect 12 0 3 0;
#X connect 12 0 20 0;
#X connect 13 0 35 0;
#X connect 14 0 16 0;
#X connect 15 0 14 0;
#X connect 16 0 17 0;
#X connect 17 0 8 2;
#X connect 18 0 19 0;
#X connect 19 0 11 0;
#X connect 20 0 32 0;
#X connect 21 0 22 0;
#X connect 22 0 20 1;
#X connect 23 0 31 0;
#X connect 24 0 29 0;
#X connect 25 0 29 1;
#X connect 26 0 24 0;
#X connect 30 0 23 0;
#X connect 32 0 3 0;
#X connect 33 0 21 0;
#X connect 34 0 13 0;
#X connect 35 0 12 0;
#X restore 215 576 pd fx;
#X connect 0 0 1 0;
#X connect 0 0 45 0;
#X connect 3 0 7 0;
#X connect 4 0 9 0;
#X connect 7 0 40 0;
#X connect 7 1 8 0;
#X connect 8 0 43 0;
#X connect 9 0 10 0;
#X connect 10 0 11 0;
#X connect 11 0 12 0;
#X connect 11 0 44 0;
#X connect 13 0 14 0;
#X connect 15 0 19 0;
#X connect 17 0 16 0;
#X connect 18 0 20 0;
#X connect 21 0 53 0;
#X connect 22 0 26 0;
#X connect 23 0 21 0;
#X connect 24 0 22 0;
#X connect 24 1 22 1;
#X connect 25 0 49 0;
#X connect 26 0 36 0;
#X connect 27 0 28 0;
#X connect 28 0 39 0;
#X connect 29 0 30 0;
#X connect 29 1 35 0;
#X connect 30 0 32 0;
#X connect 31 0 29 0;
#X connect 32 0 33 0;
#X connect 33 0 34 0;
#X connect 34 0 21 0;
#X connect 35 0 32 1;
#X connect 36 0 25 0;
#X connect 36 1 31 1;
#X connect 38 0 27 0;
#X connect 39 0 31 0;
#X connect 40 0 42 0;
#X connect 40 1 39 1;
#X connect 41 0 34 0;
#X connect 42 0 41 0;
#X connect 42 1 39 0;
#X connect 43 0 0 0;
#X connect 44 0 23 0;
#X connect 44 0 24 0;
#X connect 45 0 9 0;
#X connect 45 1 9 1;
#X connect 46 0 47 0;
#X connect 47 0 26 0;
#X connect 48 0 35 1;
#X connect 49 0 27 0;
#X connect 50 0 52 0;
#X connect 52 0 51 0;
#X connect 53 0 54 0;
#X connect 54 0 37 0;
