#N canvas 570 126 552 617 10;
#X declare -lib iemlib;
#N canvas 1 106 354 265 band2 0;
#X obj 114 117 nbx 5 14 -1e+37 1e+37 0 1 empty empty empty 0 -8 0 10 #fcfcc4 #000000 #000000 96 256;
#X obj 40 114 mtof;
#X obj 192 118 nbx 4 14 -1e+37 1e+37 0 1 empty empty Q -8 7 0 10 #c4fcc4 #000000 #000000 0.720001 256;
#X obj 192 135 nbx 4 14 0 200 0 1 empty empty dB -12 7 0 10 #fcc4c4 #000000 #000000 44.01 256;
#X obj 114 134 nbx 5 14 -1e+37 1e+37 0 0 empty empty Hz -12 7 0 10 #fcfcc4 #000000 #000000 0 256;
#X obj 36 52 ftom;
#X msg 40 135 set \$1;
#X msg 36 71 set \$1;
#X obj 281 167 switch~;
#X obj 281 128 > 0;
#X obj 281 147 change;
#X obj 89 43 inlet~;
#X obj 181 47 inlet;
#X obj 225 47 inlet;
#X obj 270 47 inlet;
#X obj 88 227 outlet~;
#X obj 88 189 para_bp2~ 450 10 5 50;
#X connect 0 0 1 0;
#X connect 1 0 6 0;
#X connect 1 0 16 1;
#X connect 2 0 16 2;
#X connect 3 0 9 0;
#X connect 3 0 16 3;
#X connect 4 0 5 0;
#X connect 5 0 7 0;
#X connect 6 0 4 0;
#X connect 7 0 0 0;
#X connect 9 0 10 0;
#X connect 10 0 8 0;
#X connect 11 0 16 0;
#X connect 12 0 0 0;
#X connect 13 0 2 0;
#X connect 14 0 3 0;
#X connect 16 0 15 0;
#X coords 0 -1 1 1 140 50 1 100 100;
#X restore 50 272 pd band2;
#X obj 48 91 phasor~ 100;
#X obj 49 197 lop~ 7000;
#X obj 49 224 *~;
#X obj 72 417 *~;
#X obj 261 249 bng 15 250 50 0 empty empty empty 17 7 0 10 #fcfcfc #000000 #000000;
#X msg 313 321 0;
#X msg 212 321 1;
#X obj 212 293 b;
#X obj 229 361 f;
#X obj 139 21 noise~;
#X obj 191 23 noise~;
#X obj 156 96 hip~ 10000;
#X obj 192 46 lop~ 1900;
#X obj 154 143 *~;
#X obj 157 71 /~;
#X obj 192 69 *~ 1;
#X obj 153 173 *~;
#X obj 152 195 clip~ 0 0.3;
#X obj 48 120 hip~ 1000;
#X obj 72 446 clip~ -2 2;
#X floatatom 48 68 5 0 0 0 - - - 0;
#X obj 46 247 hip~ 2000;
#X obj 139 45 lop~ 3;
#X obj 301 162 change;
#X obj 284 193 sel 1 0;
#X msg 374 209 stop;
#X msg 315 255 1;
#X msg 382 250 0;
#X obj 312 295 del 20;
#X obj 382 280 f;
#X msg 256 333 0.02;
#X obj 256 314 del 20;
#X msg 68 38 100;
#X msg 272 61;
#X floatatom 243 92 5 0 0 0 - - - 0;
#X floatatom 236 124 5 0 0 0 - - - 0;
#X obj 155 118 *~ 0.1;
#X obj 49 146 dist~ 5;
#X obj 261 163 tgl 15 0 empty empty empty 17 7 0 10 #fcfcfc #000000 #000000 0 1;
#X obj 301 88 r ANALOGS;
#X obj 301 109 route ELECTROCUTE;
#X obj 301 142 < 0.5;
#X obj 72 544 *~ 0.2;
#X obj 211 410 hsl 128 15 0 1 0 1 empty empty empty -2 -8 0 10 #fcfcfc #000000 #000000 9600 1;
#X obj 208 430 pow 2;
#X obj 73 570 throw~ mastersecu;
#X obj 364 33 declare -lib iemlib;
#X obj 315 233 del 100;
#X obj 199 214 noise~;
#X obj 83 224 +~ 0.1;
#X obj 199 238 lop~ 5;
#X obj 199 259 *~ 20;
#X obj 388 229 del 3500;
#X obj 83 468 hp4_butt~ 1500;
#X obj 73 494 hp4_butt~ 300;
#X obj 83 520 clip~ -2 2;
#X connect 0 0 4 0;
#X connect 1 0 19 0;
#X connect 2 0 3 0;
#X connect 3 0 22 0;
#X connect 4 0 20 0;
#X connect 5 0 8 0;
#X connect 6 0 9 0;
#X connect 7 0 9 0;
#X connect 8 0 7 0;
#X connect 8 0 32 0;
#X connect 9 0 4 1;
#X connect 10 0 23 0;
#X connect 11 0 13 0;
#X connect 12 0 37 0;
#X connect 13 0 16 0;
#X connect 14 0 17 0;
#X connect 14 0 17 1;
#X connect 15 0 12 0;
#X connect 16 0 15 1;
#X connect 17 0 18 0;
#X connect 17 0 4 0;
#X connect 18 0 50 0;
#X connect 19 0 38 0;
#X connect 20 0 54 0;
#X connect 20 0 55 0;
#X connect 21 0 1 0;
#X connect 22 0 0 0;
#X connect 23 0 15 0;
#X connect 24 0 25 0;
#X connect 25 0 5 0;
#X connect 25 0 48 0;
#X connect 25 1 26 0;
#X connect 26 0 28 0;
#X connect 26 0 32 0;
#X connect 26 0 48 0;
#X connect 26 0 53 0;
#X connect 27 0 30 0;
#X connect 28 0 30 0;
#X connect 29 0 6 0;
#X connect 30 0 9 0;
#X connect 31 0 9 0;
#X connect 32 0 31 0;
#X connect 33 0 21 0;
#X connect 35 0 23 1;
#X connect 36 0 37 1;
#X connect 37 0 14 0;
#X connect 37 0 14 1;
#X connect 38 0 2 0;
#X connect 39 0 25 0;
#X connect 40 0 41 0;
#X connect 41 0 42 0;
#X connect 42 0 24 0;
#X connect 43 0 46 0;
#X connect 44 0 45 0;
#X connect 45 0 43 1;
#X connect 48 0 27 0;
#X connect 48 0 53 0;
#X connect 49 0 51 0;
#X connect 50 0 3 1;
#X connect 51 0 52 0;
#X connect 52 0 50 0;
#X connect 53 0 28 0;
#X connect 54 0 55 0;
#X connect 55 0 56 0;
#X connect 56 0 43 0;
