#N canvas 1 81 450 300 10;
#X obj 44 20 inlet;
#X obj 44 132 outlet;
#X obj 44 41 - 0.05;
#X obj 44 62 * 2.5;
#X obj 44 83 clip 0 1;
#X obj 44 104 change;
#X connect 0 0 2 0;
#X connect 2 0 3 0;
#X connect 3 0 4 0;
#X connect 4 0 5 0;
#X connect 5 0 1 0;
