#N canvas 390 79 687 664 10;
#X declare -path Fraise -stdpath Fraise;
#X obj 21 16 declare -path Fraise -stdpath Fraise;
#X obj 21 38 pied/pied 0 41424;
#X text 214 101 analogSelect(0 \, POTNOEL1) \; analogSelect(1 \, POTNOEL2)
\; analogSelect(2 \, POTSECU1) \; analogSelect(3 \, POTSECU2) \; analogSelect(4
\, DIST1) \; analogSelect(5 \, DIST2) \; analogSelect(6 \, ELECTROCUTE)
\;;
#X text 409 91 switchSelect(0 \, SWTEMPO) \; switchSelect(1 \, SWBLUE1)
\; switchSelect(2 \, SWRED1) \; switchSelect(3 \, SWBLUE2) \; switchSelect(4
\, SWRED2) \; switchSelect(5 \, SWELEC1) \; switchSelect(6 \, SWELEC2)
\; switchSelect(7 \, SWELEC3) \;;
#X obj 23 134 fruit/fruit 1 fruitSecu 10 fw;
#X obj 20 195 fruit/receive fruitSecu;
#X obj 20 216 route s;
#X obj 20 420 route 0 1 2 3 4 5 6 7, f 90;
#X obj 20 440 tgl 15 0 empty empty empty 17 7 0 10 -262144 -1 -1 0
1;
#X msg 20 460 TEMPO \$1;
#X obj 87 461 tgl 15 0 empty empty empty 17 7 0 10 -262144 -1 -1 0
1;
#X obj 154 440 tgl 15 0 empty empty empty 17 7 0 10 -262144 -1 -1 0
1;
#X obj 221 440 tgl 15 0 empty empty empty 17 7 0 10 -262144 -1 -1 0
1;
#X obj 288 440 tgl 15 0 empty empty empty 17 7 0 10 -262144 -1 -1 0
1;
#X obj 355 440 tgl 15 0 empty empty empty 17 7 0 10 -262144 -1 -1 0
1;
#X obj 422 440 tgl 15 0 empty empty empty 17 7 0 10 -262144 -1 -1 0
1;
#X obj 489 440 tgl 15 0 empty empty empty 17 7 0 10 -262144 -1 -1 0
1;
#X msg 355 460 ELEC1 \$1;
#X msg 422 460 ELEC2 \$1;
#X msg 489 460 ELEC3 \$1;
#X obj 262 504 s SWITCHES;
#X obj 260 388 s ANALOGS;
#X msg 59 350 NOEL1 \$1;
#X msg 126 350 NOEL2 \$1;
#X msg 328 350 DIST1 \$1;
#X msg 395 350 DIST2 \$1;
#X obj 59 298 route 0 1 2 3 4 5 6, f 79;
#X obj 59 236 analog/parse;
#X obj 198 520 r LEDS;
#X obj 198 541 route TEMPO WH RED YEL, f 24;
#X obj 198 562 tgl 15 0 empty empty empty 17 7 0 10 -262144 -1 -1 1
1;
#X obj 233 562 tgl 15 0 empty empty empty 17 7 0 10 -262144 -1 -1 0
1;
#X obj 268 562 tgl 15 0 empty empty empty 17 7 0 10 -262144 -1 -1 0
1;
#X obj 303 562 tgl 15 0 empty empty empty 17 7 0 10 -262144 -1 -1 1
1;
#X msg 268 606 2 \$1;
#X msg 198 606 0 \$1;
#X msg 198 629 l\$1\$2;
#X obj 75 653 fruit/send2 fruitSecu;
#X obj 154 609 tgl 15 0 empty empty empty 17 7 0 10 -262144 -1 -1 0
1;
#X msg 154 629 L\$1;
#X obj 59 256 unpack f f;
#X obj 59 277 pack f f;
#X obj 116 277 / 16384;
#X msg 462 350 ELECTROCUTE \$1;
#X floatatom 213 224 5 0 0 0 - - -;
#X floatatom 447 385 5 0 0 0 - - -;
#X obj 403 250 hsl 128 15 0 1 0 0 empty empty empty -2 -8 0 10 -262144
-1 -1 0 1;
#X obj 198 256 hsl 128 15 0 1 0 0 empty empty empty -2 -8 0 10 -262144
-1 -1 0 1;
#X msg 193 350 SECU2 \$1;
#X msg 260 350 SECU1 \$1;
#X msg 288 460 BLUE1 \$1;
#X msg 221 460 RED1 \$1;
#X msg 154 460 BLUE2 \$1;
#X msg 87 481 RED2 \$1;
#X text 390 218 Pb sur Leds SECU 2 et 3;
#X obj 198 582 == 0;
#X msg 233 606 3 \$1;
#X msg 303 606 1 \$1;
#X obj 328 328 formatDist;
#X obj 395 327 formatDist;
#X obj 87 440 == 0;
#X obj 44 511 sel 0 1;
#X msg 90 557 1;
#X msg 54 535 stop;
#X obj 44 558 del 15;
#X msg 44 580 0;
#X obj 44 602 change;
#X connect 5 0 6 0;
#X connect 6 0 7 0;
#X connect 6 1 27 0;
#X connect 7 0 8 0;
#X connect 7 1 60 0;
#X connect 7 2 11 0;
#X connect 7 3 12 0;
#X connect 7 4 13 0;
#X connect 7 5 14 0;
#X connect 7 6 15 0;
#X connect 7 7 16 0;
#X connect 8 0 61 0;
#X connect 9 0 20 0;
#X connect 10 0 53 0;
#X connect 11 0 52 0;
#X connect 12 0 51 0;
#X connect 13 0 50 0;
#X connect 14 0 17 0;
#X connect 15 0 18 0;
#X connect 16 0 19 0;
#X connect 17 0 20 0;
#X connect 18 0 20 0;
#X connect 19 0 20 0;
#X connect 22 0 21 0;
#X connect 23 0 21 0;
#X connect 24 0 21 0;
#X connect 25 0 21 0;
#X connect 26 0 22 0;
#X connect 26 1 23 0;
#X connect 26 2 48 0;
#X connect 26 3 49 0;
#X connect 26 4 58 0;
#X connect 26 5 59 0;
#X connect 26 6 43 0;
#X connect 27 0 40 0;
#X connect 28 0 29 0;
#X connect 29 0 30 0;
#X connect 29 1 31 0;
#X connect 29 2 32 0;
#X connect 29 3 33 0;
#X connect 30 0 55 0;
#X connect 31 0 56 0;
#X connect 32 0 34 0;
#X connect 33 0 57 0;
#X connect 34 0 36 0;
#X connect 35 0 36 0;
#X connect 36 0 37 1;
#X connect 38 0 39 0;
#X connect 39 0 37 1;
#X connect 40 0 41 0;
#X connect 40 1 42 0;
#X connect 41 0 26 0;
#X connect 42 0 41 1;
#X connect 43 0 21 0;
#X connect 48 0 21 0;
#X connect 49 0 21 0;
#X connect 50 0 20 0;
#X connect 51 0 20 0;
#X connect 52 0 20 0;
#X connect 53 0 20 0;
#X connect 55 0 35 0;
#X connect 56 0 36 0;
#X connect 57 0 36 0;
#X connect 58 0 24 0;
#X connect 59 0 25 0;
#X connect 60 0 10 0;
#X connect 61 0 64 0;
#X connect 61 1 63 0;
#X connect 61 1 62 0;
#X connect 62 0 66 0;
#X connect 63 0 64 0;
#X connect 64 0 65 0;
#X connect 65 0 66 0;
#X connect 66 0 9 0;
