#N canvas 716 81 636 651 10;
#X declare -path Fraise -stdpath Fraise;
#X obj 21 16 declare -path Fraise -stdpath Fraise;
#X obj 21 38 pied/pied 0 41424;
#X text 214 101 analogSelect(0 \, POTNOEL1) \; analogSelect(1 \, POTNOEL2)
\; analogSelect(2 \, POTSECU1) \; analogSelect(3 \, POTSECU2) \; analogSelect(4
\, DIST1) \; analogSelect(5 \, DIST2) \; analogSelect(6 \, ELECTROCUTE)
\;;
#X text 409 91 switchSelect(0 \, SWTEMPO) \; switchSelect(1 \, SWBLUE1)
\; switchSelect(2 \, SWRED1) \; switchSelect(3 \, SWBLUE2) \; switchSelect(4
\, SWRED2) \; switchSelect(5 \, SWELEC1) \; switchSelect(6 \, SWELEC2)
\; switchSelect(7 \, SWELEC3) \;;
#X obj 23 134 fruit/fruit 1 fruitSecu 10 fw;
#X obj 20 195 fruit/receive fruitSecu;
#X obj 20 216 route s;
#X obj 20 390 route 0 1 2 3 4 5 6 7, f 90;
#X obj 20 410 tgl 15 0 empty empty empty 17 7 0 10 -262144 -1 -1 0
1;
#X msg 20 430 TEMPO \$1;
#X obj 87 410 tgl 15 0 empty empty empty 17 7 0 10 -262144 -1 -1 0
1;
#X msg 87 430 BLUE1 \$1;
#X obj 154 410 tgl 15 0 empty empty empty 17 7 0 10 -262144 -1 -1 0
1;
#X obj 221 410 tgl 15 0 empty empty empty 17 7 0 10 -262144 -1 -1 0
1;
#X msg 154 430 RED1 \$1;
#X msg 221 430 BLUE2 \$1;
#X obj 288 410 tgl 15 0 empty empty empty 17 7 0 10 -262144 -1 -1 0
1;
#X obj 355 410 tgl 15 0 empty empty empty 17 7 0 10 -262144 -1 -1 0
1;
#X obj 422 410 tgl 15 0 empty empty empty 17 7 0 10 -262144 -1 -1 0
1;
#X obj 489 410 tgl 15 0 empty empty empty 17 7 0 10 -262144 -1 -1 0
1;
#X msg 288 430 RED2 \$1;
#X msg 355 430 ELEC1 \$1;
#X msg 422 430 ELEC2 \$1;
#X msg 489 430 ELEC3 \$1;
#X obj 262 474 s SWITCHES;
#X obj 260 358 s ANALOGS;
#X msg 59 320 NOEL1 \$1;
#X msg 126 320 NOEL2 \$1;
#X msg 193 320 SECU1 \$1;
#X msg 260 320 SECU2 \$1;
#X msg 328 320 DIST1 \$1;
#X msg 395 320 DIST2 \$1;
#X msg 462 320 ELECTROCUTE) \$1;
#X obj 59 298 route 0 1 2 3 4 5 6, f 79;
#X obj 59 236 analog/parse;
#X obj 198 507 r LEDS;
#X obj 198 528 route TEMPO WH RED YEL, f 24;
#X obj 198 549 tgl 15 0 empty empty empty 17 7 0 10 -262144 -1 -1 0
1;
#X obj 233 549 tgl 15 0 empty empty empty 17 7 0 10 -262144 -1 -1 0
1;
#X msg 233 569 1 \$1;
#X obj 268 549 tgl 15 0 empty empty empty 17 7 0 10 -262144 -1 -1 0
1;
#X obj 303 549 tgl 15 0 empty empty empty 17 7 0 10 -262144 -1 -1 0
1;
#X msg 268 569 2 \$1;
#X msg 303 569 3 \$1;
#X msg 198 569 0 \$1;
#X msg 198 599 l\$1\$2;
#X obj 75 623 fruit/send2 fruitSecu;
#X obj 154 579 tgl 15 0 empty empty empty 17 7 0 10 -262144 -1 -1 0
1;
#X msg 154 599 L\$1;
#X obj 37 37;
#X obj 59 256 unpack f f;
#X obj 59 277 pack f f;
#X obj 116 277 / 16384;
#X connect 5 0 6 0;
#X connect 6 0 7 0;
#X connect 6 1 34 0;
#X connect 7 0 8 0;
#X connect 7 1 10 0;
#X connect 7 2 12 0;
#X connect 7 3 13 0;
#X connect 7 4 16 0;
#X connect 7 5 17 0;
#X connect 7 6 18 0;
#X connect 7 7 19 0;
#X connect 8 0 9 0;
#X connect 9 0 24 0;
#X connect 10 0 11 0;
#X connect 11 0 24 0;
#X connect 12 0 14 0;
#X connect 13 0 15 0;
#X connect 14 0 24 0;
#X connect 15 0 24 0;
#X connect 16 0 20 0;
#X connect 17 0 21 0;
#X connect 18 0 22 0;
#X connect 19 0 23 0;
#X connect 20 0 24 0;
#X connect 21 0 24 0;
#X connect 22 0 24 0;
#X connect 23 0 24 0;
#X connect 26 0 25 0;
#X connect 27 0 25 0;
#X connect 28 0 25 0;
#X connect 29 0 25 0;
#X connect 30 0 25 0;
#X connect 31 0 25 0;
#X connect 32 0 25 0;
#X connect 33 0 26 0;
#X connect 33 1 27 0;
#X connect 33 2 28 0;
#X connect 33 3 29 0;
#X connect 33 4 30 0;
#X connect 33 5 31 0;
#X connect 33 6 32 0;
#X connect 34 0 50 0;
#X connect 35 0 36 0;
#X connect 36 0 37 0;
#X connect 36 1 38 0;
#X connect 36 2 40 0;
#X connect 36 3 41 0;
#X connect 37 0 44 0;
#X connect 38 0 39 0;
#X connect 39 0 45 0;
#X connect 40 0 42 0;
#X connect 41 0 43 0;
#X connect 42 0 45 0;
#X connect 43 0 45 0;
#X connect 44 0 45 0;
#X connect 45 0 46 1;
#X connect 47 0 48 0;
#X connect 48 0 46 1;
#X connect 50 0 51 0;
#X connect 50 1 52 0;
#X connect 51 0 33 0;
#X connect 52 0 51 1;
