#N canvas 0 0 239 246 12;
#X msg 40 96 0;
#X obj 25 122 i;
#X obj 25 146 + 1;
#X obj 40 72 del 400;
#X obj 25 194 outlet;
#X obj 25 21 inlet clicks;
#X obj 25 47 b;
#X obj 25 170 sel \$1;
#X connect 0 0 1 1;
#X connect 1 0 2 0;
#X connect 2 0 1 1;
#X connect 2 0 7 0;
#X connect 3 0 0 0;
#X connect 5 0 6 0;
#X connect 6 0 1 0;
#X connect 6 0 3 0;
#X connect 7 0 4 0;
