#N canvas 33 218 1087 331 10;
#X obj 28 101 r ANALOGS;
#X obj 28 185 s \$1SELECT;
#X obj 193 142 r \$1-ON;
#X obj 406 144 r \$1-ON;
#X obj 247 185 s \$1DIST1;
#X obj 626 147 r \$1-ON;
#X obj 31 14 r SWITCHES;
#X obj 31 35 route \$2;
#X obj 31 55 tgl 15 0 empty empty empty 17 7 0 10 -262144 -1 -1 0 1
;
#X obj 31 73 s \$1-ON;
#X obj 467 188 s \$1DIST2;
#X obj 28 164 songParam SONGS \$1SELECT 0.1;
#X obj 247 164 songParam SONGS \$1DIST1 0.1;
#X obj 467 167 songParam SONGS \$1DIST2 0.1;
#X obj 28 122 route SECU1 DIST1 DIST2 NOEL1, f 147;
#X obj 846 147 r \$1-ON;
#X obj 687 167 songParam SONGS \$1FX 0.1;
#X obj 687 188 s \$1FX;
#X connect 0 0 14 0;
#X connect 2 0 11 1;
#X connect 3 0 12 1;
#X connect 5 0 13 1;
#X connect 6 0 7 0;
#X connect 7 0 8 0;
#X connect 8 0 9 0;
#X connect 11 0 1 0;
#X connect 12 0 4 0;
#X connect 13 0 10 0;
#X connect 14 0 11 0;
#X connect 14 1 12 0;
#X connect 14 2 13 0;
#X connect 14 3 16 0;
#X connect 15 0 16 1;
#X connect 16 0 17 0;
