#N canvas 135 372 1087 331 10;
#X obj 28 121 r ANALOGS;
#X obj 28 205 s \$1SELECT;
#X obj 193 162 r \$1-ON;
#X obj 406 164 r \$1-ON;
#X obj 247 205 s \$1DIST1;
#X obj 626 167 r \$1-ON;
#X obj 31 14 r SWITCHES;
#X obj 31 35 route \$2;
#X obj 467 208 s \$1DIST2;
#X obj 28 184 songParam SONGS \$1SELECT 0.1;
#X obj 247 184 songParam SONGS \$1DIST1 0.1;
#X obj 467 187 songParam SONGS \$1DIST2 0.1;
#X obj 28 142 route SECU1 DIST1 DIST2 NOEL1, f 147;
#X obj 846 167 r \$1-ON;
#X obj 687 187 songParam SONGS \$1FX 0.1;
#X obj 687 208 s \$1FX;
#X obj 31 77 tgl 15 0 empty empty empty 17 7 0 10 -262144 -1 -1 0 1
;
#N canvas 28 112 427 392 on/play 0;
#X obj 98 18 inlet;
#X obj 98 39 change;
#X obj 98 60 sel 0 1, f 18;
#X obj 150 108 del 350;
#X msg 112 82 stop;
#X msg 150 129 1;
#X msg 98 127 0;
#X obj 98 188 change;
#X obj 74 18 tgl 15 0 empty empty empty 17 7 0 10 -262144 -1 -1 0 1
;
#X obj 170 193 f;
#X obj 170 214 t f f;
#X obj 168 239 sel 0;
#X obj 125 226 sel 1;
#X msg 125 247 1;
#X obj 98 303 outlet on;
#X obj 178 308 outlet play;
#X connect 0 0 1 0;
#X connect 1 0 2 0;
#X connect 2 0 4 0;
#X connect 2 0 6 0;
#X connect 2 1 3 0;
#X connect 3 0 5 0;
#X connect 4 0 3 0;
#X connect 5 0 7 0;
#X connect 5 0 9 0;
#X connect 6 0 7 0;
#X connect 6 0 9 0;
#X connect 7 0 12 0;
#X connect 7 0 14 0;
#X connect 8 0 1 0;
#X connect 9 0 10 0;
#X connect 10 0 11 1;
#X connect 10 1 11 0;
#X connect 11 0 15 0;
#X connect 12 0 13 0;
#X connect 13 0 15 0;
#X restore 31 57 pd on/play;
#X obj 88 75 tgl 15 0 empty empty empty 17 7 0 10 -262144 -1 -1 1 1
;
#X obj 31 97 s \$1-ON;
#X obj 88 95 s \$1-PLAY;
#X connect 0 0 12 0;
#X connect 2 0 9 1;
#X connect 3 0 10 1;
#X connect 5 0 11 1;
#X connect 6 0 7 0;
#X connect 7 0 17 0;
#X connect 9 0 1 0;
#X connect 10 0 4 0;
#X connect 11 0 8 0;
#X connect 12 0 9 0;
#X connect 12 1 10 0;
#X connect 12 2 11 0;
#X connect 12 3 14 0;
#X connect 13 0 14 1;
#X connect 14 0 15 0;
#X connect 16 0 19 0;
#X connect 17 0 16 0;
#X connect 17 1 18 0;
#X connect 18 0 20 0;
