#N canvas 822 75 908 506 12;
#N struct \$0-array float x array bars \$0-bar array regions \$0-region 3 array fgregions \$0-region 1;
#N struct \$0-bar float pos float min float max float width float color;
#N struct \$0-region float x1 float x2 float y float width float color;
#N struct \$0-array float x array bars \$0-bar array regions \$0-region 3 array fgregions \$0-region 1;
#N struct \$0-bar float pos float min float max float width float color;
#N struct \$0-region float x1 float x2 float y float width float color;
#N struct \$0-main float x array marks \$0-mark array front-marks \$0-mark array front-regions \$0-region array regions \$0-region;
#N struct \$0-mark float x float y float color list time;
#N struct \$0-region float x1 float x2 float y float width float color;
#N struct \$0-main float x array marks \$0-mark array front-marks \$0-mark array front-regions \$0-region array regions \$0-region;
#N struct \$0-mark float x float y float color list time;
#N struct \$0-region float x1 float x2 float y float width float color;
#X obj 31 210 wavview \$0-view;
#X msg 34 144 table \$1;
#X obj 34 169 s \$0-view-control;
#X obj 455 210 wavview \$0-view2;
#X obj 34 94 route 0 1;
#X obj 34 121 symbol;
#X msg 163 144 table \$1;
#X obj 163 121 symbol;
#X obj 163 169 s \$0-view2-control;
#X obj 31 413 wavview/timeline \$0-view 400;
#X obj 455 413 wavview/timeline \$0-view2 400;
#X obj 34 37 r PINGNIP-tab;
#X obj 34 65 spigot 1;
#X obj 107 63 tgl 20 0 empty empty empty 0 -10 0 12 #fcfcfc #000000 #000000 0 1;
#X connect 1 0 2 0;
#X connect 4 0 5 0;
#X connect 4 1 7 0;
#X connect 5 0 1 0;
#X connect 6 0 8 0;
#X connect 7 0 6 0;
#X connect 11 0 12 0;
#X connect 12 0 4 0;
#X connect 13 0 12 1;
