#N canvas 0 0 396 173 12;
#X obj 27 26 inlet~;
#X obj 27 51 delwrite~ \$0-del \$1;
#X obj 26 84 delread~ \$0-del;
#X obj 26 109 outlet~;
#X obj 208 19 inlet;
#X obj 209 73 loadbang;
#X obj 209 98 f \$1;
#X connect 0 0 1 0;
#X connect 2 0 3 0;
#X connect 4 0 2 0;
#X connect 5 0 6 0;
#X connect 6 0 2 0;
