#N canvas 906 98 435 678 12;
#X obj 269 76 tgl 30 0 empty empty REC 0 -10 0 12 #ff0400 #000000 #000000 0 1;
#X obj 19 88 t a a;
#X msg 19 469 time 20000 \, tic;
#X obj 19 412 sel 0;
#X obj 19 494 bng 20 250 50 0 empty empty empty 0 -10 0 12 #fcfcfc #000000 #000000;
#X obj 19 183 ndmetro 8 8;
#X obj 269 194 timer;
#X obj 269 166 sel 1 0;
#X obj 269 226 /;
#X msg 179 191 \$2;
#X obj 269 251 / 4;
#X obj 269 276 + 0.9;
#X obj 269 301 i;
#X obj 269 326 * 4;
#X obj 269 351 *;
#X obj 19 241 t f f, f 11;
#X obj 84 272 f;
#X obj 84 297 moses 4;
#X obj 19 354 list prepend 0;
#X msg 50 322 0;
#X msg 84 322 1;
#X msg 130 323 2;
#X msg 70 437 1;
#X obj 70 413 sel 0;
#X obj 19 384 route 0 1 2 3, f 17;
#X obj 269 376 t b f;
#X obj 268 421 f;
#X msg 160 323 3;
#X msg 192 323 4;
#X msg 268 547 time \$1 \, tic;
#X msg 268 446 0 \$1;
#X obj 268 497 b;
#X obj 268 522 f;
#X obj 144 78 bng 20 250 50 0 empty empty reset 0 -10 0 12 #ff8300 #000000 #000000;
#X obj 268 572 bng 20 250 50 0 empty empty empty 0 -10 0 12 #fcfcfc #000000 #000000;
#X obj 268 472 ndmetro 1 1;
#X obj 124 439 b;
#X msg 234 446 -1;
#X obj 124 412 sel 0;
#X obj 158 501 bng 20 250 50 0 empty empty empty 0 -10 0 12 #fcfcfc #000000 #000000;
#X obj 269 140 spigot;
#X msg 330 141 0;
#X msg 308 114 1;
#X obj 19 643 outlet pingnip;
#X obj 19 8 inlet;
#X msg 70 559 reset;
#X msg 119 558 rec \$1;
#X obj 19 33 route clock reset rec, f 54;
#X msg 365 254 2;
#X floatatom 349 292 5 0 0 0 - - - 0;
#X msg 330 255 1;
#X floatatom 322 351 5 0 0 0 - - - 0;
#X obj 207 528 print;
#X obj 19 212 change;
#X connect 0 0 40 0;
#X connect 0 0 46 0;
#X connect 1 0 5 0;
#X connect 1 1 9 0;
#X connect 2 0 4 0;
#X connect 2 0 43 0;
#X connect 3 0 2 0;
#X connect 5 0 53 0;
#X connect 6 0 8 0;
#X connect 7 0 6 0;
#X connect 7 0 16 0;
#X connect 7 1 6 1;
#X connect 7 1 41 0;
#X connect 8 0 10 0;
#X connect 9 0 8 1;
#X connect 9 0 14 1;
#X connect 10 0 11 0;
#X connect 11 0 12 0;
#X connect 12 0 13 0;
#X connect 13 0 14 0;
#X connect 13 0 51 0;
#X connect 14 0 25 0;
#X connect 15 0 18 0;
#X connect 15 1 16 1;
#X connect 16 0 17 0;
#X connect 17 0 20 0;
#X connect 17 1 21 0;
#X connect 18 0 24 0;
#X connect 19 0 18 1;
#X connect 20 0 18 1;
#X connect 21 0 18 1;
#X connect 22 0 18 1;
#X connect 23 0 22 0;
#X connect 23 0 2 0;
#X connect 24 0 3 0;
#X connect 24 2 23 0;
#X connect 24 3 38 0;
#X connect 25 0 27 0;
#X connect 25 1 26 1;
#X connect 25 1 32 1;
#X connect 26 0 30 0;
#X connect 27 0 18 1;
#X connect 28 0 18 1;
#X connect 29 0 34 0;
#X connect 29 0 43 0;
#X connect 30 0 35 0;
#X connect 31 0 32 0;
#X connect 32 0 29 0;
#X connect 33 0 19 0;
#X connect 33 0 37 0;
#X connect 33 0 42 0;
#X connect 33 0 45 0;
#X connect 35 0 31 0;
#X connect 36 0 26 0;
#X connect 36 0 39 0;
#X connect 37 0 35 0;
#X connect 38 0 36 0;
#X connect 38 0 28 0;
#X connect 40 0 7 0;
#X connect 41 0 40 1;
#X connect 42 0 40 1;
#X connect 44 0 47 0;
#X connect 45 0 43 0;
#X connect 46 0 43 0;
#X connect 47 0 1 0;
#X connect 47 1 33 0;
#X connect 47 2 0 0;
#X connect 48 0 49 0;
#X connect 49 0 13 1;
#X connect 49 0 10 1;
#X connect 50 0 49 0;
#X connect 53 0 15 0;
