#N canvas 117 58 799 778 10;
#X obj 223 673 +~;
#X obj 16 80 table \$0-t1 882000;
#X obj 198 276 tgl 20 0 empty empty empty 0 -6 0 8 #fcfcfc #000000 #000000 0 1;
#X msg 329 89 const 0;
#X obj 329 138 s \$0-t1;
#X obj 551 278 t f f, f 9;
#X obj 551 333 s \$0-ms;
#X obj 611 305 s \$0-nbsmp;
#X obj 16 51 table \$0-t0 882000;
#X obj 462 413 == 0;
#X msg 453 324 stop;
#X obj 345 114 s \$0-t0;
#X obj 197 707 tabwrite~ \$0-t0;
#X obj 198 327 t b b;
#X floatatom 602 329 12 0 0 0 - - - 0;
#X obj 551 305 / 44.1;
#X obj 551 177 * 44.1;
#X floatatom 615 126 6 0 0 0 - - - 0;
#X obj 21 411 -;
#X obj 390 88 s \$0-ms0;
#X obj 21 128 inlet~;
#X obj 356 699 outlet~;
#X obj 268 41 inlet;
#X obj 21 362 pack f f, f 10;
#X msg 21 387 \$2 \$1;
#X obj 21 311 *, f 10;
#X obj 21 337 clip 0 1;
#X msg 78 208 1 \$1;
#X obj 78 285 * 1000;
#X obj 78 234 -;
#X obj 78 260 pow 4;
#X obj 574 89 s \$0-oneway;
#X obj 562 676 outlet;
#X msg 78 110 \$1 1;
#X obj 78 134 line~;
#X obj 21 157 *~, f 10;
#X obj 78 337 r \$0-feed;
#X obj 451 88 s \$0-feed;
#X obj 513 88 s \$0-over;
#X obj 78 183 r \$0-over;
#X obj 650 89 s \$0-tic;
#X obj 198 112 r \$0-tic;
#X obj 462 437 list prepend \$0;
#X msg 462 462 set \$1-t\$2;
#X obj 359 416 list prepend \$0;
#X obj 21 461 line~;
#X obj 224 643 *~;
#X obj 551 128 r \$0-ms0;
#X msg 359 441 symbol \$1-t\$2;
#X msg 305 484 set \$1;
#X obj 288 371 r \$0-ms;
#X obj 281 523 r \$0-nbsmp;
#X obj 240 330 r \$0-oneway;
#X obj 225 353 f;
#X obj 225 418 route 0 1, f 20;
#X obj 198 299 t b f b, f 43;
#X floatatom 515 358 6 0 0 0 - - - 0;
#X obj 225 520 *~;
#X obj 225 395 pack f 2000;
#X msg 225 442 1 \, 0 \$1;
#X msg 283 442 0 \, 1 \$1;
#X msg 421 524 set \$1;
#X obj 393 573 r \$0-nbsmp;
#X obj 357 575 *~;
#X obj 358 548 wrap~;
#X floatatom 653 495 11 0 0 0 - - - 0;
#X obj 653 440 * 44.1;
#X obj 653 468 / 176384;
#X obj 653 392 t b f;
#X obj 653 369 r \$0-nbsmp;
#X obj 268 65 route rec reset time feed over oneway tic latencyMs, f 85;
#X obj 653 415 f;
#X obj 631 388 bng 18 250 50 0 empty empty empty 0 -9 0 10 #fcfcfc #000000 #000000;
#X obj 566 448 * 2;
#X obj 566 471 - 1;
#X obj 545 498 * -1;
#X obj 358 525 +~;
#X floatatom 582 498 5 0 0 0 - - - 0;
#X obj 566 426 r \$0-oneway;
#X obj 489 353 tgl 18 0 empty empty empty 0 -9 0 10 #fcfcfc #000000 #000000 0 1;
#X obj 356 648 *~, f 19;
#X obj 468 540 == 0;
#X obj 468 623 line~;
#X msg 21 438 \$1 5;
#X obj 468 570 sel 0 1;
#X msg 468 600 0 1;
#X msg 502 601 1 50;
#X obj 214 166 f;
#X obj 214 196 sel 0 1, f 14;
#X obj 214 250 f;
#X obj 254 219 f;
#X obj 284 219 == 0;
#X obj 268 170 tgl 18 0 empty empty empty 0 -9 0 10 #fcfcfc #000000 #000000 0 1;
#X obj 268 103 f;
#X msg 268 147 1;
#X obj 198 136 t b b;
#X obj 268 125 sel 1;
#X msg 352 218 0;
#X obj 352 171 f;
#X obj 352 194 sel 0;
#X obj 387 268 t b f;
#X obj 357 268 * 1;
#X obj 387 243 == 0;
#X obj 387 219 r \$0-oneway;
#X obj 293 658 line~;
#X obj 279 680 *~;
#X obj 138 408 del;
#X obj 153 360 r \$0-ms;
#X obj 153 383 - 10;
#X msg 158 441 0 10;
#X msg 301 634 1 10;
#X obj 224 593 tabread~ \$0-t1;
#X obj 357 626 tabread~ \$0-t1;
#X obj 281 546 - 0;
#X obj 359 390 t f f;
#X obj 562 653 list prepend 0;
#X msg 432 157 resize \$1;
#X msg 432 122 44100;
#X msg 475 120 882000;
#X floatatom 56 434 5 0 0 0 - - - 0;
#X obj 356 674 *~;
#X obj 102 507 line~;
#X msg 102 484 \$1 5;
#X obj 102 460 == 0;
#X obj 551 153 change;
#X obj 40 676 print~;
#X obj 55 566 r \$0-nbsmp;
#X obj 55 589 / 64;
#X floatatom 55 612 5 0 0 0 - - - 0;
#X obj 512 185 bng 18 250 50 0 empty empty empty 0 -9 0 10 #fcfcfc #000000 #000000;
#X obj 40 636 f;
#X obj 22 536 spigot;
#X msg 66 536 0;
#X msg 51 513 1;
#X msg 93 590 8;
#X obj 551 202 / 64;
#X obj 551 250 * 64;
#X obj 551 226 i;
#X floatatom 274 568 5 0 0 0 - - - 0;
#X obj 225 485 doubleline~;
#X obj 225 557 +~ 0.5;
#X obj 357 601 +~ 0.5;
#X connect 0 0 12 0;
#X connect 2 0 55 0;
#X connect 3 0 4 0;
#X connect 3 0 11 0;
#X connect 5 0 15 0;
#X connect 5 1 7 0;
#X connect 5 1 14 0;
#X connect 9 0 42 0;
#X connect 10 0 12 0;
#X connect 13 0 12 0;
#X connect 13 0 106 0;
#X connect 13 1 53 0;
#X connect 15 0 56 0;
#X connect 15 0 6 0;
#X connect 16 0 135 0;
#X connect 18 0 83 0;
#X connect 18 0 119 0;
#X connect 20 0 35 0;
#X connect 22 0 70 0;
#X connect 23 0 24 0;
#X connect 24 0 18 0;
#X connect 25 0 26 0;
#X connect 26 0 23 0;
#X connect 27 0 29 0;
#X connect 28 0 25 1;
#X connect 29 0 30 0;
#X connect 30 0 28 0;
#X connect 33 0 34 0;
#X connect 34 0 35 1;
#X connect 35 0 0 0;
#X connect 36 0 23 1;
#X connect 39 0 27 0;
#X connect 41 0 95 0;
#X connect 42 0 43 0;
#X connect 43 0 12 0;
#X connect 44 0 48 0;
#X connect 45 0 46 1;
#X connect 46 0 0 0;
#X connect 47 0 17 0;
#X connect 47 0 124 0;
#X connect 48 0 49 0;
#X connect 48 0 61 0;
#X connect 48 0 110 0;
#X connect 48 0 115 0;
#X connect 49 0 111 0;
#X connect 50 0 58 1;
#X connect 51 0 113 0;
#X connect 52 0 53 1;
#X connect 53 0 58 0;
#X connect 54 0 59 0;
#X connect 54 1 60 0;
#X connect 55 0 13 0;
#X connect 55 1 9 0;
#X connect 55 1 114 0;
#X connect 55 2 10 0;
#X connect 55 2 75 0;
#X connect 55 2 79 0;
#X connect 55 2 131 0;
#X connect 57 0 140 0;
#X connect 58 0 54 0;
#X connect 59 0 139 0;
#X connect 60 0 139 0;
#X connect 61 0 112 0;
#X connect 62 0 63 1;
#X connect 63 0 141 0;
#X connect 64 0 63 0;
#X connect 66 0 67 0;
#X connect 67 0 65 0;
#X connect 67 0 75 0;
#X connect 68 0 71 0;
#X connect 68 1 67 1;
#X connect 69 0 68 0;
#X connect 70 0 33 0;
#X connect 70 0 25 0;
#X connect 70 0 93 0;
#X connect 70 0 101 0;
#X connect 70 0 123 0;
#X connect 70 1 3 0;
#X connect 70 2 19 0;
#X connect 70 3 37 0;
#X connect 70 4 38 0;
#X connect 70 5 31 0;
#X connect 70 6 40 0;
#X connect 70 7 71 0;
#X connect 71 0 66 0;
#X connect 72 0 71 0;
#X connect 73 0 74 0;
#X connect 74 0 77 0;
#X connect 74 0 75 1;
#X connect 75 0 76 1;
#X connect 76 0 64 0;
#X connect 78 0 73 0;
#X connect 80 0 120 0;
#X connect 81 0 84 0;
#X connect 82 0 80 1;
#X connect 83 0 45 0;
#X connect 84 0 85 0;
#X connect 84 1 86 0;
#X connect 85 0 82 0;
#X connect 86 0 82 0;
#X connect 87 0 88 0;
#X connect 88 0 89 0;
#X connect 88 1 90 0;
#X connect 88 1 98 0;
#X connect 89 0 91 0;
#X connect 90 0 89 0;
#X connect 91 0 90 1;
#X connect 92 0 87 1;
#X connect 93 0 96 0;
#X connect 93 0 98 1;
#X connect 94 0 92 0;
#X connect 95 0 2 0;
#X connect 95 1 93 0;
#X connect 96 0 94 0;
#X connect 97 0 92 0;
#X connect 98 0 99 0;
#X connect 99 0 97 0;
#X connect 100 0 101 0;
#X connect 100 1 101 1;
#X connect 101 0 81 0;
#X connect 102 0 100 0;
#X connect 103 0 102 0;
#X connect 104 0 105 1;
#X connect 106 0 109 0;
#X connect 107 0 108 0;
#X connect 108 0 106 1;
#X connect 109 0 104 0;
#X connect 110 0 104 0;
#X connect 111 0 46 0;
#X connect 112 0 80 0;
#X connect 113 0 57 1;
#X connect 114 0 44 0;
#X connect 114 1 115 1;
#X connect 115 0 32 0;
#X connect 116 0 11 0;
#X connect 116 0 4 0;
#X connect 117 0 116 0;
#X connect 118 0 116 0;
#X connect 120 0 21 0;
#X connect 121 0 120 1;
#X connect 122 0 121 0;
#X connect 123 0 122 0;
#X connect 124 0 16 0;
#X connect 126 0 127 0;
#X connect 127 0 128 0;
#X connect 128 0 130 1;
#X connect 129 0 16 0;
#X connect 130 0 125 0;
#X connect 131 0 132 0;
#X connect 131 0 130 0;
#X connect 132 0 131 1;
#X connect 133 0 131 1;
#X connect 134 0 128 0;
#X connect 135 0 137 0;
#X connect 136 0 5 0;
#X connect 137 0 136 0;
#X connect 138 0 140 1;
#X connect 139 0 57 0;
#X connect 139 0 76 0;
#X connect 140 0 111 0;
#X connect 140 0 125 0;
#X connect 141 0 112 0;
