#N canvas 167 19 898 873 12;
#X declare -path moonlib;
#N struct \$0-array float x array bars \$0-bar array regions \$0-region 3 array fgregions \$0-region 1;
#N struct \$0-bar float pos float min float max float width float color;
#N struct \$0-region float x1 float x2 float y float width float color;
#N struct \$0-main float x array marks \$0-mark array front-marks \$0-mark array front-regions \$0-region array regions \$0-region;
#N struct \$0-mark float x float y float color list time;
#N struct \$0-region float x1 float x2 float y float width float color;
#N struct \$0-array float x array bars \$0-bar array regions \$0-region 3 array fgregions \$0-region 1;
#N struct \$0-bar float pos float min float max float width float color;
#N struct \$0-region float x1 float x2 float y float width float color;
#N struct \$0-main float x array marks \$0-mark array front-marks \$0-mark array front-regions \$0-region array regions \$0-region;
#N struct \$0-mark float x float y float color list time;
#N struct \$0-region float x1 float x2 float y float width float color;
#X msg 71 202 rec \$1;
#X msg 206 400 feed \$1;
#X msg 191 306 over \$1;
#X msg 252 307 oneway \$1;
#X msg 206 340 reset;
#X obj -11 381 hip~ 10;
#X obj -12 332 pingnip5;
#X obj -11 17 adc~;
#X obj 71 15 keyname, f 12;
#X obj 71 40 list prepend;
#X obj 71 65 spigot;
#X obj 130 63 tgl 20 0 empty empty empty 0 -10 0 12 #00ff04 #000000 #000000 0 1;
#X obj 71 90 list trim, f 12;
#X obj 71 162 tgl 30 0 empty empty REC 0 -10 0 12 #ff0400 #000000 #000000 0 1;
#X obj 191 268 tgl 30 0 empty empty OVER 0 -10 0 12 #faff00 #000000 #000000 0 1;
#X obj 252 270 tgl 30 0 empty empty 1WAY 0 -10 0 12 #faff00 #000000 #000000 0 1;
#X obj 209 371 hsl 170 20 0 1 0 0 empty empty empty -2 -10 0 12 #fcfcfc #000000 #000000 0 1;
#X obj -11 510 *~;
#X obj -11 535 dac~;
#X obj 9 409 hsl 170 20 0 1 0 0 empty empty empty -2 -10 0 12 #fcfcfc #000000 #000000 0 1;
#X obj 6 434 pow 2;
#X msg 6 459 \$1 10;
#X obj 6 484 line~;
#X msg 312 55 \; pd dsp 1;
#X obj 312 28 loadbang;
#X obj 391 30 declare -path moonlib;
#N canvas 0 0 636 633 drumbox 0;
#X obj 76 27 inlet;
#X floatatom 76 77 5 0 0 0 - - - 0;
#X obj 49 221 line~;
#X obj 49 246 *~;
#X obj 49 296 osc~;
#X obj 49 321 *~;
#X obj 49 346 *~ 0.2;
#X obj 89 484 *~ 0.2;
#X obj 158 220 line~;
#X obj 158 245 *~;
#X obj 158 320 *~;
#X obj 181 285 noise~;
#X msg 158 195 1 \, 0 250;
#X obj 157 354 bp~ 400 8;
#X obj 157 387 *~ 2;
#X obj 230 378 *~ 0.5;
#X obj 230 353 bp~ 1600 6;
#X obj 325 223 line~;
#X obj 325 248 *~;
#X obj 325 323 *~;
#X obj 348 288 noise~;
#X obj 89 509 outlet~;
#X obj 49 155 sel 0 4;
#X msg 325 198 1 \, 0 80;
#X obj 325 352 bp~ 6600 6;
#X obj 325 377 *~ 0.2;
#X obj 49 121 mod 8;
#X obj 76 52 ndmetro 32 4;
#X obj 49 271 *~ 130;
#X msg 49 196 1 \, 0 700;
#X obj 106 121 sel 15 30;
#X connect 0 0 27 0;
#X connect 2 0 3 0;
#X connect 2 0 3 1;
#X connect 2 0 5 1;
#X connect 3 0 28 0;
#X connect 4 0 5 0;
#X connect 5 0 6 0;
#X connect 6 0 7 0;
#X connect 7 0 21 0;
#X connect 8 0 9 0;
#X connect 8 0 9 1;
#X connect 9 0 10 0;
#X connect 10 0 13 0;
#X connect 10 0 16 0;
#X connect 11 0 10 1;
#X connect 12 0 8 0;
#X connect 13 0 14 0;
#X connect 14 0 7 0;
#X connect 15 0 7 0;
#X connect 16 0 15 0;
#X connect 17 0 18 0;
#X connect 17 0 18 1;
#X connect 18 0 19 0;
#X connect 19 0 24 0;
#X connect 20 0 19 1;
#X connect 22 0 29 0;
#X connect 22 1 12 0;
#X connect 23 0 17 0;
#X connect 24 0 25 0;
#X connect 25 0 7 0;
#X connect 26 0 22 0;
#X connect 27 0 1 0;
#X connect 27 0 23 0;
#X connect 27 0 26 0;
#X connect 27 0 30 0;
#X connect 28 0 4 0;
#X connect 29 0 2 0;
#X connect 30 0 29 0;
#X connect 30 1 29 0;
#X restore 428 339 pd drumbox;
#X obj 325 163 t a a;
#X msg 379 130 -1 500;
#X msg 325 131 0 500;
#X obj 325 102 loadbang;
#X obj 427 515 *~;
#X obj 427 540 dac~;
#X obj 449 366 hsl 170 20 0 1 0 0 empty empty empty -2 -10 0 12 #fcfcfc #000000 #000000 0 1;
#X obj 446 391 pow 2;
#X msg 446 416 \$1 10;
#X obj 446 441 line~;
#X msg 206 456 latencyMs \$1;
#X floatatom 206 432 5 0 200 0 - - - 0;
#X obj 134 175 sel 1;
#X obj 41 270 pingnip5-recctl;
#X msg 134 204 reset;
#X msg 180 204 clock \$1 \$2;
#X obj 71 116 route Shift_L Control_L;
#X obj -10 124 hip~ 50;
#X obj -11 59 -~;
#X obj -11 614 wavview \$0-view;
#X msg 69 545 table \$1;
#X obj 69 570 s \$0-view-control;
#X obj -11 816 wavview/timeline \$0-view 400;
#X obj -2 226 osc~ 2000;
#X obj 413 614 wavview \$0-view2;
#X obj 413 816 wavview/timeline \$0-view2 400;
#X obj 64 475 route 0 1;
#X obj 69 522 symbol;
#X msg 198 545 table \$1;
#X obj 198 522 symbol;
#X obj 198 570 s \$0-view2-control;
#X obj 565 145 sel 1;
#X obj 567 221 mtof;
#X listbox 83 443 20 0 0 0 - - - 0;
#X obj 567 172 random 70;
#X obj 567 197 + 40;
#X connect 0 0 40 0;
#X connect 1 0 6 1;
#X connect 2 0 6 1;
#X connect 3 0 6 1;
#X connect 4 0 6 1;
#X connect 5 0 17 0;
#X connect 6 0 5 0;
#X connect 6 1 53 0;
#X connect 6 1 60 0;
#X connect 7 0 45 0;
#X connect 8 0 9 0;
#X connect 8 1 9 1;
#X connect 9 0 10 0;
#X connect 10 0 12 0;
#X connect 11 0 10 1;
#X connect 12 0 43 0;
#X connect 13 0 0 0;
#X connect 13 0 58 0;
#X connect 14 0 2 0;
#X connect 15 0 3 0;
#X connect 16 0 1 0;
#X connect 17 0 18 0;
#X connect 17 0 18 1;
#X connect 19 0 20 0;
#X connect 20 0 21 0;
#X connect 21 0 22 0;
#X connect 22 0 17 1;
#X connect 24 0 23 0;
#X connect 26 0 31 0;
#X connect 27 0 26 0;
#X connect 27 0 42 0;
#X connect 28 0 27 0;
#X connect 29 0 27 0;
#X connect 30 0 29 0;
#X connect 31 0 32 0;
#X connect 31 0 32 1;
#X connect 33 0 34 0;
#X connect 34 0 35 0;
#X connect 35 0 36 0;
#X connect 36 0 31 1;
#X connect 37 0 6 1;
#X connect 38 0 37 0;
#X connect 39 0 41 0;
#X connect 40 0 6 1;
#X connect 41 0 40 0;
#X connect 42 0 40 0;
#X connect 43 0 13 0;
#X connect 43 1 39 0;
#X connect 44 0 6 0;
#X connect 45 0 44 0;
#X connect 47 0 48 0;
#X connect 53 0 54 0;
#X connect 53 1 56 0;
#X connect 54 0 47 0;
#X connect 55 0 57 0;
#X connect 56 0 55 0;
#X connect 58 0 61 0;
#X connect 59 0 50 0;
#X connect 61 0 62 0;
#X connect 62 0 59 0;
