#N canvas 316 177 576 810 12;
#X obj 269 76 tgl 30 0 empty empty REC 0 -10 0 12 #ff0400 #000000 #000000 0 1;
#X obj 19 88 t a a;
#X msg 19 469 time 20000 \, tic;
#X obj 19 412 sel 0;
#X obj 19 494 bng 20 250 50 0 empty empty empty 0 -10 0 12 #fcfcfc #000000 #000000;
#X obj 19 183 ndmetro 8 8;
#X obj 269 194 timer;
#X obj 269 166 sel 1 0;
#X obj 269 226 /;
#X msg 179 191 \$2;
#X obj 269 276 + 0.9;
#X obj 269 301 i;
#X obj 269 377 *;
#X obj 19 241 t f f, f 11;
#X obj 84 272 f;
#X obj 84 297 moses 4;
#X obj 19 354 list prepend 0;
#X msg 50 322 0;
#X msg 84 322 1;
#X msg 130 323 2;
#X msg 70 437 1;
#X obj 70 413 sel 0;
#X obj 269 402 t b f;
#X obj 314 512 f;
#X msg 160 323 3;
#X msg 169 358 4;
#X msg 228 707 time \$1 \, tic;
#X msg 314 537 0 \$1;
#X obj 317 600 b;
#X obj 317 625 f;
#X obj 144 78 bng 20 250 50 0 empty empty reset 0 -10 0 12 #ff8300 #000000 #000000;
#X obj 332 675 bng 20 250 50 0 empty empty empty 0 -10 0 12 #fcfcfc #000000 #000000;
#X obj 317 575 ndmetro 1 1;
#X obj 119 440 b;
#X msg 283 549 -1;
#X obj 119 413 sel 0;
#X obj 269 140 spigot;
#X msg 330 141 0;
#X msg 308 114 1;
#X obj 19 643 outlet pingnip;
#X obj 19 8 inlet;
#X msg 47 561 reset;
#X msg 96 560 rec \$1;
#X obj 19 33 route clock reset rec, f 54;
#X msg 365 254 2;
#X floatatom 349 292 5 0 0 0 - - - 0;
#X msg 330 255 1;
#X floatatom 322 377 5 0 0 0 - - - 0;
#X obj 247 745 print;
#X obj 19 212 change;
#X obj 269 327 max 1;
#X obj 364 709 outlet beats;
#X obj 269 251 / 1;
#X obj 269 352 * 1;
#X msg 397 255 4;
#X obj 204 766 bng 20 250 50 0 empty empty empty 0 -10 0 12 #fcfcfc #000000 #000000;
#X floatatom 381 522 5 0 0 0 - - - 0;
#X obj 171 433 sel 0;
#X obj 206 529 + 1;
#X obj 171 528 f;
#X obj 171 559 / 1;
#X obj 171 587 i;
#X obj 171 613 change;
#X floatatom 258 593 5 0 0 0 - - - 0;
#X obj 217 461 bng 20 250 50 0 empty empty empty 0 -10 0 12 #fcfcfc #000000 #000000;
#X floatatom 124 608 5 0 0 0 - - - 0;
#X obj 132 526 bng 20 250 50 0 empty empty empty 0 -10 0 12 #fcfcfc #000000 #000000;
#X obj 171 638 b;
#X obj 171 672 f;
#X msg 51 143 -1;
#X obj 19 384 route 0 1 2 3 4, f 24;
#X msg 149 482 0;
#X connect 0 0 36 0;
#X connect 0 0 42 0;
#X connect 1 0 5 0;
#X connect 1 1 9 0;
#X connect 2 0 4 0;
#X connect 2 0 39 0;
#X connect 3 0 2 0;
#X connect 5 0 49 0;
#X connect 6 0 8 0;
#X connect 7 0 6 0;
#X connect 7 0 14 0;
#X connect 7 1 6 1;
#X connect 7 1 37 0;
#X connect 8 0 52 0;
#X connect 9 0 8 1;
#X connect 9 0 12 1;
#X connect 10 0 11 0;
#X connect 11 0 50 0;
#X connect 12 0 22 0;
#X connect 13 0 16 0;
#X connect 13 1 14 1;
#X connect 14 0 15 0;
#X connect 15 0 18 0;
#X connect 15 1 19 0;
#X connect 16 0 70 0;
#X connect 17 0 16 1;
#X connect 18 0 16 1;
#X connect 19 0 16 1;
#X connect 20 0 16 1;
#X connect 21 0 20 0;
#X connect 21 0 2 0;
#X connect 22 0 24 0;
#X connect 22 1 23 1;
#X connect 22 1 29 1;
#X connect 22 1 56 0;
#X connect 22 1 68 1;
#X connect 23 0 27 0;
#X connect 24 0 16 1;
#X connect 25 0 16 1;
#X connect 26 0 31 0;
#X connect 26 0 39 0;
#X connect 27 0 32 0;
#X connect 28 0 29 0;
#X connect 30 0 17 0;
#X connect 30 0 34 0;
#X connect 30 0 38 0;
#X connect 30 0 41 0;
#X connect 32 0 28 0;
#X connect 33 0 23 0;
#X connect 33 0 71 0;
#X connect 33 0 66 0;
#X connect 34 0 32 0;
#X connect 35 0 33 0;
#X connect 35 0 25 0;
#X connect 36 0 7 0;
#X connect 37 0 36 1;
#X connect 38 0 36 1;
#X connect 40 0 43 0;
#X connect 41 0 39 0;
#X connect 42 0 39 0;
#X connect 43 0 1 0;
#X connect 43 1 30 0;
#X connect 43 2 0 0;
#X connect 44 0 45 0;
#X connect 45 0 52 1;
#X connect 45 0 53 1;
#X connect 46 0 45 0;
#X connect 49 0 13 0;
#X connect 50 0 53 0;
#X connect 52 0 10 0;
#X connect 53 0 12 0;
#X connect 53 0 47 0;
#X connect 53 0 51 0;
#X connect 53 0 60 1;
#X connect 54 0 45 0;
#X connect 57 0 59 0;
#X connect 57 0 64 0;
#X connect 58 0 59 1;
#X connect 59 0 58 0;
#X connect 59 0 63 0;
#X connect 59 0 60 0;
#X connect 60 0 65 0;
#X connect 60 0 61 0;
#X connect 61 0 62 0;
#X connect 62 0 67 0;
#X connect 67 0 68 0;
#X connect 68 0 55 0;
#X connect 68 0 26 0;
#X connect 69 0 5 0;
#X connect 70 0 3 0;
#X connect 70 2 21 0;
#X connect 70 3 35 0;
#X connect 70 4 57 0;
#X connect 71 0 59 0;
