#N canvas 865 72 697 671 12;
#X msg 82 62 1800;
#X obj 82 87 * 64;
#X obj 114 137 / 44.1;
#X floatatom 131 111 9 0 0 0 - - - 0;
#X floatatom 189 246 9 0 0 0 - - - 0;
#X obj 82 112 t f f;
#X obj 82 171 pack f f;
#X msg 82 196 0 \, \$1 \$2;
#X obj 189 221 line, f 8;
#X obj 291 241 s \$0-t;
#X floatatom 166 170 7 0 0 0 - - - 0;
#X obj 288 282 table \$0-t 115200;
#X obj 81 268 tabwrite~ \$0-t;
#X obj 41 112 b;
#X obj 77 369 tabread \$0-t;
#X floatatom 77 421 9 0 0 0 - - - 0;
#X floatatom 77 343 12 0 0 0 - - - 0;
#X obj 339 405 samplerate~;
#X floatatom 339 430 7 0 0 0 - - - 0;
#X obj 347 359 bng 20 250 50 0 empty empty empty 0 -10 0 12 #fcfcfc #000000 #000000;
#X msg 133 61 100;
#X msg 171 61 500;
#X msg 77 314 6400;
#X msg 119 314 32000;
#X obj 203 472 tabread \$0-t;
#X obj 203 497 i;
#X floatatom 203 346 12 0 0 0 - - - 0;
#X msg 203 317 6400;
#X msg 245 317 32000;
#X obj 203 370 t f b;
#X obj 203 395 until;
#X obj 203 420 i;
#X obj 246 420 + 1;
#X msg 248 394 0;
#X obj 203 445 t f f;
#X obj 203 522 sel, f 5;
#X obj 235 600 print err;
#X obj 235 549 pack f f;
#X msg 235 574 \$1 should be \$2;
#X msg 204 63 1000;
#X msg 295 315 64000;
#X msg 344 316 115200;
#X obj 82 221 vline~, f 7;
#X msg 193 288 1000;
#X msg 20 310 115200;
#X msg 168 316 100;
#X obj 81 245 -~ 0.9;
#X obj 77 395 i;
#X msg 23 337 64000;
#X msg 463 33 1800;
#X obj 463 58 * 64;
#X obj 495 108 / 44.1;
#X floatatom 512 82 9 0 0 0 - - - 0;
#X floatatom 570 286 9 0 0 0 - - - 0;
#X obj 463 83 t f f;
#X obj 463 142 pack f f;
#X obj 570 231 line, f 8;
#X floatatom 547 141 7 0 0 0 - - - 0;
#X obj 464 313 tabwrite~ \$0-t;
#X obj 422 83 b;
#X msg 514 32 100;
#X msg 552 32 500;
#X msg 585 34 1000;
#X obj 463 231 vline~, f 7;
#X obj 464 290 -~ 0.9;
#X obj 464 262 *~, f 11;
#X obj 463 174 t a a, f 13;
#X msg 463 206 0 \, 1 \$2;
#X obj 551 200 unpack f;
#X obj 570 259 *;
#X connect 0 0 1 0;
#X connect 1 0 5 0;
#X connect 1 0 13 0;
#X connect 2 0 6 1;
#X connect 2 0 10 0;
#X connect 5 0 6 0;
#X connect 5 0 3 0;
#X connect 5 1 2 0;
#X connect 6 0 7 0;
#X connect 7 0 8 0;
#X connect 7 0 42 0;
#X connect 8 0 4 0;
#X connect 13 0 12 0;
#X connect 14 0 47 0;
#X connect 16 0 14 0;
#X connect 17 0 18 0;
#X connect 19 0 17 0;
#X connect 20 0 1 0;
#X connect 21 0 1 0;
#X connect 22 0 16 0;
#X connect 23 0 16 0;
#X connect 24 0 25 0;
#X connect 25 0 35 0;
#X connect 26 0 29 0;
#X connect 27 0 26 0;
#X connect 28 0 26 0;
#X connect 29 0 30 0;
#X connect 29 1 33 0;
#X connect 30 0 31 0;
#X connect 31 0 32 0;
#X connect 31 0 34 0;
#X connect 32 0 31 1;
#X connect 33 0 31 1;
#X connect 34 0 24 0;
#X connect 34 1 35 1;
#X connect 34 1 37 1;
#X connect 35 1 37 0;
#X connect 37 0 38 0;
#X connect 38 0 36 0;
#X connect 39 0 1 0;
#X connect 40 0 26 0;
#X connect 41 0 26 0;
#X connect 42 0 46 0;
#X connect 43 0 26 0;
#X connect 44 0 16 0;
#X connect 45 0 26 0;
#X connect 46 0 12 0;
#X connect 47 0 15 0;
#X connect 48 0 16 0;
#X connect 49 0 50 0;
#X connect 50 0 54 0;
#X connect 50 0 59 0;
#X connect 51 0 55 1;
#X connect 51 0 57 0;
#X connect 54 0 55 0;
#X connect 54 0 52 0;
#X connect 54 1 51 0;
#X connect 55 0 66 0;
#X connect 56 0 69 0;
#X connect 59 0 58 0;
#X connect 60 0 50 0;
#X connect 61 0 50 0;
#X connect 62 0 50 0;
#X connect 63 0 65 0;
#X connect 64 0 58 0;
#X connect 65 0 64 0;
#X connect 66 0 67 0;
#X connect 66 1 68 0;
#X connect 67 0 56 0;
#X connect 67 0 63 0;
#X connect 68 0 65 1;
#X connect 68 0 69 1;
#X connect 69 0 53 0;
